%FSLAX45Y45*%
G04 Gerber Fmt 4.5, Leading zero omitted, Abs format (unit mm)*
G04 Created by KiCad (PCBNEW 5.1.10) date 2021-09-07 22:45:55*
%MOMM*%
%LPD*%
G01*
G04 APERTURE LIST*
%TA.AperFunction,Profile*%
%ADD10C,0.050000*%
%TD*%
%ADD11C,0.200000*%
%ADD12C,0.300000*%
G04 APERTURE END LIST*
D10*
X10080000Y-15000000D02*
G75*
G02*
X9980000Y-14900000I0J100000D01*
G01*
X12980000Y-14900000D02*
G75*
G02*
X12880000Y-15000000I-100000J0D01*
G01*
X12880000Y-12000000D02*
G75*
G02*
X12980000Y-12100000I0J-100000D01*
G01*
X9980000Y-12100000D02*
G75*
G02*
X10080000Y-12000000I100000J0D01*
G01*
X12980000Y-12100000D02*
X12980000Y-14900000D01*
X12880000Y-15000000D02*
X10080000Y-15000000D01*
X10080000Y-12000000D02*
X12880000Y-12000000D01*
X9980000Y-14900000D02*
X9980000Y-12100000D01*
D11*
X10235000Y-13215000D02*
X10345000Y-13325000D01*
X10345000Y-13215000D02*
X10235000Y-13325000D01*
X10235000Y-13675000D02*
X10345000Y-13785000D01*
X10345000Y-13675000D02*
X10235000Y-13785000D01*
D12*
X10263928Y-15468214D02*
X10263928Y-15168214D01*
X10335357Y-15168214D01*
X10378214Y-15182500D01*
X10406786Y-15211071D01*
X10421071Y-15239643D01*
X10435357Y-15296786D01*
X10435357Y-15339643D01*
X10421071Y-15396786D01*
X10406786Y-15425357D01*
X10378214Y-15453929D01*
X10335357Y-15468214D01*
X10263928Y-15468214D01*
X10563928Y-15468214D02*
X10563928Y-15268214D01*
X10563928Y-15325357D02*
X10578214Y-15296786D01*
X10592500Y-15282500D01*
X10621071Y-15268214D01*
X10649643Y-15268214D01*
X10749643Y-15468214D02*
X10749643Y-15268214D01*
X10749643Y-15168214D02*
X10735357Y-15182500D01*
X10749643Y-15196786D01*
X10763928Y-15182500D01*
X10749643Y-15168214D01*
X10749643Y-15196786D01*
X10935357Y-15468214D02*
X10906786Y-15453929D01*
X10892500Y-15425357D01*
X10892500Y-15168214D01*
X11092500Y-15468214D02*
X11063928Y-15453929D01*
X11049643Y-15425357D01*
X11049643Y-15168214D01*
X11435357Y-15468214D02*
X11435357Y-15168214D01*
X11535357Y-15382500D01*
X11635357Y-15168214D01*
X11635357Y-15468214D01*
X11906786Y-15468214D02*
X11906786Y-15311071D01*
X11892500Y-15282500D01*
X11863928Y-15268214D01*
X11806786Y-15268214D01*
X11778214Y-15282500D01*
X11906786Y-15453929D02*
X11878214Y-15468214D01*
X11806786Y-15468214D01*
X11778214Y-15453929D01*
X11763928Y-15425357D01*
X11763928Y-15396786D01*
X11778214Y-15368214D01*
X11806786Y-15353929D01*
X11878214Y-15353929D01*
X11906786Y-15339643D01*
X12049643Y-15268214D02*
X12049643Y-15568214D01*
X12049643Y-15282500D02*
X12078214Y-15268214D01*
X12135357Y-15268214D01*
X12163928Y-15282500D01*
X12178214Y-15296786D01*
X12192500Y-15325357D01*
X12192500Y-15411071D01*
X12178214Y-15439643D01*
X12163928Y-15453929D01*
X12135357Y-15468214D01*
X12078214Y-15468214D01*
X12049643Y-15453929D01*
X12321071Y-15439643D02*
X12335357Y-15453929D01*
X12321071Y-15468214D01*
X12306786Y-15453929D01*
X12321071Y-15439643D01*
X12321071Y-15468214D01*
X12321071Y-15282500D02*
X12335357Y-15296786D01*
X12321071Y-15311071D01*
X12306786Y-15296786D01*
X12321071Y-15282500D01*
X12321071Y-15311071D01*
X9867500Y-15907500D02*
X9977500Y-16017500D01*
X9977500Y-15907500D02*
X9867500Y-16017500D01*
X10421071Y-16098214D02*
X10249643Y-16098214D01*
X10335357Y-16098214D02*
X10335357Y-15798214D01*
X10306786Y-15841071D01*
X10278214Y-15869643D01*
X10249643Y-15883929D01*
X10549643Y-16069643D02*
X10563928Y-16083929D01*
X10549643Y-16098214D01*
X10535357Y-16083929D01*
X10549643Y-16069643D01*
X10549643Y-16098214D01*
X10849643Y-16098214D02*
X10678214Y-16098214D01*
X10763928Y-16098214D02*
X10763928Y-15798214D01*
X10735357Y-15841071D01*
X10706786Y-15869643D01*
X10678214Y-15883929D01*
X11035357Y-15798214D02*
X11063928Y-15798214D01*
X11092500Y-15812500D01*
X11106786Y-15826786D01*
X11121071Y-15855357D01*
X11135357Y-15912500D01*
X11135357Y-15983929D01*
X11121071Y-16041071D01*
X11106786Y-16069643D01*
X11092500Y-16083929D01*
X11063928Y-16098214D01*
X11035357Y-16098214D01*
X11006786Y-16083929D01*
X10992500Y-16069643D01*
X10978214Y-16041071D01*
X10963928Y-15983929D01*
X10963928Y-15912500D01*
X10978214Y-15855357D01*
X10992500Y-15826786D01*
X11006786Y-15812500D01*
X11035357Y-15798214D01*
X11321071Y-15798214D02*
X11349643Y-15798214D01*
X11378214Y-15812500D01*
X11392500Y-15826786D01*
X11406786Y-15855357D01*
X11421071Y-15912500D01*
X11421071Y-15983929D01*
X11406786Y-16041071D01*
X11392500Y-16069643D01*
X11378214Y-16083929D01*
X11349643Y-16098214D01*
X11321071Y-16098214D01*
X11292500Y-16083929D01*
X11278214Y-16069643D01*
X11263928Y-16041071D01*
X11249643Y-15983929D01*
X11249643Y-15912500D01*
X11263928Y-15855357D01*
X11278214Y-15826786D01*
X11292500Y-15812500D01*
X11321071Y-15798214D01*
X11549643Y-16098214D02*
X11549643Y-15898214D01*
X11549643Y-15926786D02*
X11563928Y-15912500D01*
X11592500Y-15898214D01*
X11635357Y-15898214D01*
X11663928Y-15912500D01*
X11678214Y-15941071D01*
X11678214Y-16098214D01*
X11678214Y-15941071D02*
X11692500Y-15912500D01*
X11721071Y-15898214D01*
X11763928Y-15898214D01*
X11792500Y-15912500D01*
X11806786Y-15941071D01*
X11806786Y-16098214D01*
X11949643Y-16098214D02*
X11949643Y-15898214D01*
X11949643Y-15926786D02*
X11963928Y-15912500D01*
X11992500Y-15898214D01*
X12035357Y-15898214D01*
X12063928Y-15912500D01*
X12078214Y-15941071D01*
X12078214Y-16098214D01*
X12078214Y-15941071D02*
X12092500Y-15912500D01*
X12121071Y-15898214D01*
X12163928Y-15898214D01*
X12192500Y-15912500D01*
X12206786Y-15941071D01*
X12206786Y-16098214D01*
X12792500Y-15783929D02*
X12535357Y-16169643D01*
X13178214Y-15798214D02*
X13206786Y-15798214D01*
X13235357Y-15812500D01*
X13249643Y-15826786D01*
X13263928Y-15855357D01*
X13278214Y-15912500D01*
X13278214Y-15983929D01*
X13263928Y-16041071D01*
X13249643Y-16069643D01*
X13235357Y-16083929D01*
X13206786Y-16098214D01*
X13178214Y-16098214D01*
X13149643Y-16083929D01*
X13135357Y-16069643D01*
X13121071Y-16041071D01*
X13106786Y-15983929D01*
X13106786Y-15912500D01*
X13121071Y-15855357D01*
X13135357Y-15826786D01*
X13149643Y-15812500D01*
X13178214Y-15798214D01*
X13406786Y-16069643D02*
X13421071Y-16083929D01*
X13406786Y-16098214D01*
X13392500Y-16083929D01*
X13406786Y-16069643D01*
X13406786Y-16098214D01*
X13606786Y-15798214D02*
X13635357Y-15798214D01*
X13663928Y-15812500D01*
X13678214Y-15826786D01*
X13692500Y-15855357D01*
X13706786Y-15912500D01*
X13706786Y-15983929D01*
X13692500Y-16041071D01*
X13678214Y-16069643D01*
X13663928Y-16083929D01*
X13635357Y-16098214D01*
X13606786Y-16098214D01*
X13578214Y-16083929D01*
X13563928Y-16069643D01*
X13549643Y-16041071D01*
X13535357Y-15983929D01*
X13535357Y-15912500D01*
X13549643Y-15855357D01*
X13563928Y-15826786D01*
X13578214Y-15812500D01*
X13606786Y-15798214D01*
X13963928Y-15898214D02*
X13963928Y-16098214D01*
X13892500Y-15783929D02*
X13821071Y-15998214D01*
X14006786Y-15998214D01*
X14092500Y-15798214D02*
X14278214Y-15798214D01*
X14178214Y-15912500D01*
X14221071Y-15912500D01*
X14249643Y-15926786D01*
X14263928Y-15941071D01*
X14278214Y-15969643D01*
X14278214Y-16041071D01*
X14263928Y-16069643D01*
X14249643Y-16083929D01*
X14221071Y-16098214D01*
X14135357Y-16098214D01*
X14106786Y-16083929D01*
X14092500Y-16069643D01*
X14378214Y-15798214D02*
X14563928Y-15798214D01*
X14463928Y-15912500D01*
X14506786Y-15912500D01*
X14535357Y-15926786D01*
X14549643Y-15941071D01*
X14563928Y-15969643D01*
X14563928Y-16041071D01*
X14549643Y-16069643D01*
X14535357Y-16083929D01*
X14506786Y-16098214D01*
X14421071Y-16098214D01*
X14392500Y-16083929D01*
X14378214Y-16069643D01*
X14678214Y-15798214D02*
X14678214Y-15855357D01*
X14792500Y-15798214D02*
X14792500Y-15855357D01*
X15235357Y-16212500D02*
X15221071Y-16198214D01*
X15192500Y-16155357D01*
X15178214Y-16126786D01*
X15163928Y-16083929D01*
X15149643Y-16012500D01*
X15149643Y-15955357D01*
X15163928Y-15883929D01*
X15178214Y-15841071D01*
X15192500Y-15812500D01*
X15221071Y-15769643D01*
X15235357Y-15755357D01*
X15335357Y-15826786D02*
X15349643Y-15812500D01*
X15378214Y-15798214D01*
X15449643Y-15798214D01*
X15478214Y-15812500D01*
X15492500Y-15826786D01*
X15506786Y-15855357D01*
X15506786Y-15883929D01*
X15492500Y-15926786D01*
X15321071Y-16098214D01*
X15506786Y-16098214D01*
X15863928Y-16098214D02*
X15863928Y-15798214D01*
X15992500Y-16098214D02*
X15992500Y-15941071D01*
X15978214Y-15912500D01*
X15949643Y-15898214D01*
X15906786Y-15898214D01*
X15878214Y-15912500D01*
X15863928Y-15926786D01*
X16178214Y-16098214D02*
X16149643Y-16083929D01*
X16135357Y-16069643D01*
X16121071Y-16041071D01*
X16121071Y-15955357D01*
X16135357Y-15926786D01*
X16149643Y-15912500D01*
X16178214Y-15898214D01*
X16221071Y-15898214D01*
X16249643Y-15912500D01*
X16263928Y-15926786D01*
X16278214Y-15955357D01*
X16278214Y-16041071D01*
X16263928Y-16069643D01*
X16249643Y-16083929D01*
X16221071Y-16098214D01*
X16178214Y-16098214D01*
X16449643Y-16098214D02*
X16421071Y-16083929D01*
X16406786Y-16055357D01*
X16406786Y-15798214D01*
X16678214Y-16083929D02*
X16649643Y-16098214D01*
X16592500Y-16098214D01*
X16563928Y-16083929D01*
X16549643Y-16055357D01*
X16549643Y-15941071D01*
X16563928Y-15912500D01*
X16592500Y-15898214D01*
X16649643Y-15898214D01*
X16678214Y-15912500D01*
X16692500Y-15941071D01*
X16692500Y-15969643D01*
X16549643Y-15998214D01*
X16806786Y-16083929D02*
X16835357Y-16098214D01*
X16892500Y-16098214D01*
X16921071Y-16083929D01*
X16935357Y-16055357D01*
X16935357Y-16041071D01*
X16921071Y-16012500D01*
X16892500Y-15998214D01*
X16849643Y-15998214D01*
X16821071Y-15983929D01*
X16806786Y-15955357D01*
X16806786Y-15941071D01*
X16821071Y-15912500D01*
X16849643Y-15898214D01*
X16892500Y-15898214D01*
X16921071Y-15912500D01*
X17035357Y-16212500D02*
X17049643Y-16198214D01*
X17078214Y-16155357D01*
X17092500Y-16126786D01*
X17106786Y-16083929D01*
X17121071Y-16012500D01*
X17121071Y-15955357D01*
X17106786Y-15883929D01*
X17092500Y-15841071D01*
X17078214Y-15812500D01*
X17049643Y-15769643D01*
X17035357Y-15755357D01*
X17578214Y-16212500D02*
X17563928Y-16198214D01*
X17535357Y-16155357D01*
X17521071Y-16126786D01*
X17506786Y-16083929D01*
X17492500Y-16012500D01*
X17492500Y-15955357D01*
X17506786Y-15883929D01*
X17521071Y-15841071D01*
X17535357Y-15812500D01*
X17563928Y-15769643D01*
X17578214Y-15755357D01*
X17692500Y-15898214D02*
X17692500Y-16098214D01*
X17692500Y-15926786D02*
X17706786Y-15912500D01*
X17735357Y-15898214D01*
X17778214Y-15898214D01*
X17806786Y-15912500D01*
X17821071Y-15941071D01*
X17821071Y-16098214D01*
X18006786Y-16098214D02*
X17978214Y-16083929D01*
X17963928Y-16069643D01*
X17949643Y-16041071D01*
X17949643Y-15955357D01*
X17963928Y-15926786D01*
X17978214Y-15912500D01*
X18006786Y-15898214D01*
X18049643Y-15898214D01*
X18078214Y-15912500D01*
X18092500Y-15926786D01*
X18106786Y-15955357D01*
X18106786Y-16041071D01*
X18092500Y-16069643D01*
X18078214Y-16083929D01*
X18049643Y-16098214D01*
X18006786Y-16098214D01*
X18192500Y-15898214D02*
X18306786Y-15898214D01*
X18235357Y-15798214D02*
X18235357Y-16055357D01*
X18249643Y-16083929D01*
X18278214Y-16098214D01*
X18306786Y-16098214D01*
X18635357Y-15898214D02*
X18635357Y-16198214D01*
X18635357Y-15912500D02*
X18663928Y-15898214D01*
X18721071Y-15898214D01*
X18749643Y-15912500D01*
X18763928Y-15926786D01*
X18778214Y-15955357D01*
X18778214Y-16041071D01*
X18763928Y-16069643D01*
X18749643Y-16083929D01*
X18721071Y-16098214D01*
X18663928Y-16098214D01*
X18635357Y-16083929D01*
X18949643Y-16098214D02*
X18921071Y-16083929D01*
X18906786Y-16055357D01*
X18906786Y-15798214D01*
X19192500Y-16098214D02*
X19192500Y-15941071D01*
X19178214Y-15912500D01*
X19149643Y-15898214D01*
X19092500Y-15898214D01*
X19063928Y-15912500D01*
X19192500Y-16083929D02*
X19163928Y-16098214D01*
X19092500Y-16098214D01*
X19063928Y-16083929D01*
X19049643Y-16055357D01*
X19049643Y-16026786D01*
X19063928Y-15998214D01*
X19092500Y-15983929D01*
X19163928Y-15983929D01*
X19192500Y-15969643D01*
X19292500Y-15898214D02*
X19406786Y-15898214D01*
X19335357Y-15798214D02*
X19335357Y-16055357D01*
X19349643Y-16083929D01*
X19378214Y-16098214D01*
X19406786Y-16098214D01*
X19621071Y-16083929D02*
X19592500Y-16098214D01*
X19535357Y-16098214D01*
X19506786Y-16083929D01*
X19492500Y-16055357D01*
X19492500Y-15941071D01*
X19506786Y-15912500D01*
X19535357Y-15898214D01*
X19592500Y-15898214D01*
X19621071Y-15912500D01*
X19635357Y-15941071D01*
X19635357Y-15969643D01*
X19492500Y-15998214D01*
X19892500Y-16098214D02*
X19892500Y-15798214D01*
X19892500Y-16083929D02*
X19863928Y-16098214D01*
X19806786Y-16098214D01*
X19778214Y-16083929D01*
X19763928Y-16069643D01*
X19749643Y-16041071D01*
X19749643Y-15955357D01*
X19763928Y-15926786D01*
X19778214Y-15912500D01*
X19806786Y-15898214D01*
X19863928Y-15898214D01*
X19892500Y-15912500D01*
X20006786Y-16212500D02*
X20021071Y-16198214D01*
X20049643Y-16155357D01*
X20063928Y-16126786D01*
X20078214Y-16083929D01*
X20092500Y-16012500D01*
X20092500Y-15955357D01*
X20078214Y-15883929D01*
X20063928Y-15841071D01*
X20049643Y-15812500D01*
X20021071Y-15769643D01*
X20006786Y-15755357D01*
M02*
