M48
; DRILL file {KiCad 5.1.10} date Tue Sep  7 22:45:54 2021
; FORMAT={-:-/ absolute / metric / decimal}
; #@! TF.CreationDate,2021-09-07T22:45:54+08:00
; #@! TF.GenerationSoftware,Kicad,Pcbnew,5.1.10
; #@! TF.FileFunction,Plated,1,2,PTH
FMAT,2
METRIC
T1C0.400
T2C0.600
T3C0.900
T4C1.000
%
G90
G05
T1
X101.8Y-122.0
X104.475Y-147.7
X105.8Y-144.0
X107.8Y-126.0
X108.8Y-126.0
X109.8Y-134.0
X109.8Y-136.0
X109.8Y-138.0
X109.8Y-142.0
X110.8Y-126.0
X113.8Y-141.0
X115.8Y-124.0
X115.8Y-141.0
X115.8Y-145.0
X115.8Y-147.0
X119.8Y-135.0
X120.3Y-124.793
X120.8Y-133.0
X122.8Y-134.0
X123.4Y-123.4
X125.8Y-122.0
X126.8Y-127.0
X127.8Y-123.0
X128.8Y-125.0
X128.8Y-127.0
X128.8Y-129.0
X128.8Y-140.0
X128.8Y-142.0
X128.8Y-144.0
X128.8Y-147.0
X128.8Y-149.0
T2
X112.8Y-135.0
X123.8Y-125.0
T4
X105.72Y-123.0
X108.26Y-123.0
X110.8Y-123.0
X113.34Y-123.0
T3
X103.7Y-129.3G85X102.1Y-129.3
G05
X103.7Y-140.7G85X102.1Y-140.7
G05
T0
M30
