G04 #@! TF.GenerationSoftware,KiCad,Pcbnew,5.1.10*
G04 #@! TF.CreationDate,2021-09-07T22:45:51+08:00*
G04 #@! TF.ProjectId,nypx06,6e797078-3036-42e6-9b69-6361645f7063,rev?*
G04 #@! TF.SameCoordinates,Original*
G04 #@! TF.FileFunction,Copper,L1,Top*
G04 #@! TF.FilePolarity,Positive*
%FSLAX46Y46*%
G04 Gerber Fmt 4.6, Leading zero omitted, Abs format (unit mm)*
G04 Created by KiCad (PCBNEW 5.1.10) date 2021-09-07 22:45:51*
%MOMM*%
%LPD*%
G01*
G04 APERTURE LIST*
G04 #@! TA.AperFunction,EtchedComponent*
%ADD10C,0.100000*%
G04 #@! TD*
G04 #@! TA.AperFunction,ComponentPad*
%ADD11O,3.500000X1.900000*%
G04 #@! TD*
G04 #@! TA.AperFunction,SMDPad,CuDef*
%ADD12R,2.500000X1.100000*%
G04 #@! TD*
G04 #@! TA.AperFunction,SMDPad,CuDef*
%ADD13R,1.780000X2.000000*%
G04 #@! TD*
G04 #@! TA.AperFunction,SMDPad,CuDef*
%ADD14R,0.650000X1.060000*%
G04 #@! TD*
G04 #@! TA.AperFunction,SMDPad,CuDef*
%ADD15C,1.500000*%
G04 #@! TD*
G04 #@! TA.AperFunction,SMDPad,CuDef*
%ADD16C,0.100000*%
G04 #@! TD*
G04 #@! TA.AperFunction,ComponentPad*
%ADD17O,1.700000X1.700000*%
G04 #@! TD*
G04 #@! TA.AperFunction,ComponentPad*
%ADD18R,1.700000X1.700000*%
G04 #@! TD*
G04 #@! TA.AperFunction,ViaPad*
%ADD19C,0.800000*%
G04 #@! TD*
G04 #@! TA.AperFunction,ViaPad*
%ADD20C,1.000000*%
G04 #@! TD*
G04 #@! TA.AperFunction,Conductor*
%ADD21C,0.400000*%
G04 #@! TD*
G04 #@! TA.AperFunction,Conductor*
%ADD22C,1.000000*%
G04 #@! TD*
G04 #@! TA.AperFunction,Conductor*
%ADD23C,0.254000*%
G04 #@! TD*
G04 #@! TA.AperFunction,Conductor*
%ADD24C,0.100000*%
G04 #@! TD*
G04 APERTURE END LIST*
D10*
G36*
X125550000Y-139300000D02*
G01*
X126050000Y-139300000D01*
X126050000Y-138700000D01*
X125550000Y-138700000D01*
X125550000Y-139300000D01*
G37*
G04 #@! TA.AperFunction,SMDPad,CuDef*
G36*
G01*
X122037500Y-123175000D02*
X121562500Y-123175000D01*
G75*
G02*
X121325000Y-122937500I0J237500D01*
G01*
X121325000Y-122337500D01*
G75*
G02*
X121562500Y-122100000I237500J0D01*
G01*
X122037500Y-122100000D01*
G75*
G02*
X122275000Y-122337500I0J-237500D01*
G01*
X122275000Y-122937500D01*
G75*
G02*
X122037500Y-123175000I-237500J0D01*
G01*
G37*
G04 #@! TD.AperFunction*
G04 #@! TA.AperFunction,SMDPad,CuDef*
G36*
G01*
X122037500Y-124900000D02*
X121562500Y-124900000D01*
G75*
G02*
X121325000Y-124662500I0J237500D01*
G01*
X121325000Y-124062500D01*
G75*
G02*
X121562500Y-123825000I237500J0D01*
G01*
X122037500Y-123825000D01*
G75*
G02*
X122275000Y-124062500I0J-237500D01*
G01*
X122275000Y-124662500D01*
G75*
G02*
X122037500Y-124900000I-237500J0D01*
G01*
G37*
G04 #@! TD.AperFunction*
D11*
X102900000Y-129300000D03*
X102900000Y-140700000D03*
D12*
X105650000Y-131500000D03*
X105650000Y-138500000D03*
X105650000Y-134000000D03*
X105650000Y-136000000D03*
D13*
X112990000Y-128235000D03*
X120610000Y-137765000D03*
X115530000Y-128235000D03*
X118070000Y-137765000D03*
X118070000Y-128235000D03*
X115530000Y-137765000D03*
X120610000Y-128235000D03*
X112990000Y-137765000D03*
D14*
X117800000Y-124100000D03*
X118750000Y-124100000D03*
X116850000Y-124100000D03*
X116850000Y-121900000D03*
X117800000Y-121900000D03*
X118750000Y-121900000D03*
D15*
X123800000Y-136000000D03*
X101800000Y-125000000D03*
X109000000Y-128800000D03*
G04 #@! TA.AperFunction,SMDPad,CuDef*
G36*
G01*
X106075000Y-145575000D02*
X105525000Y-145575000D01*
G75*
G02*
X105325000Y-145375000I0J200000D01*
G01*
X105325000Y-144975000D01*
G75*
G02*
X105525000Y-144775000I200000J0D01*
G01*
X106075000Y-144775000D01*
G75*
G02*
X106275000Y-144975000I0J-200000D01*
G01*
X106275000Y-145375000D01*
G75*
G02*
X106075000Y-145575000I-200000J0D01*
G01*
G37*
G04 #@! TD.AperFunction*
G04 #@! TA.AperFunction,SMDPad,CuDef*
G36*
G01*
X106075000Y-147225000D02*
X105525000Y-147225000D01*
G75*
G02*
X105325000Y-147025000I0J200000D01*
G01*
X105325000Y-146625000D01*
G75*
G02*
X105525000Y-146425000I200000J0D01*
G01*
X106075000Y-146425000D01*
G75*
G02*
X106275000Y-146625000I0J-200000D01*
G01*
X106275000Y-147025000D01*
G75*
G02*
X106075000Y-147225000I-200000J0D01*
G01*
G37*
G04 #@! TD.AperFunction*
G04 #@! TA.AperFunction,SMDPad,CuDef*
G36*
G01*
X126225000Y-143275000D02*
X126225000Y-142725000D01*
G75*
G02*
X126425000Y-142525000I200000J0D01*
G01*
X126825000Y-142525000D01*
G75*
G02*
X127025000Y-142725000I0J-200000D01*
G01*
X127025000Y-143275000D01*
G75*
G02*
X126825000Y-143475000I-200000J0D01*
G01*
X126425000Y-143475000D01*
G75*
G02*
X126225000Y-143275000I0J200000D01*
G01*
G37*
G04 #@! TD.AperFunction*
G04 #@! TA.AperFunction,SMDPad,CuDef*
G36*
G01*
X124575000Y-143275000D02*
X124575000Y-142725000D01*
G75*
G02*
X124775000Y-142525000I200000J0D01*
G01*
X125175000Y-142525000D01*
G75*
G02*
X125375000Y-142725000I0J-200000D01*
G01*
X125375000Y-143275000D01*
G75*
G02*
X125175000Y-143475000I-200000J0D01*
G01*
X124775000Y-143475000D01*
G75*
G02*
X124575000Y-143275000I0J200000D01*
G01*
G37*
G04 #@! TD.AperFunction*
G04 #@! TA.AperFunction,SMDPad,CuDef*
G36*
G01*
X103525000Y-146425000D02*
X104075000Y-146425000D01*
G75*
G02*
X104275000Y-146625000I0J-200000D01*
G01*
X104275000Y-147025000D01*
G75*
G02*
X104075000Y-147225000I-200000J0D01*
G01*
X103525000Y-147225000D01*
G75*
G02*
X103325000Y-147025000I0J200000D01*
G01*
X103325000Y-146625000D01*
G75*
G02*
X103525000Y-146425000I200000J0D01*
G01*
G37*
G04 #@! TD.AperFunction*
G04 #@! TA.AperFunction,SMDPad,CuDef*
G36*
G01*
X103525000Y-144775000D02*
X104075000Y-144775000D01*
G75*
G02*
X104275000Y-144975000I0J-200000D01*
G01*
X104275000Y-145375000D01*
G75*
G02*
X104075000Y-145575000I-200000J0D01*
G01*
X103525000Y-145575000D01*
G75*
G02*
X103325000Y-145375000I0J200000D01*
G01*
X103325000Y-144975000D01*
G75*
G02*
X103525000Y-144775000I200000J0D01*
G01*
G37*
G04 #@! TD.AperFunction*
G04 #@! TA.AperFunction,SMDPad,CuDef*
D16*
G36*
X125950000Y-138250000D02*
G01*
X126450000Y-138250000D01*
X126450000Y-138250602D01*
X126474534Y-138250602D01*
X126523365Y-138255412D01*
X126571490Y-138264984D01*
X126618445Y-138279228D01*
X126663778Y-138298005D01*
X126707051Y-138321136D01*
X126747850Y-138348396D01*
X126785779Y-138379524D01*
X126820476Y-138414221D01*
X126851604Y-138452150D01*
X126878864Y-138492949D01*
X126901995Y-138536222D01*
X126920772Y-138581555D01*
X126935016Y-138628510D01*
X126944588Y-138676635D01*
X126949398Y-138725466D01*
X126949398Y-138750000D01*
X126950000Y-138750000D01*
X126950000Y-139250000D01*
X126949398Y-139250000D01*
X126949398Y-139274534D01*
X126944588Y-139323365D01*
X126935016Y-139371490D01*
X126920772Y-139418445D01*
X126901995Y-139463778D01*
X126878864Y-139507051D01*
X126851604Y-139547850D01*
X126820476Y-139585779D01*
X126785779Y-139620476D01*
X126747850Y-139651604D01*
X126707051Y-139678864D01*
X126663778Y-139701995D01*
X126618445Y-139720772D01*
X126571490Y-139735016D01*
X126523365Y-139744588D01*
X126474534Y-139749398D01*
X126450000Y-139749398D01*
X126450000Y-139750000D01*
X125950000Y-139750000D01*
X125950000Y-138250000D01*
G37*
G04 #@! TD.AperFunction*
G04 #@! TA.AperFunction,SMDPad,CuDef*
G36*
X125150000Y-139749398D02*
G01*
X125125466Y-139749398D01*
X125076635Y-139744588D01*
X125028510Y-139735016D01*
X124981555Y-139720772D01*
X124936222Y-139701995D01*
X124892949Y-139678864D01*
X124852150Y-139651604D01*
X124814221Y-139620476D01*
X124779524Y-139585779D01*
X124748396Y-139547850D01*
X124721136Y-139507051D01*
X124698005Y-139463778D01*
X124679228Y-139418445D01*
X124664984Y-139371490D01*
X124655412Y-139323365D01*
X124650602Y-139274534D01*
X124650602Y-139250000D01*
X124650000Y-139250000D01*
X124650000Y-138750000D01*
X124650602Y-138750000D01*
X124650602Y-138725466D01*
X124655412Y-138676635D01*
X124664984Y-138628510D01*
X124679228Y-138581555D01*
X124698005Y-138536222D01*
X124721136Y-138492949D01*
X124748396Y-138452150D01*
X124779524Y-138414221D01*
X124814221Y-138379524D01*
X124852150Y-138348396D01*
X124892949Y-138321136D01*
X124936222Y-138298005D01*
X124981555Y-138279228D01*
X125028510Y-138264984D01*
X125076635Y-138255412D01*
X125125466Y-138250602D01*
X125150000Y-138250602D01*
X125150000Y-138250000D01*
X125650000Y-138250000D01*
X125650000Y-139750000D01*
X125150000Y-139750000D01*
X125150000Y-139749398D01*
G37*
G04 #@! TD.AperFunction*
G04 #@! TA.AperFunction,SMDPad,CuDef*
G36*
G01*
X129550000Y-136500000D02*
X128050000Y-136500000D01*
G75*
G02*
X127800000Y-136250000I0J250000D01*
G01*
X127800000Y-135750000D01*
G75*
G02*
X128050000Y-135500000I250000J0D01*
G01*
X129550000Y-135500000D01*
G75*
G02*
X129800000Y-135750000I0J-250000D01*
G01*
X129800000Y-136250000D01*
G75*
G02*
X129550000Y-136500000I-250000J0D01*
G01*
G37*
G04 #@! TD.AperFunction*
G04 #@! TA.AperFunction,SMDPad,CuDef*
G36*
G01*
X129550000Y-134500000D02*
X128050000Y-134500000D01*
G75*
G02*
X127800000Y-134250000I0J250000D01*
G01*
X127800000Y-133750000D01*
G75*
G02*
X128050000Y-133500000I250000J0D01*
G01*
X129550000Y-133500000D01*
G75*
G02*
X129800000Y-133750000I0J-250000D01*
G01*
X129800000Y-134250000D01*
G75*
G02*
X129550000Y-134500000I-250000J0D01*
G01*
G37*
G04 #@! TD.AperFunction*
D17*
X113340000Y-123000000D03*
X110800000Y-123000000D03*
X108260000Y-123000000D03*
D18*
X105720000Y-123000000D03*
G04 #@! TA.AperFunction,SMDPad,CuDef*
G36*
G01*
X126150000Y-141237500D02*
X126150000Y-140762500D01*
G75*
G02*
X126387500Y-140525000I237500J0D01*
G01*
X126962500Y-140525000D01*
G75*
G02*
X127200000Y-140762500I0J-237500D01*
G01*
X127200000Y-141237500D01*
G75*
G02*
X126962500Y-141475000I-237500J0D01*
G01*
X126387500Y-141475000D01*
G75*
G02*
X126150000Y-141237500I0J237500D01*
G01*
G37*
G04 #@! TD.AperFunction*
G04 #@! TA.AperFunction,SMDPad,CuDef*
G36*
G01*
X124400000Y-141237500D02*
X124400000Y-140762500D01*
G75*
G02*
X124637500Y-140525000I237500J0D01*
G01*
X125212500Y-140525000D01*
G75*
G02*
X125450000Y-140762500I0J-237500D01*
G01*
X125450000Y-141237500D01*
G75*
G02*
X125212500Y-141475000I-237500J0D01*
G01*
X124637500Y-141475000D01*
G75*
G02*
X124400000Y-141237500I0J237500D01*
G01*
G37*
G04 #@! TD.AperFunction*
G04 #@! TA.AperFunction,SMDPad,CuDef*
G36*
G01*
X108037500Y-145650000D02*
X107562500Y-145650000D01*
G75*
G02*
X107325000Y-145412500I0J237500D01*
G01*
X107325000Y-144837500D01*
G75*
G02*
X107562500Y-144600000I237500J0D01*
G01*
X108037500Y-144600000D01*
G75*
G02*
X108275000Y-144837500I0J-237500D01*
G01*
X108275000Y-145412500D01*
G75*
G02*
X108037500Y-145650000I-237500J0D01*
G01*
G37*
G04 #@! TD.AperFunction*
G04 #@! TA.AperFunction,SMDPad,CuDef*
G36*
G01*
X108037500Y-147400000D02*
X107562500Y-147400000D01*
G75*
G02*
X107325000Y-147162500I0J237500D01*
G01*
X107325000Y-146587500D01*
G75*
G02*
X107562500Y-146350000I237500J0D01*
G01*
X108037500Y-146350000D01*
G75*
G02*
X108275000Y-146587500I0J-237500D01*
G01*
X108275000Y-147162500D01*
G75*
G02*
X108037500Y-147400000I-237500J0D01*
G01*
G37*
G04 #@! TD.AperFunction*
G04 #@! TA.AperFunction,SMDPad,CuDef*
G36*
G01*
X102037500Y-147400000D02*
X101562500Y-147400000D01*
G75*
G02*
X101325000Y-147162500I0J237500D01*
G01*
X101325000Y-146587500D01*
G75*
G02*
X101562500Y-146350000I237500J0D01*
G01*
X102037500Y-146350000D01*
G75*
G02*
X102275000Y-146587500I0J-237500D01*
G01*
X102275000Y-147162500D01*
G75*
G02*
X102037500Y-147400000I-237500J0D01*
G01*
G37*
G04 #@! TD.AperFunction*
G04 #@! TA.AperFunction,SMDPad,CuDef*
G36*
G01*
X102037500Y-145650000D02*
X101562500Y-145650000D01*
G75*
G02*
X101325000Y-145412500I0J237500D01*
G01*
X101325000Y-144837500D01*
G75*
G02*
X101562500Y-144600000I237500J0D01*
G01*
X102037500Y-144600000D01*
G75*
G02*
X102275000Y-144837500I0J-237500D01*
G01*
X102275000Y-145412500D01*
G75*
G02*
X102037500Y-145650000I-237500J0D01*
G01*
G37*
G04 #@! TD.AperFunction*
G04 #@! TA.AperFunction,SMDPad,CuDef*
G36*
G01*
X111250000Y-145700000D02*
X112350000Y-145700000D01*
G75*
G02*
X112600000Y-145950000I0J-250000D01*
G01*
X112600000Y-148450000D01*
G75*
G02*
X112350000Y-148700000I-250000J0D01*
G01*
X111250000Y-148700000D01*
G75*
G02*
X111000000Y-148450000I0J250000D01*
G01*
X111000000Y-145950000D01*
G75*
G02*
X111250000Y-145700000I250000J0D01*
G01*
G37*
G04 #@! TD.AperFunction*
G04 #@! TA.AperFunction,SMDPad,CuDef*
G36*
G01*
X111250000Y-141300000D02*
X112350000Y-141300000D01*
G75*
G02*
X112600000Y-141550000I0J-250000D01*
G01*
X112600000Y-144050000D01*
G75*
G02*
X112350000Y-144300000I-250000J0D01*
G01*
X111250000Y-144300000D01*
G75*
G02*
X111000000Y-144050000I0J250000D01*
G01*
X111000000Y-141550000D01*
G75*
G02*
X111250000Y-141300000I250000J0D01*
G01*
G37*
G04 #@! TD.AperFunction*
G04 #@! TA.AperFunction,SMDPad,CuDef*
G36*
G01*
X118250000Y-145700000D02*
X119350000Y-145700000D01*
G75*
G02*
X119600000Y-145950000I0J-250000D01*
G01*
X119600000Y-148450000D01*
G75*
G02*
X119350000Y-148700000I-250000J0D01*
G01*
X118250000Y-148700000D01*
G75*
G02*
X118000000Y-148450000I0J250000D01*
G01*
X118000000Y-145950000D01*
G75*
G02*
X118250000Y-145700000I250000J0D01*
G01*
G37*
G04 #@! TD.AperFunction*
G04 #@! TA.AperFunction,SMDPad,CuDef*
G36*
G01*
X118250000Y-141300000D02*
X119350000Y-141300000D01*
G75*
G02*
X119600000Y-141550000I0J-250000D01*
G01*
X119600000Y-144050000D01*
G75*
G02*
X119350000Y-144300000I-250000J0D01*
G01*
X118250000Y-144300000D01*
G75*
G02*
X118000000Y-144050000I0J250000D01*
G01*
X118000000Y-141550000D01*
G75*
G02*
X118250000Y-141300000I250000J0D01*
G01*
G37*
G04 #@! TD.AperFunction*
G04 #@! TA.AperFunction,SMDPad,CuDef*
G36*
G01*
X126325000Y-146450000D02*
X127275000Y-146450000D01*
G75*
G02*
X127525000Y-146700000I0J-250000D01*
G01*
X127525000Y-147375000D01*
G75*
G02*
X127275000Y-147625000I-250000J0D01*
G01*
X126325000Y-147625000D01*
G75*
G02*
X126075000Y-147375000I0J250000D01*
G01*
X126075000Y-146700000D01*
G75*
G02*
X126325000Y-146450000I250000J0D01*
G01*
G37*
G04 #@! TD.AperFunction*
G04 #@! TA.AperFunction,SMDPad,CuDef*
G36*
G01*
X126325000Y-144375000D02*
X127275000Y-144375000D01*
G75*
G02*
X127525000Y-144625000I0J-250000D01*
G01*
X127525000Y-145300000D01*
G75*
G02*
X127275000Y-145550000I-250000J0D01*
G01*
X126325000Y-145550000D01*
G75*
G02*
X126075000Y-145300000I0J250000D01*
G01*
X126075000Y-144625000D01*
G75*
G02*
X126325000Y-144375000I250000J0D01*
G01*
G37*
G04 #@! TD.AperFunction*
G04 #@! TA.AperFunction,SMDPad,CuDef*
G36*
G01*
X124325000Y-146450000D02*
X125275000Y-146450000D01*
G75*
G02*
X125525000Y-146700000I0J-250000D01*
G01*
X125525000Y-147375000D01*
G75*
G02*
X125275000Y-147625000I-250000J0D01*
G01*
X124325000Y-147625000D01*
G75*
G02*
X124075000Y-147375000I0J250000D01*
G01*
X124075000Y-146700000D01*
G75*
G02*
X124325000Y-146450000I250000J0D01*
G01*
G37*
G04 #@! TD.AperFunction*
G04 #@! TA.AperFunction,SMDPad,CuDef*
G36*
G01*
X124325000Y-144375000D02*
X125275000Y-144375000D01*
G75*
G02*
X125525000Y-144625000I0J-250000D01*
G01*
X125525000Y-145300000D01*
G75*
G02*
X125275000Y-145550000I-250000J0D01*
G01*
X124325000Y-145550000D01*
G75*
G02*
X124075000Y-145300000I0J250000D01*
G01*
X124075000Y-144625000D01*
G75*
G02*
X124325000Y-144375000I250000J0D01*
G01*
G37*
G04 #@! TD.AperFunction*
D19*
X128800000Y-125000000D03*
X127800000Y-123000000D03*
X125800000Y-122000000D03*
X115800000Y-141000000D03*
X113800000Y-141000000D03*
X109800000Y-134000000D03*
X109800000Y-136000000D03*
X109800000Y-138000000D03*
X119800000Y-135000000D03*
X120800000Y-133000000D03*
X107800000Y-126000000D03*
X108800000Y-126000000D03*
X101800000Y-122000000D03*
X115800000Y-147000000D03*
X115800000Y-145000000D03*
X105800000Y-144000000D03*
X128800000Y-140000000D03*
X128800000Y-142000000D03*
X128800000Y-144000000D03*
X128800000Y-147000000D03*
X128800000Y-149000000D03*
X128800000Y-127000000D03*
X128800000Y-129000000D03*
X123400000Y-123400000D03*
D20*
X112800000Y-135000000D03*
X123800000Y-125000000D03*
D19*
X104474990Y-147700000D03*
X110800000Y-126000000D03*
X115800000Y-124000000D03*
X109800000Y-142000000D03*
X126800000Y-127000000D03*
X122800000Y-134000000D03*
X120300000Y-124792893D03*
D21*
X105800000Y-145000000D02*
X105800000Y-145175000D01*
X105800000Y-145175000D02*
X105800000Y-144000000D01*
X124499980Y-120699980D02*
X125800000Y-122000000D01*
X118015018Y-120699980D02*
X124499980Y-120699980D01*
X117800000Y-120914998D02*
X118015018Y-120699980D01*
X117800000Y-121900000D02*
X117800000Y-120914998D01*
X121800000Y-122637500D02*
X122107692Y-122637500D01*
X122637500Y-122637500D02*
X123400000Y-123400000D01*
X121800000Y-122637500D02*
X122637500Y-122637500D01*
D22*
X126800000Y-144962500D02*
X124800000Y-144962500D01*
X118800000Y-142800000D02*
X120600000Y-142800000D01*
X122762500Y-144962500D02*
X124800000Y-144962500D01*
X120600000Y-142800000D02*
X122762500Y-144962500D01*
X118800000Y-142800000D02*
X111800000Y-142800000D01*
X111800000Y-138955000D02*
X112990000Y-137765000D01*
X111800000Y-142800000D02*
X111800000Y-138955000D01*
X111800000Y-142800000D02*
X109800000Y-144800000D01*
X109800000Y-144800000D02*
X109800000Y-148000000D01*
X109800000Y-148000000D02*
X108800000Y-149000000D01*
X108800000Y-149000000D02*
X102800000Y-149000000D01*
X101800000Y-148000000D02*
X101800000Y-146875000D01*
X102800000Y-149000000D02*
X101800000Y-148000000D01*
D21*
X117750000Y-124000000D02*
X117850000Y-124100000D01*
D22*
X103800000Y-123000000D02*
X101800000Y-125000000D01*
X105720000Y-123000000D02*
X103800000Y-123000000D01*
X112990000Y-135190000D02*
X112800000Y-135000000D01*
X112990000Y-137765000D02*
X112990000Y-135190000D01*
D21*
X117800000Y-125085002D02*
X117800000Y-124100000D01*
X118549987Y-125834989D02*
X117800000Y-125085002D01*
X120965011Y-125834989D02*
X118549987Y-125834989D01*
X121800000Y-125000000D02*
X120965011Y-125834989D01*
X121800000Y-124362500D02*
X121800000Y-125000000D01*
X122437500Y-125000000D02*
X123800000Y-125000000D01*
X121800000Y-124362500D02*
X122437500Y-125000000D01*
X103800000Y-146825000D02*
X103800000Y-147225000D01*
X103800000Y-147225000D02*
X104474990Y-147899990D01*
X104474990Y-147899990D02*
X104474990Y-147700000D01*
X115900000Y-124100000D02*
X115800000Y-124000000D01*
X116850000Y-124100000D02*
X115900000Y-124100000D01*
X108800000Y-141000000D02*
X109800000Y-142000000D01*
X110800000Y-127000000D02*
X110800000Y-126000000D01*
X107800000Y-130000000D02*
X110800000Y-127000000D01*
X107800000Y-140000000D02*
X107800000Y-130000000D01*
X109800000Y-142000000D02*
X107800000Y-140000000D01*
D22*
X103750000Y-145125000D02*
X103800000Y-145175000D01*
X101800000Y-145125000D02*
X103750000Y-145125000D01*
X103800000Y-144000000D02*
X103800000Y-145175000D01*
X104800000Y-143000000D02*
X103800000Y-144000000D01*
X104800000Y-142700000D02*
X105650000Y-141850000D01*
X104800000Y-143000000D02*
X104800000Y-142700000D01*
X105650000Y-138500000D02*
X105650000Y-141850000D01*
X106650000Y-141850000D02*
X105650000Y-141850000D01*
X107800000Y-143000000D02*
X106650000Y-141850000D01*
X107800000Y-145125000D02*
X107800000Y-143000000D01*
D21*
X105850000Y-146875000D02*
X105800000Y-146825000D01*
X107800000Y-146875000D02*
X105850000Y-146875000D01*
X126625000Y-139175000D02*
X126450000Y-139000000D01*
X126625000Y-141050000D02*
X126675000Y-141000000D01*
X126625000Y-143000000D02*
X126625000Y-141050000D01*
X126675000Y-139225000D02*
X126450000Y-139000000D01*
X126675000Y-141000000D02*
X126675000Y-139225000D01*
X122800000Y-135000000D02*
X123800000Y-136000000D01*
X122800000Y-134000000D02*
X122800000Y-135000000D01*
X125150000Y-140775000D02*
X124925000Y-141000000D01*
X125150000Y-139000000D02*
X125150000Y-140775000D01*
X125150000Y-137350000D02*
X123800000Y-136000000D01*
X125150000Y-139000000D02*
X125150000Y-137350000D01*
X126800000Y-125200000D02*
X126800000Y-127000000D01*
X121215590Y-121499990D02*
X123099990Y-121499990D01*
X120815580Y-121900000D02*
X121215590Y-121499990D01*
X123099990Y-121499990D02*
X126800000Y-125200000D01*
X118750000Y-121900000D02*
X120815580Y-121900000D01*
X113340000Y-123000000D02*
X114800000Y-123000000D01*
X114800000Y-123000000D02*
X115900000Y-121900000D01*
X116850000Y-121900000D02*
X115900000Y-121900000D01*
X119607107Y-124100000D02*
X119200000Y-124100000D01*
X120300000Y-124792893D02*
X119607107Y-124100000D01*
X118750000Y-124100000D02*
X119200000Y-124100000D01*
X118070000Y-128235000D02*
X115530000Y-128235000D01*
X128800000Y-132000000D02*
X128800000Y-133500000D01*
X118070000Y-128235000D02*
X118070000Y-127804998D01*
X119239999Y-126634999D02*
X123434999Y-126634999D01*
X118070000Y-127804998D02*
X119239999Y-126634999D01*
X123434999Y-126634999D02*
X128800000Y-132000000D01*
X128800000Y-133500000D02*
X128800000Y-134000000D01*
X128800000Y-136000000D02*
X127800000Y-136000000D01*
X120610000Y-128810000D02*
X120610000Y-128235000D01*
X127800000Y-136000000D02*
X120610000Y-128810000D01*
X120610000Y-128235000D02*
X120610000Y-129190000D01*
X120610000Y-129190000D02*
X118800000Y-131000000D01*
X112990000Y-129635000D02*
X112990000Y-128235000D01*
X114355000Y-131000000D02*
X112990000Y-129635000D01*
X118800000Y-131000000D02*
X114355000Y-131000000D01*
X120610000Y-138635000D02*
X120610000Y-137765000D01*
X124975000Y-143000000D02*
X120610000Y-138635000D01*
X115530000Y-137765000D02*
X118070000Y-137765000D01*
D23*
X128865424Y-120669580D02*
X128928356Y-120688580D01*
X128986405Y-120719445D01*
X129037343Y-120760989D01*
X129079248Y-120811644D01*
X129110515Y-120869471D01*
X129129956Y-120932272D01*
X129140000Y-121027835D01*
X129140000Y-131159132D01*
X124082008Y-126101141D01*
X124131067Y-126091383D01*
X124337624Y-126005824D01*
X124523520Y-125881612D01*
X124681612Y-125723520D01*
X124805824Y-125537624D01*
X124891383Y-125331067D01*
X124935000Y-125111788D01*
X124935000Y-124888212D01*
X124891383Y-124668933D01*
X124805824Y-124462376D01*
X124681612Y-124276480D01*
X124523520Y-124118388D01*
X124337624Y-123994176D01*
X124131067Y-123908617D01*
X123911788Y-123865000D01*
X123688212Y-123865000D01*
X123468933Y-123908617D01*
X123262376Y-123994176D01*
X123076480Y-124118388D01*
X123029868Y-124165000D01*
X122913072Y-124165000D01*
X122913072Y-124062500D01*
X122896248Y-123891684D01*
X122846423Y-123727433D01*
X122766226Y-123577394D01*
X122805537Y-123529494D01*
X122864502Y-123419180D01*
X122900812Y-123299482D01*
X122913072Y-123175000D01*
X122910000Y-122923250D01*
X122751250Y-122764500D01*
X121927000Y-122764500D01*
X121927000Y-122784500D01*
X121673000Y-122784500D01*
X121673000Y-122764500D01*
X121653000Y-122764500D01*
X121653000Y-122510500D01*
X121673000Y-122510500D01*
X121673000Y-122490500D01*
X121927000Y-122490500D01*
X121927000Y-122510500D01*
X122751250Y-122510500D01*
X122840441Y-122421309D01*
X125965000Y-125545868D01*
X125965001Y-126386714D01*
X125882795Y-126509744D01*
X125804774Y-126698102D01*
X125765000Y-126898061D01*
X125765000Y-127101939D01*
X125804774Y-127301898D01*
X125882795Y-127490256D01*
X125996063Y-127659774D01*
X126140226Y-127803937D01*
X126309744Y-127917205D01*
X126498102Y-127995226D01*
X126698061Y-128035000D01*
X126901939Y-128035000D01*
X127101898Y-127995226D01*
X127290256Y-127917205D01*
X127459774Y-127803937D01*
X127603937Y-127659774D01*
X127717205Y-127490256D01*
X127795226Y-127301898D01*
X127835000Y-127101939D01*
X127835000Y-126898061D01*
X127795226Y-126698102D01*
X127717205Y-126509744D01*
X127635000Y-126386715D01*
X127635000Y-125241007D01*
X127639039Y-125199999D01*
X127635000Y-125158991D01*
X127635000Y-125158981D01*
X127622918Y-125036311D01*
X127575172Y-124878913D01*
X127497636Y-124733854D01*
X127393291Y-124606709D01*
X127361428Y-124580560D01*
X123719436Y-120938569D01*
X123693281Y-120906699D01*
X123566136Y-120802354D01*
X123421077Y-120724818D01*
X123263679Y-120677072D01*
X123141009Y-120664990D01*
X123141008Y-120664990D01*
X123099990Y-120660950D01*
X123058972Y-120664990D01*
X121256608Y-120664990D01*
X121215590Y-120660950D01*
X121174572Y-120664990D01*
X121174571Y-120664990D01*
X121051901Y-120677072D01*
X120894503Y-120724818D01*
X120749444Y-120802354D01*
X120622299Y-120906699D01*
X120596148Y-120938564D01*
X120469712Y-121065000D01*
X119631993Y-121065000D01*
X119605537Y-121015506D01*
X119526185Y-120918815D01*
X119429494Y-120839463D01*
X119319180Y-120780498D01*
X119199482Y-120744188D01*
X119075000Y-120731928D01*
X118425000Y-120731928D01*
X118300518Y-120744188D01*
X118275000Y-120751929D01*
X118249482Y-120744188D01*
X118125000Y-120731928D01*
X118085750Y-120735000D01*
X117927000Y-120893750D01*
X117927000Y-120975859D01*
X117894463Y-121015506D01*
X117835498Y-121125820D01*
X117800000Y-121242841D01*
X117764502Y-121125820D01*
X117705537Y-121015506D01*
X117673000Y-120975859D01*
X117673000Y-120893750D01*
X117514250Y-120735000D01*
X117475000Y-120731928D01*
X117350518Y-120744188D01*
X117325000Y-120751929D01*
X117299482Y-120744188D01*
X117175000Y-120731928D01*
X116525000Y-120731928D01*
X116400518Y-120744188D01*
X116280820Y-120780498D01*
X116170506Y-120839463D01*
X116073815Y-120918815D01*
X115994463Y-121015506D01*
X115968007Y-121065000D01*
X115941018Y-121065000D01*
X115900000Y-121060960D01*
X115858981Y-121065000D01*
X115771969Y-121073570D01*
X115736311Y-121077082D01*
X115578913Y-121124828D01*
X115433854Y-121202364D01*
X115343869Y-121276213D01*
X115306709Y-121306709D01*
X115280563Y-121338568D01*
X114522430Y-122096702D01*
X114493475Y-122053368D01*
X114286632Y-121846525D01*
X114043411Y-121684010D01*
X113773158Y-121572068D01*
X113486260Y-121515000D01*
X113193740Y-121515000D01*
X112906842Y-121572068D01*
X112636589Y-121684010D01*
X112393368Y-121846525D01*
X112186525Y-122053368D01*
X112070000Y-122227760D01*
X111953475Y-122053368D01*
X111746632Y-121846525D01*
X111503411Y-121684010D01*
X111233158Y-121572068D01*
X110946260Y-121515000D01*
X110653740Y-121515000D01*
X110366842Y-121572068D01*
X110096589Y-121684010D01*
X109853368Y-121846525D01*
X109646525Y-122053368D01*
X109524805Y-122235534D01*
X109455178Y-122118645D01*
X109260269Y-121902412D01*
X109026920Y-121728359D01*
X108764099Y-121603175D01*
X108616890Y-121558524D01*
X108387000Y-121679845D01*
X108387000Y-122873000D01*
X108407000Y-122873000D01*
X108407000Y-123127000D01*
X108387000Y-123127000D01*
X108387000Y-124320155D01*
X108616890Y-124441476D01*
X108764099Y-124396825D01*
X109026920Y-124271641D01*
X109260269Y-124097588D01*
X109455178Y-123881355D01*
X109524805Y-123764466D01*
X109646525Y-123946632D01*
X109853368Y-124153475D01*
X110096589Y-124315990D01*
X110366842Y-124427932D01*
X110653740Y-124485000D01*
X110946260Y-124485000D01*
X111233158Y-124427932D01*
X111503411Y-124315990D01*
X111746632Y-124153475D01*
X111953475Y-123946632D01*
X112070000Y-123772240D01*
X112186525Y-123946632D01*
X112393368Y-124153475D01*
X112636589Y-124315990D01*
X112906842Y-124427932D01*
X113193740Y-124485000D01*
X113486260Y-124485000D01*
X113773158Y-124427932D01*
X114043411Y-124315990D01*
X114286632Y-124153475D01*
X114493475Y-123946632D01*
X114568065Y-123835000D01*
X114758982Y-123835000D01*
X114777187Y-123836793D01*
X114765000Y-123898061D01*
X114765000Y-124101939D01*
X114804774Y-124301898D01*
X114882795Y-124490256D01*
X114996063Y-124659774D01*
X115140226Y-124803937D01*
X115309744Y-124917205D01*
X115498102Y-124995226D01*
X115698061Y-125035000D01*
X115901939Y-125035000D01*
X116017111Y-125012091D01*
X116073815Y-125081185D01*
X116170506Y-125160537D01*
X116280820Y-125219502D01*
X116400518Y-125255812D01*
X116525000Y-125268072D01*
X116982961Y-125268072D01*
X117024828Y-125406088D01*
X117102364Y-125551147D01*
X117206709Y-125678293D01*
X117238578Y-125704447D01*
X117930550Y-126396420D01*
X117956696Y-126428280D01*
X117988555Y-126454426D01*
X117988557Y-126454428D01*
X118032214Y-126490256D01*
X118083841Y-126532625D01*
X118134453Y-126559678D01*
X118097202Y-126596928D01*
X117180000Y-126596928D01*
X117055518Y-126609188D01*
X116935820Y-126645498D01*
X116825506Y-126704463D01*
X116800000Y-126725395D01*
X116774494Y-126704463D01*
X116664180Y-126645498D01*
X116544482Y-126609188D01*
X116420000Y-126596928D01*
X114640000Y-126596928D01*
X114515518Y-126609188D01*
X114395820Y-126645498D01*
X114285506Y-126704463D01*
X114260000Y-126725395D01*
X114234494Y-126704463D01*
X114124180Y-126645498D01*
X114004482Y-126609188D01*
X113880000Y-126596928D01*
X112100000Y-126596928D01*
X111975518Y-126609188D01*
X111855820Y-126645498D01*
X111745506Y-126704463D01*
X111648815Y-126783815D01*
X111635000Y-126800649D01*
X111635000Y-126613285D01*
X111717205Y-126490256D01*
X111795226Y-126301898D01*
X111835000Y-126101939D01*
X111835000Y-125898061D01*
X111795226Y-125698102D01*
X111717205Y-125509744D01*
X111603937Y-125340226D01*
X111459774Y-125196063D01*
X111290256Y-125082795D01*
X111101898Y-125004774D01*
X110901939Y-124965000D01*
X110698061Y-124965000D01*
X110498102Y-125004774D01*
X110309744Y-125082795D01*
X110140226Y-125196063D01*
X109996063Y-125340226D01*
X109882795Y-125509744D01*
X109804774Y-125698102D01*
X109765000Y-125898061D01*
X109765000Y-126101939D01*
X109804774Y-126301898D01*
X109882795Y-126490256D01*
X109965000Y-126613285D01*
X109965000Y-126654131D01*
X109192896Y-127426236D01*
X109136411Y-127415000D01*
X108863589Y-127415000D01*
X108596011Y-127468225D01*
X108343957Y-127572629D01*
X108117114Y-127724201D01*
X107924201Y-127917114D01*
X107772629Y-128143957D01*
X107668225Y-128396011D01*
X107615000Y-128663589D01*
X107615000Y-128936411D01*
X107626236Y-128992897D01*
X107238574Y-129380559D01*
X107206710Y-129406709D01*
X107180562Y-129438571D01*
X107102364Y-129533855D01*
X107024828Y-129678914D01*
X106977082Y-129836312D01*
X106960960Y-130000000D01*
X106965001Y-130041029D01*
X106965001Y-130318330D01*
X106900000Y-130311928D01*
X105935750Y-130315000D01*
X105777000Y-130473750D01*
X105777000Y-131373000D01*
X105797000Y-131373000D01*
X105797000Y-131627000D01*
X105777000Y-131627000D01*
X105777000Y-132526250D01*
X105935750Y-132685000D01*
X106900000Y-132688072D01*
X106965001Y-132681670D01*
X106965001Y-132818330D01*
X106900000Y-132811928D01*
X104400000Y-132811928D01*
X104275518Y-132824188D01*
X104155820Y-132860498D01*
X104066829Y-132908066D01*
X104085000Y-132816712D01*
X104085000Y-132601647D01*
X104155820Y-132639502D01*
X104275518Y-132675812D01*
X104400000Y-132688072D01*
X105364250Y-132685000D01*
X105523000Y-132526250D01*
X105523000Y-131627000D01*
X103923750Y-131627000D01*
X103765000Y-131785750D01*
X103763812Y-131887968D01*
X103655394Y-131779550D01*
X103461308Y-131649866D01*
X103245652Y-131560539D01*
X103016712Y-131515000D01*
X102783288Y-131515000D01*
X102554348Y-131560539D01*
X102338692Y-131649866D01*
X102144606Y-131779550D01*
X101979550Y-131944606D01*
X101849866Y-132138692D01*
X101760539Y-132354348D01*
X101715000Y-132583288D01*
X101715000Y-132816712D01*
X101760539Y-133045652D01*
X101849866Y-133261308D01*
X101979550Y-133455394D01*
X102144606Y-133620450D01*
X102338692Y-133750134D01*
X102554348Y-133839461D01*
X102783288Y-133885000D01*
X103016712Y-133885000D01*
X103245652Y-133839461D01*
X103461308Y-133750134D01*
X103655394Y-133620450D01*
X103761928Y-133513916D01*
X103761928Y-134550000D01*
X103774188Y-134674482D01*
X103810498Y-134794180D01*
X103869463Y-134904494D01*
X103947842Y-135000000D01*
X103869463Y-135095506D01*
X103810498Y-135205820D01*
X103774188Y-135325518D01*
X103761928Y-135450000D01*
X103761928Y-136486084D01*
X103655394Y-136379550D01*
X103461308Y-136249866D01*
X103245652Y-136160539D01*
X103016712Y-136115000D01*
X102783288Y-136115000D01*
X102554348Y-136160539D01*
X102338692Y-136249866D01*
X102144606Y-136379550D01*
X101979550Y-136544606D01*
X101849866Y-136738692D01*
X101760539Y-136954348D01*
X101715000Y-137183288D01*
X101715000Y-137416712D01*
X101760539Y-137645652D01*
X101849866Y-137861308D01*
X101979550Y-138055394D01*
X102144606Y-138220450D01*
X102338692Y-138350134D01*
X102554348Y-138439461D01*
X102783288Y-138485000D01*
X103016712Y-138485000D01*
X103245652Y-138439461D01*
X103461308Y-138350134D01*
X103655394Y-138220450D01*
X103761928Y-138113916D01*
X103761928Y-139050000D01*
X103768330Y-139115000D01*
X102022136Y-139115000D01*
X101789286Y-139137934D01*
X101490512Y-139228566D01*
X101215161Y-139375744D01*
X100973813Y-139573813D01*
X100775744Y-139815161D01*
X100628566Y-140090512D01*
X100537934Y-140389286D01*
X100507331Y-140700000D01*
X100537934Y-141010714D01*
X100628566Y-141309488D01*
X100775744Y-141584839D01*
X100973813Y-141826187D01*
X101215161Y-142024256D01*
X101490512Y-142171434D01*
X101789286Y-142262066D01*
X102022136Y-142285000D01*
X103739818Y-142285000D01*
X103681423Y-142477501D01*
X103677496Y-142517372D01*
X103036864Y-143158005D01*
X102993551Y-143193551D01*
X102851716Y-143366377D01*
X102757851Y-143541988D01*
X102746324Y-143563554D01*
X102681423Y-143777502D01*
X102660494Y-143990000D01*
X102245396Y-143990000D01*
X102208316Y-143978752D01*
X102037500Y-143961928D01*
X101562500Y-143961928D01*
X101391684Y-143978752D01*
X101227433Y-144028577D01*
X101076058Y-144109488D01*
X100943377Y-144218377D01*
X100834488Y-144351058D01*
X100753577Y-144502433D01*
X100703752Y-144666684D01*
X100686928Y-144837500D01*
X100686928Y-144884354D01*
X100681423Y-144902501D01*
X100659509Y-145125000D01*
X100681423Y-145347499D01*
X100686928Y-145365646D01*
X100686928Y-145412500D01*
X100703752Y-145583316D01*
X100753577Y-145747567D01*
X100834488Y-145898942D01*
X100917425Y-146000000D01*
X100834488Y-146101058D01*
X100753577Y-146252433D01*
X100703752Y-146416684D01*
X100686928Y-146587500D01*
X100686928Y-146634354D01*
X100681423Y-146652501D01*
X100665000Y-146819248D01*
X100665000Y-147944249D01*
X100659509Y-148000000D01*
X100665000Y-148055751D01*
X100681423Y-148222498D01*
X100746324Y-148436446D01*
X100851716Y-148633623D01*
X100993551Y-148806449D01*
X101036864Y-148841995D01*
X101534868Y-149340000D01*
X100832279Y-149340000D01*
X100734576Y-149330420D01*
X100671643Y-149311420D01*
X100613594Y-149280554D01*
X100562657Y-149239011D01*
X100520752Y-149188356D01*
X100489485Y-149130529D01*
X100470044Y-149067728D01*
X100460000Y-148972165D01*
X100460000Y-129300000D01*
X100507331Y-129300000D01*
X100537934Y-129610714D01*
X100628566Y-129909488D01*
X100775744Y-130184839D01*
X100973813Y-130426187D01*
X101215161Y-130624256D01*
X101490512Y-130771434D01*
X101789286Y-130862066D01*
X102022136Y-130885000D01*
X103768330Y-130885000D01*
X103761928Y-130950000D01*
X103765000Y-131214250D01*
X103923750Y-131373000D01*
X105523000Y-131373000D01*
X105523000Y-130473750D01*
X105364250Y-130315000D01*
X104918601Y-130313580D01*
X105024256Y-130184839D01*
X105171434Y-129909488D01*
X105262066Y-129610714D01*
X105292669Y-129300000D01*
X105262066Y-128989286D01*
X105171434Y-128690512D01*
X105024256Y-128415161D01*
X104826187Y-128173813D01*
X104584839Y-127975744D01*
X104309488Y-127828566D01*
X104010714Y-127737934D01*
X103777864Y-127715000D01*
X102022136Y-127715000D01*
X101789286Y-127737934D01*
X101490512Y-127828566D01*
X101215161Y-127975744D01*
X100973813Y-128173813D01*
X100775744Y-128415161D01*
X100628566Y-128690512D01*
X100537934Y-128989286D01*
X100507331Y-129300000D01*
X100460000Y-129300000D01*
X100460000Y-125362639D01*
X100468225Y-125403989D01*
X100572629Y-125656043D01*
X100724201Y-125882886D01*
X100917114Y-126075799D01*
X101143957Y-126227371D01*
X101396011Y-126331775D01*
X101663589Y-126385000D01*
X101936411Y-126385000D01*
X102203989Y-126331775D01*
X102456043Y-126227371D01*
X102682886Y-126075799D01*
X102875799Y-125882886D01*
X103027371Y-125656043D01*
X103131775Y-125403989D01*
X103164212Y-125240919D01*
X104270132Y-124135000D01*
X104302317Y-124135000D01*
X104339463Y-124204494D01*
X104418815Y-124301185D01*
X104515506Y-124380537D01*
X104625820Y-124439502D01*
X104745518Y-124475812D01*
X104870000Y-124488072D01*
X106570000Y-124488072D01*
X106694482Y-124475812D01*
X106814180Y-124439502D01*
X106924494Y-124380537D01*
X107021185Y-124301185D01*
X107100537Y-124204494D01*
X107159502Y-124094180D01*
X107183966Y-124013534D01*
X107259731Y-124097588D01*
X107493080Y-124271641D01*
X107755901Y-124396825D01*
X107903110Y-124441476D01*
X108133000Y-124320155D01*
X108133000Y-123127000D01*
X108113000Y-123127000D01*
X108113000Y-122873000D01*
X108133000Y-122873000D01*
X108133000Y-121679845D01*
X107903110Y-121558524D01*
X107755901Y-121603175D01*
X107493080Y-121728359D01*
X107259731Y-121902412D01*
X107183966Y-121986466D01*
X107159502Y-121905820D01*
X107100537Y-121795506D01*
X107021185Y-121698815D01*
X106924494Y-121619463D01*
X106814180Y-121560498D01*
X106694482Y-121524188D01*
X106570000Y-121511928D01*
X104870000Y-121511928D01*
X104745518Y-121524188D01*
X104625820Y-121560498D01*
X104515506Y-121619463D01*
X104418815Y-121698815D01*
X104339463Y-121795506D01*
X104302317Y-121865000D01*
X103855751Y-121865000D01*
X103799999Y-121859509D01*
X103577500Y-121881423D01*
X103527705Y-121896529D01*
X103363553Y-121946324D01*
X103166377Y-122051716D01*
X102993551Y-122193551D01*
X102958009Y-122236859D01*
X101559081Y-123635788D01*
X101396011Y-123668225D01*
X101143957Y-123772629D01*
X100917114Y-123924201D01*
X100724201Y-124117114D01*
X100572629Y-124343957D01*
X100468225Y-124596011D01*
X100460000Y-124637361D01*
X100460000Y-121032279D01*
X100469580Y-120934576D01*
X100488580Y-120871644D01*
X100519445Y-120813595D01*
X100560989Y-120762657D01*
X100611644Y-120720752D01*
X100669471Y-120689485D01*
X100732272Y-120670044D01*
X100827835Y-120660000D01*
X128767721Y-120660000D01*
X128865424Y-120669580D01*
G04 #@! TA.AperFunction,Conductor*
D24*
G36*
X128865424Y-120669580D02*
G01*
X128928356Y-120688580D01*
X128986405Y-120719445D01*
X129037343Y-120760989D01*
X129079248Y-120811644D01*
X129110515Y-120869471D01*
X129129956Y-120932272D01*
X129140000Y-121027835D01*
X129140000Y-131159132D01*
X124082008Y-126101141D01*
X124131067Y-126091383D01*
X124337624Y-126005824D01*
X124523520Y-125881612D01*
X124681612Y-125723520D01*
X124805824Y-125537624D01*
X124891383Y-125331067D01*
X124935000Y-125111788D01*
X124935000Y-124888212D01*
X124891383Y-124668933D01*
X124805824Y-124462376D01*
X124681612Y-124276480D01*
X124523520Y-124118388D01*
X124337624Y-123994176D01*
X124131067Y-123908617D01*
X123911788Y-123865000D01*
X123688212Y-123865000D01*
X123468933Y-123908617D01*
X123262376Y-123994176D01*
X123076480Y-124118388D01*
X123029868Y-124165000D01*
X122913072Y-124165000D01*
X122913072Y-124062500D01*
X122896248Y-123891684D01*
X122846423Y-123727433D01*
X122766226Y-123577394D01*
X122805537Y-123529494D01*
X122864502Y-123419180D01*
X122900812Y-123299482D01*
X122913072Y-123175000D01*
X122910000Y-122923250D01*
X122751250Y-122764500D01*
X121927000Y-122764500D01*
X121927000Y-122784500D01*
X121673000Y-122784500D01*
X121673000Y-122764500D01*
X121653000Y-122764500D01*
X121653000Y-122510500D01*
X121673000Y-122510500D01*
X121673000Y-122490500D01*
X121927000Y-122490500D01*
X121927000Y-122510500D01*
X122751250Y-122510500D01*
X122840441Y-122421309D01*
X125965000Y-125545868D01*
X125965001Y-126386714D01*
X125882795Y-126509744D01*
X125804774Y-126698102D01*
X125765000Y-126898061D01*
X125765000Y-127101939D01*
X125804774Y-127301898D01*
X125882795Y-127490256D01*
X125996063Y-127659774D01*
X126140226Y-127803937D01*
X126309744Y-127917205D01*
X126498102Y-127995226D01*
X126698061Y-128035000D01*
X126901939Y-128035000D01*
X127101898Y-127995226D01*
X127290256Y-127917205D01*
X127459774Y-127803937D01*
X127603937Y-127659774D01*
X127717205Y-127490256D01*
X127795226Y-127301898D01*
X127835000Y-127101939D01*
X127835000Y-126898061D01*
X127795226Y-126698102D01*
X127717205Y-126509744D01*
X127635000Y-126386715D01*
X127635000Y-125241007D01*
X127639039Y-125199999D01*
X127635000Y-125158991D01*
X127635000Y-125158981D01*
X127622918Y-125036311D01*
X127575172Y-124878913D01*
X127497636Y-124733854D01*
X127393291Y-124606709D01*
X127361428Y-124580560D01*
X123719436Y-120938569D01*
X123693281Y-120906699D01*
X123566136Y-120802354D01*
X123421077Y-120724818D01*
X123263679Y-120677072D01*
X123141009Y-120664990D01*
X123141008Y-120664990D01*
X123099990Y-120660950D01*
X123058972Y-120664990D01*
X121256608Y-120664990D01*
X121215590Y-120660950D01*
X121174572Y-120664990D01*
X121174571Y-120664990D01*
X121051901Y-120677072D01*
X120894503Y-120724818D01*
X120749444Y-120802354D01*
X120622299Y-120906699D01*
X120596148Y-120938564D01*
X120469712Y-121065000D01*
X119631993Y-121065000D01*
X119605537Y-121015506D01*
X119526185Y-120918815D01*
X119429494Y-120839463D01*
X119319180Y-120780498D01*
X119199482Y-120744188D01*
X119075000Y-120731928D01*
X118425000Y-120731928D01*
X118300518Y-120744188D01*
X118275000Y-120751929D01*
X118249482Y-120744188D01*
X118125000Y-120731928D01*
X118085750Y-120735000D01*
X117927000Y-120893750D01*
X117927000Y-120975859D01*
X117894463Y-121015506D01*
X117835498Y-121125820D01*
X117800000Y-121242841D01*
X117764502Y-121125820D01*
X117705537Y-121015506D01*
X117673000Y-120975859D01*
X117673000Y-120893750D01*
X117514250Y-120735000D01*
X117475000Y-120731928D01*
X117350518Y-120744188D01*
X117325000Y-120751929D01*
X117299482Y-120744188D01*
X117175000Y-120731928D01*
X116525000Y-120731928D01*
X116400518Y-120744188D01*
X116280820Y-120780498D01*
X116170506Y-120839463D01*
X116073815Y-120918815D01*
X115994463Y-121015506D01*
X115968007Y-121065000D01*
X115941018Y-121065000D01*
X115900000Y-121060960D01*
X115858981Y-121065000D01*
X115771969Y-121073570D01*
X115736311Y-121077082D01*
X115578913Y-121124828D01*
X115433854Y-121202364D01*
X115343869Y-121276213D01*
X115306709Y-121306709D01*
X115280563Y-121338568D01*
X114522430Y-122096702D01*
X114493475Y-122053368D01*
X114286632Y-121846525D01*
X114043411Y-121684010D01*
X113773158Y-121572068D01*
X113486260Y-121515000D01*
X113193740Y-121515000D01*
X112906842Y-121572068D01*
X112636589Y-121684010D01*
X112393368Y-121846525D01*
X112186525Y-122053368D01*
X112070000Y-122227760D01*
X111953475Y-122053368D01*
X111746632Y-121846525D01*
X111503411Y-121684010D01*
X111233158Y-121572068D01*
X110946260Y-121515000D01*
X110653740Y-121515000D01*
X110366842Y-121572068D01*
X110096589Y-121684010D01*
X109853368Y-121846525D01*
X109646525Y-122053368D01*
X109524805Y-122235534D01*
X109455178Y-122118645D01*
X109260269Y-121902412D01*
X109026920Y-121728359D01*
X108764099Y-121603175D01*
X108616890Y-121558524D01*
X108387000Y-121679845D01*
X108387000Y-122873000D01*
X108407000Y-122873000D01*
X108407000Y-123127000D01*
X108387000Y-123127000D01*
X108387000Y-124320155D01*
X108616890Y-124441476D01*
X108764099Y-124396825D01*
X109026920Y-124271641D01*
X109260269Y-124097588D01*
X109455178Y-123881355D01*
X109524805Y-123764466D01*
X109646525Y-123946632D01*
X109853368Y-124153475D01*
X110096589Y-124315990D01*
X110366842Y-124427932D01*
X110653740Y-124485000D01*
X110946260Y-124485000D01*
X111233158Y-124427932D01*
X111503411Y-124315990D01*
X111746632Y-124153475D01*
X111953475Y-123946632D01*
X112070000Y-123772240D01*
X112186525Y-123946632D01*
X112393368Y-124153475D01*
X112636589Y-124315990D01*
X112906842Y-124427932D01*
X113193740Y-124485000D01*
X113486260Y-124485000D01*
X113773158Y-124427932D01*
X114043411Y-124315990D01*
X114286632Y-124153475D01*
X114493475Y-123946632D01*
X114568065Y-123835000D01*
X114758982Y-123835000D01*
X114777187Y-123836793D01*
X114765000Y-123898061D01*
X114765000Y-124101939D01*
X114804774Y-124301898D01*
X114882795Y-124490256D01*
X114996063Y-124659774D01*
X115140226Y-124803937D01*
X115309744Y-124917205D01*
X115498102Y-124995226D01*
X115698061Y-125035000D01*
X115901939Y-125035000D01*
X116017111Y-125012091D01*
X116073815Y-125081185D01*
X116170506Y-125160537D01*
X116280820Y-125219502D01*
X116400518Y-125255812D01*
X116525000Y-125268072D01*
X116982961Y-125268072D01*
X117024828Y-125406088D01*
X117102364Y-125551147D01*
X117206709Y-125678293D01*
X117238578Y-125704447D01*
X117930550Y-126396420D01*
X117956696Y-126428280D01*
X117988555Y-126454426D01*
X117988557Y-126454428D01*
X118032214Y-126490256D01*
X118083841Y-126532625D01*
X118134453Y-126559678D01*
X118097202Y-126596928D01*
X117180000Y-126596928D01*
X117055518Y-126609188D01*
X116935820Y-126645498D01*
X116825506Y-126704463D01*
X116800000Y-126725395D01*
X116774494Y-126704463D01*
X116664180Y-126645498D01*
X116544482Y-126609188D01*
X116420000Y-126596928D01*
X114640000Y-126596928D01*
X114515518Y-126609188D01*
X114395820Y-126645498D01*
X114285506Y-126704463D01*
X114260000Y-126725395D01*
X114234494Y-126704463D01*
X114124180Y-126645498D01*
X114004482Y-126609188D01*
X113880000Y-126596928D01*
X112100000Y-126596928D01*
X111975518Y-126609188D01*
X111855820Y-126645498D01*
X111745506Y-126704463D01*
X111648815Y-126783815D01*
X111635000Y-126800649D01*
X111635000Y-126613285D01*
X111717205Y-126490256D01*
X111795226Y-126301898D01*
X111835000Y-126101939D01*
X111835000Y-125898061D01*
X111795226Y-125698102D01*
X111717205Y-125509744D01*
X111603937Y-125340226D01*
X111459774Y-125196063D01*
X111290256Y-125082795D01*
X111101898Y-125004774D01*
X110901939Y-124965000D01*
X110698061Y-124965000D01*
X110498102Y-125004774D01*
X110309744Y-125082795D01*
X110140226Y-125196063D01*
X109996063Y-125340226D01*
X109882795Y-125509744D01*
X109804774Y-125698102D01*
X109765000Y-125898061D01*
X109765000Y-126101939D01*
X109804774Y-126301898D01*
X109882795Y-126490256D01*
X109965000Y-126613285D01*
X109965000Y-126654131D01*
X109192896Y-127426236D01*
X109136411Y-127415000D01*
X108863589Y-127415000D01*
X108596011Y-127468225D01*
X108343957Y-127572629D01*
X108117114Y-127724201D01*
X107924201Y-127917114D01*
X107772629Y-128143957D01*
X107668225Y-128396011D01*
X107615000Y-128663589D01*
X107615000Y-128936411D01*
X107626236Y-128992897D01*
X107238574Y-129380559D01*
X107206710Y-129406709D01*
X107180562Y-129438571D01*
X107102364Y-129533855D01*
X107024828Y-129678914D01*
X106977082Y-129836312D01*
X106960960Y-130000000D01*
X106965001Y-130041029D01*
X106965001Y-130318330D01*
X106900000Y-130311928D01*
X105935750Y-130315000D01*
X105777000Y-130473750D01*
X105777000Y-131373000D01*
X105797000Y-131373000D01*
X105797000Y-131627000D01*
X105777000Y-131627000D01*
X105777000Y-132526250D01*
X105935750Y-132685000D01*
X106900000Y-132688072D01*
X106965001Y-132681670D01*
X106965001Y-132818330D01*
X106900000Y-132811928D01*
X104400000Y-132811928D01*
X104275518Y-132824188D01*
X104155820Y-132860498D01*
X104066829Y-132908066D01*
X104085000Y-132816712D01*
X104085000Y-132601647D01*
X104155820Y-132639502D01*
X104275518Y-132675812D01*
X104400000Y-132688072D01*
X105364250Y-132685000D01*
X105523000Y-132526250D01*
X105523000Y-131627000D01*
X103923750Y-131627000D01*
X103765000Y-131785750D01*
X103763812Y-131887968D01*
X103655394Y-131779550D01*
X103461308Y-131649866D01*
X103245652Y-131560539D01*
X103016712Y-131515000D01*
X102783288Y-131515000D01*
X102554348Y-131560539D01*
X102338692Y-131649866D01*
X102144606Y-131779550D01*
X101979550Y-131944606D01*
X101849866Y-132138692D01*
X101760539Y-132354348D01*
X101715000Y-132583288D01*
X101715000Y-132816712D01*
X101760539Y-133045652D01*
X101849866Y-133261308D01*
X101979550Y-133455394D01*
X102144606Y-133620450D01*
X102338692Y-133750134D01*
X102554348Y-133839461D01*
X102783288Y-133885000D01*
X103016712Y-133885000D01*
X103245652Y-133839461D01*
X103461308Y-133750134D01*
X103655394Y-133620450D01*
X103761928Y-133513916D01*
X103761928Y-134550000D01*
X103774188Y-134674482D01*
X103810498Y-134794180D01*
X103869463Y-134904494D01*
X103947842Y-135000000D01*
X103869463Y-135095506D01*
X103810498Y-135205820D01*
X103774188Y-135325518D01*
X103761928Y-135450000D01*
X103761928Y-136486084D01*
X103655394Y-136379550D01*
X103461308Y-136249866D01*
X103245652Y-136160539D01*
X103016712Y-136115000D01*
X102783288Y-136115000D01*
X102554348Y-136160539D01*
X102338692Y-136249866D01*
X102144606Y-136379550D01*
X101979550Y-136544606D01*
X101849866Y-136738692D01*
X101760539Y-136954348D01*
X101715000Y-137183288D01*
X101715000Y-137416712D01*
X101760539Y-137645652D01*
X101849866Y-137861308D01*
X101979550Y-138055394D01*
X102144606Y-138220450D01*
X102338692Y-138350134D01*
X102554348Y-138439461D01*
X102783288Y-138485000D01*
X103016712Y-138485000D01*
X103245652Y-138439461D01*
X103461308Y-138350134D01*
X103655394Y-138220450D01*
X103761928Y-138113916D01*
X103761928Y-139050000D01*
X103768330Y-139115000D01*
X102022136Y-139115000D01*
X101789286Y-139137934D01*
X101490512Y-139228566D01*
X101215161Y-139375744D01*
X100973813Y-139573813D01*
X100775744Y-139815161D01*
X100628566Y-140090512D01*
X100537934Y-140389286D01*
X100507331Y-140700000D01*
X100537934Y-141010714D01*
X100628566Y-141309488D01*
X100775744Y-141584839D01*
X100973813Y-141826187D01*
X101215161Y-142024256D01*
X101490512Y-142171434D01*
X101789286Y-142262066D01*
X102022136Y-142285000D01*
X103739818Y-142285000D01*
X103681423Y-142477501D01*
X103677496Y-142517372D01*
X103036864Y-143158005D01*
X102993551Y-143193551D01*
X102851716Y-143366377D01*
X102757851Y-143541988D01*
X102746324Y-143563554D01*
X102681423Y-143777502D01*
X102660494Y-143990000D01*
X102245396Y-143990000D01*
X102208316Y-143978752D01*
X102037500Y-143961928D01*
X101562500Y-143961928D01*
X101391684Y-143978752D01*
X101227433Y-144028577D01*
X101076058Y-144109488D01*
X100943377Y-144218377D01*
X100834488Y-144351058D01*
X100753577Y-144502433D01*
X100703752Y-144666684D01*
X100686928Y-144837500D01*
X100686928Y-144884354D01*
X100681423Y-144902501D01*
X100659509Y-145125000D01*
X100681423Y-145347499D01*
X100686928Y-145365646D01*
X100686928Y-145412500D01*
X100703752Y-145583316D01*
X100753577Y-145747567D01*
X100834488Y-145898942D01*
X100917425Y-146000000D01*
X100834488Y-146101058D01*
X100753577Y-146252433D01*
X100703752Y-146416684D01*
X100686928Y-146587500D01*
X100686928Y-146634354D01*
X100681423Y-146652501D01*
X100665000Y-146819248D01*
X100665000Y-147944249D01*
X100659509Y-148000000D01*
X100665000Y-148055751D01*
X100681423Y-148222498D01*
X100746324Y-148436446D01*
X100851716Y-148633623D01*
X100993551Y-148806449D01*
X101036864Y-148841995D01*
X101534868Y-149340000D01*
X100832279Y-149340000D01*
X100734576Y-149330420D01*
X100671643Y-149311420D01*
X100613594Y-149280554D01*
X100562657Y-149239011D01*
X100520752Y-149188356D01*
X100489485Y-149130529D01*
X100470044Y-149067728D01*
X100460000Y-148972165D01*
X100460000Y-129300000D01*
X100507331Y-129300000D01*
X100537934Y-129610714D01*
X100628566Y-129909488D01*
X100775744Y-130184839D01*
X100973813Y-130426187D01*
X101215161Y-130624256D01*
X101490512Y-130771434D01*
X101789286Y-130862066D01*
X102022136Y-130885000D01*
X103768330Y-130885000D01*
X103761928Y-130950000D01*
X103765000Y-131214250D01*
X103923750Y-131373000D01*
X105523000Y-131373000D01*
X105523000Y-130473750D01*
X105364250Y-130315000D01*
X104918601Y-130313580D01*
X105024256Y-130184839D01*
X105171434Y-129909488D01*
X105262066Y-129610714D01*
X105292669Y-129300000D01*
X105262066Y-128989286D01*
X105171434Y-128690512D01*
X105024256Y-128415161D01*
X104826187Y-128173813D01*
X104584839Y-127975744D01*
X104309488Y-127828566D01*
X104010714Y-127737934D01*
X103777864Y-127715000D01*
X102022136Y-127715000D01*
X101789286Y-127737934D01*
X101490512Y-127828566D01*
X101215161Y-127975744D01*
X100973813Y-128173813D01*
X100775744Y-128415161D01*
X100628566Y-128690512D01*
X100537934Y-128989286D01*
X100507331Y-129300000D01*
X100460000Y-129300000D01*
X100460000Y-125362639D01*
X100468225Y-125403989D01*
X100572629Y-125656043D01*
X100724201Y-125882886D01*
X100917114Y-126075799D01*
X101143957Y-126227371D01*
X101396011Y-126331775D01*
X101663589Y-126385000D01*
X101936411Y-126385000D01*
X102203989Y-126331775D01*
X102456043Y-126227371D01*
X102682886Y-126075799D01*
X102875799Y-125882886D01*
X103027371Y-125656043D01*
X103131775Y-125403989D01*
X103164212Y-125240919D01*
X104270132Y-124135000D01*
X104302317Y-124135000D01*
X104339463Y-124204494D01*
X104418815Y-124301185D01*
X104515506Y-124380537D01*
X104625820Y-124439502D01*
X104745518Y-124475812D01*
X104870000Y-124488072D01*
X106570000Y-124488072D01*
X106694482Y-124475812D01*
X106814180Y-124439502D01*
X106924494Y-124380537D01*
X107021185Y-124301185D01*
X107100537Y-124204494D01*
X107159502Y-124094180D01*
X107183966Y-124013534D01*
X107259731Y-124097588D01*
X107493080Y-124271641D01*
X107755901Y-124396825D01*
X107903110Y-124441476D01*
X108133000Y-124320155D01*
X108133000Y-123127000D01*
X108113000Y-123127000D01*
X108113000Y-122873000D01*
X108133000Y-122873000D01*
X108133000Y-121679845D01*
X107903110Y-121558524D01*
X107755901Y-121603175D01*
X107493080Y-121728359D01*
X107259731Y-121902412D01*
X107183966Y-121986466D01*
X107159502Y-121905820D01*
X107100537Y-121795506D01*
X107021185Y-121698815D01*
X106924494Y-121619463D01*
X106814180Y-121560498D01*
X106694482Y-121524188D01*
X106570000Y-121511928D01*
X104870000Y-121511928D01*
X104745518Y-121524188D01*
X104625820Y-121560498D01*
X104515506Y-121619463D01*
X104418815Y-121698815D01*
X104339463Y-121795506D01*
X104302317Y-121865000D01*
X103855751Y-121865000D01*
X103799999Y-121859509D01*
X103577500Y-121881423D01*
X103527705Y-121896529D01*
X103363553Y-121946324D01*
X103166377Y-122051716D01*
X102993551Y-122193551D01*
X102958009Y-122236859D01*
X101559081Y-123635788D01*
X101396011Y-123668225D01*
X101143957Y-123772629D01*
X100917114Y-123924201D01*
X100724201Y-124117114D01*
X100572629Y-124343957D01*
X100468225Y-124596011D01*
X100460000Y-124637361D01*
X100460000Y-121032279D01*
X100469580Y-120934576D01*
X100488580Y-120871644D01*
X100519445Y-120813595D01*
X100560989Y-120762657D01*
X100611644Y-120720752D01*
X100669471Y-120689485D01*
X100732272Y-120670044D01*
X100827835Y-120660000D01*
X128767721Y-120660000D01*
X128865424Y-120669580D01*
G37*
G04 #@! TD.AperFunction*
D23*
X111461928Y-129235000D02*
X111474188Y-129359482D01*
X111510498Y-129479180D01*
X111569463Y-129589494D01*
X111648815Y-129686185D01*
X111745506Y-129765537D01*
X111855820Y-129824502D01*
X111975518Y-129860812D01*
X112100000Y-129873072D01*
X112189646Y-129873072D01*
X112214828Y-129956086D01*
X112292364Y-130101145D01*
X112396709Y-130228291D01*
X112428578Y-130254446D01*
X113735563Y-131561432D01*
X113761709Y-131593291D01*
X113793568Y-131619437D01*
X113793570Y-131619439D01*
X113825023Y-131645251D01*
X113888854Y-131697636D01*
X114033913Y-131775172D01*
X114191311Y-131822918D01*
X114313981Y-131835000D01*
X114313982Y-131835000D01*
X114355000Y-131839040D01*
X114396018Y-131835000D01*
X118758982Y-131835000D01*
X118800000Y-131839040D01*
X118841018Y-131835000D01*
X118841019Y-131835000D01*
X118963689Y-131822918D01*
X119121087Y-131775172D01*
X119266146Y-131697636D01*
X119393291Y-131593291D01*
X119419446Y-131561421D01*
X120800001Y-130180868D01*
X127180563Y-136561432D01*
X127206709Y-136593291D01*
X127250637Y-136629341D01*
X127311595Y-136743386D01*
X127422038Y-136877962D01*
X127556614Y-136988405D01*
X127710150Y-137070472D01*
X127876746Y-137121008D01*
X128050000Y-137138072D01*
X129140001Y-137138072D01*
X129140001Y-148967711D01*
X129130420Y-149065424D01*
X129111420Y-149128357D01*
X129080554Y-149186406D01*
X129039011Y-149237343D01*
X128988356Y-149279248D01*
X128930529Y-149310515D01*
X128867728Y-149329956D01*
X128772165Y-149340000D01*
X110065132Y-149340000D01*
X110428073Y-148977060D01*
X110469463Y-149054494D01*
X110548815Y-149151185D01*
X110645506Y-149230537D01*
X110755820Y-149289502D01*
X110875518Y-149325812D01*
X111000000Y-149338072D01*
X111514250Y-149335000D01*
X111673000Y-149176250D01*
X111673000Y-147327000D01*
X111927000Y-147327000D01*
X111927000Y-149176250D01*
X112085750Y-149335000D01*
X112600000Y-149338072D01*
X112724482Y-149325812D01*
X112844180Y-149289502D01*
X112954494Y-149230537D01*
X113051185Y-149151185D01*
X113130537Y-149054494D01*
X113189502Y-148944180D01*
X113225812Y-148824482D01*
X113238072Y-148700000D01*
X117361928Y-148700000D01*
X117374188Y-148824482D01*
X117410498Y-148944180D01*
X117469463Y-149054494D01*
X117548815Y-149151185D01*
X117645506Y-149230537D01*
X117755820Y-149289502D01*
X117875518Y-149325812D01*
X118000000Y-149338072D01*
X118514250Y-149335000D01*
X118673000Y-149176250D01*
X118673000Y-147327000D01*
X118927000Y-147327000D01*
X118927000Y-149176250D01*
X119085750Y-149335000D01*
X119600000Y-149338072D01*
X119724482Y-149325812D01*
X119844180Y-149289502D01*
X119954494Y-149230537D01*
X120051185Y-149151185D01*
X120130537Y-149054494D01*
X120189502Y-148944180D01*
X120225812Y-148824482D01*
X120238072Y-148700000D01*
X120235353Y-147625000D01*
X123436928Y-147625000D01*
X123449188Y-147749482D01*
X123485498Y-147869180D01*
X123544463Y-147979494D01*
X123623815Y-148076185D01*
X123720506Y-148155537D01*
X123830820Y-148214502D01*
X123950518Y-148250812D01*
X124075000Y-148263072D01*
X124514250Y-148260000D01*
X124673000Y-148101250D01*
X124673000Y-147164500D01*
X124927000Y-147164500D01*
X124927000Y-148101250D01*
X125085750Y-148260000D01*
X125525000Y-148263072D01*
X125649482Y-148250812D01*
X125769180Y-148214502D01*
X125800000Y-148198028D01*
X125830820Y-148214502D01*
X125950518Y-148250812D01*
X126075000Y-148263072D01*
X126514250Y-148260000D01*
X126673000Y-148101250D01*
X126673000Y-147164500D01*
X126927000Y-147164500D01*
X126927000Y-148101250D01*
X127085750Y-148260000D01*
X127525000Y-148263072D01*
X127649482Y-148250812D01*
X127769180Y-148214502D01*
X127879494Y-148155537D01*
X127976185Y-148076185D01*
X128055537Y-147979494D01*
X128114502Y-147869180D01*
X128150812Y-147749482D01*
X128163072Y-147625000D01*
X128160000Y-147323250D01*
X128001250Y-147164500D01*
X126927000Y-147164500D01*
X126673000Y-147164500D01*
X124927000Y-147164500D01*
X124673000Y-147164500D01*
X123598750Y-147164500D01*
X123440000Y-147323250D01*
X123436928Y-147625000D01*
X120235353Y-147625000D01*
X120235000Y-147485750D01*
X120076250Y-147327000D01*
X118927000Y-147327000D01*
X118673000Y-147327000D01*
X117523750Y-147327000D01*
X117365000Y-147485750D01*
X117361928Y-148700000D01*
X113238072Y-148700000D01*
X113235000Y-147485750D01*
X113076250Y-147327000D01*
X111927000Y-147327000D01*
X111673000Y-147327000D01*
X111653000Y-147327000D01*
X111653000Y-147073000D01*
X111673000Y-147073000D01*
X111673000Y-145223750D01*
X111927000Y-145223750D01*
X111927000Y-147073000D01*
X113076250Y-147073000D01*
X113235000Y-146914250D01*
X113238072Y-145700000D01*
X117361928Y-145700000D01*
X117365000Y-146914250D01*
X117523750Y-147073000D01*
X118673000Y-147073000D01*
X118673000Y-145223750D01*
X118927000Y-145223750D01*
X118927000Y-147073000D01*
X120076250Y-147073000D01*
X120235000Y-146914250D01*
X120238072Y-145700000D01*
X120225812Y-145575518D01*
X120189502Y-145455820D01*
X120130537Y-145345506D01*
X120051185Y-145248815D01*
X119954494Y-145169463D01*
X119844180Y-145110498D01*
X119724482Y-145074188D01*
X119600000Y-145061928D01*
X119085750Y-145065000D01*
X118927000Y-145223750D01*
X118673000Y-145223750D01*
X118514250Y-145065000D01*
X118000000Y-145061928D01*
X117875518Y-145074188D01*
X117755820Y-145110498D01*
X117645506Y-145169463D01*
X117548815Y-145248815D01*
X117469463Y-145345506D01*
X117410498Y-145455820D01*
X117374188Y-145575518D01*
X117361928Y-145700000D01*
X113238072Y-145700000D01*
X113225812Y-145575518D01*
X113189502Y-145455820D01*
X113130537Y-145345506D01*
X113051185Y-145248815D01*
X112954494Y-145169463D01*
X112844180Y-145110498D01*
X112724482Y-145074188D01*
X112600000Y-145061928D01*
X112085750Y-145065000D01*
X111927000Y-145223750D01*
X111673000Y-145223750D01*
X111514250Y-145065000D01*
X111142353Y-145062778D01*
X111267059Y-144938072D01*
X112350000Y-144938072D01*
X112523254Y-144921008D01*
X112689850Y-144870472D01*
X112843386Y-144788405D01*
X112977962Y-144677962D01*
X113088405Y-144543386D01*
X113170472Y-144389850D01*
X113221008Y-144223254D01*
X113238072Y-144050000D01*
X113238072Y-143935000D01*
X117361928Y-143935000D01*
X117361928Y-144050000D01*
X117378992Y-144223254D01*
X117429528Y-144389850D01*
X117511595Y-144543386D01*
X117622038Y-144677962D01*
X117756614Y-144788405D01*
X117910150Y-144870472D01*
X118076746Y-144921008D01*
X118250000Y-144938072D01*
X119350000Y-144938072D01*
X119523254Y-144921008D01*
X119689850Y-144870472D01*
X119843386Y-144788405D01*
X119977962Y-144677962D01*
X120088405Y-144543386D01*
X120170472Y-144389850D01*
X120221008Y-144223254D01*
X120238072Y-144050000D01*
X120238072Y-144043203D01*
X121920509Y-145725641D01*
X121956051Y-145768949D01*
X122128877Y-145910784D01*
X122326053Y-146016176D01*
X122540001Y-146081077D01*
X122686503Y-146095506D01*
X122762500Y-146102991D01*
X122818252Y-146097500D01*
X123543397Y-146097500D01*
X123485498Y-146205820D01*
X123449188Y-146325518D01*
X123436928Y-146450000D01*
X123440000Y-146751750D01*
X123598750Y-146910500D01*
X124673000Y-146910500D01*
X124673000Y-146890500D01*
X124927000Y-146890500D01*
X124927000Y-146910500D01*
X126673000Y-146910500D01*
X126673000Y-146890500D01*
X126927000Y-146890500D01*
X126927000Y-146910500D01*
X128001250Y-146910500D01*
X128160000Y-146751750D01*
X128163072Y-146450000D01*
X128150812Y-146325518D01*
X128114502Y-146205820D01*
X128055537Y-146095506D01*
X127976185Y-145998815D01*
X127896406Y-145933342D01*
X127902962Y-145927962D01*
X128013405Y-145793386D01*
X128095472Y-145639850D01*
X128146008Y-145473254D01*
X128163072Y-145300000D01*
X128163072Y-144625000D01*
X128146008Y-144451746D01*
X128095472Y-144285150D01*
X128013405Y-144131614D01*
X127902962Y-143997038D01*
X127768386Y-143886595D01*
X127614850Y-143804528D01*
X127498371Y-143769195D01*
X127521831Y-143740608D01*
X127599278Y-143595716D01*
X127646969Y-143438500D01*
X127663072Y-143275000D01*
X127663072Y-142725000D01*
X127646969Y-142561500D01*
X127599278Y-142404284D01*
X127521831Y-142259392D01*
X127460000Y-142184051D01*
X127460000Y-141956437D01*
X127581623Y-141856623D01*
X127690512Y-141723942D01*
X127771423Y-141572567D01*
X127821248Y-141408316D01*
X127838072Y-141237500D01*
X127838072Y-140762500D01*
X127821248Y-140591684D01*
X127771423Y-140427433D01*
X127690512Y-140276058D01*
X127581623Y-140143377D01*
X127510000Y-140084597D01*
X127510000Y-139658568D01*
X127517973Y-139639319D01*
X127554282Y-139519623D01*
X127573404Y-139423490D01*
X127585664Y-139299009D01*
X127585664Y-139274450D01*
X127588072Y-139250000D01*
X127588072Y-138750000D01*
X127585664Y-138725550D01*
X127585664Y-138700991D01*
X127573404Y-138576510D01*
X127554282Y-138480377D01*
X127517973Y-138360681D01*
X127480464Y-138270125D01*
X127421498Y-138159808D01*
X127367042Y-138078309D01*
X127287690Y-137981618D01*
X127218382Y-137912310D01*
X127121691Y-137832958D01*
X127040192Y-137778502D01*
X126929875Y-137719536D01*
X126839319Y-137682027D01*
X126719623Y-137645718D01*
X126623490Y-137626596D01*
X126499009Y-137614336D01*
X126474450Y-137614336D01*
X126450000Y-137611928D01*
X125985000Y-137611928D01*
X125985000Y-137391007D01*
X125989039Y-137349999D01*
X125985000Y-137308991D01*
X125985000Y-137308981D01*
X125972918Y-137186311D01*
X125925172Y-137028913D01*
X125847636Y-136883854D01*
X125743291Y-136756709D01*
X125711426Y-136730558D01*
X125173764Y-136192897D01*
X125185000Y-136136411D01*
X125185000Y-135863589D01*
X125131775Y-135596011D01*
X125027371Y-135343957D01*
X124875799Y-135117114D01*
X124682886Y-134924201D01*
X124456043Y-134772629D01*
X124203989Y-134668225D01*
X123936411Y-134615000D01*
X123663589Y-134615000D01*
X123635000Y-134620687D01*
X123635000Y-134613285D01*
X123717205Y-134490256D01*
X123795226Y-134301898D01*
X123835000Y-134101939D01*
X123835000Y-133898061D01*
X123795226Y-133698102D01*
X123717205Y-133509744D01*
X123603937Y-133340226D01*
X123459774Y-133196063D01*
X123290256Y-133082795D01*
X123101898Y-133004774D01*
X122901939Y-132965000D01*
X122698061Y-132965000D01*
X122498102Y-133004774D01*
X122309744Y-133082795D01*
X122140226Y-133196063D01*
X121996063Y-133340226D01*
X121882795Y-133509744D01*
X121804774Y-133698102D01*
X121765000Y-133898061D01*
X121765000Y-134101939D01*
X121804774Y-134301898D01*
X121882795Y-134490256D01*
X121965001Y-134613286D01*
X121965001Y-134958972D01*
X121960960Y-135000000D01*
X121977082Y-135163688D01*
X122024828Y-135321086D01*
X122102364Y-135466145D01*
X122102365Y-135466146D01*
X122206710Y-135593291D01*
X122238574Y-135619441D01*
X122426236Y-135807103D01*
X122415000Y-135863589D01*
X122415000Y-136136411D01*
X122468225Y-136403989D01*
X122572629Y-136656043D01*
X122724201Y-136882886D01*
X122917114Y-137075799D01*
X123143957Y-137227371D01*
X123396011Y-137331775D01*
X123663589Y-137385000D01*
X123936411Y-137385000D01*
X123992897Y-137373764D01*
X124315001Y-137695869D01*
X124315001Y-137978927D01*
X124312310Y-137981618D01*
X124232958Y-138078309D01*
X124178502Y-138159808D01*
X124119536Y-138270125D01*
X124082027Y-138360681D01*
X124045718Y-138480377D01*
X124026596Y-138576510D01*
X124014336Y-138700991D01*
X124014336Y-138725550D01*
X124011928Y-138750000D01*
X124011928Y-139250000D01*
X124014336Y-139274450D01*
X124014336Y-139299009D01*
X124026596Y-139423490D01*
X124045718Y-139519623D01*
X124082027Y-139639319D01*
X124119536Y-139729875D01*
X124178502Y-139840192D01*
X124232958Y-139921691D01*
X124272331Y-139969667D01*
X124151058Y-140034488D01*
X124018377Y-140143377D01*
X123909488Y-140276058D01*
X123828577Y-140427433D01*
X123778752Y-140591684D01*
X123775955Y-140620087D01*
X122107085Y-138951218D01*
X122125812Y-138889482D01*
X122138072Y-138765000D01*
X122138072Y-136765000D01*
X122125812Y-136640518D01*
X122089502Y-136520820D01*
X122030537Y-136410506D01*
X121951185Y-136313815D01*
X121854494Y-136234463D01*
X121744180Y-136175498D01*
X121624482Y-136139188D01*
X121500000Y-136126928D01*
X119720000Y-136126928D01*
X119595518Y-136139188D01*
X119475820Y-136175498D01*
X119365506Y-136234463D01*
X119340000Y-136255395D01*
X119314494Y-136234463D01*
X119204180Y-136175498D01*
X119084482Y-136139188D01*
X118960000Y-136126928D01*
X117180000Y-136126928D01*
X117055518Y-136139188D01*
X116935820Y-136175498D01*
X116825506Y-136234463D01*
X116800000Y-136255395D01*
X116774494Y-136234463D01*
X116664180Y-136175498D01*
X116544482Y-136139188D01*
X116420000Y-136126928D01*
X114640000Y-136126928D01*
X114515518Y-136139188D01*
X114395820Y-136175498D01*
X114285506Y-136234463D01*
X114260000Y-136255395D01*
X114234494Y-136234463D01*
X114125000Y-136175936D01*
X114125000Y-135245752D01*
X114130491Y-135190000D01*
X114112920Y-135011595D01*
X114108577Y-134967501D01*
X114043676Y-134753553D01*
X113938284Y-134556377D01*
X113796449Y-134383551D01*
X113753139Y-134348007D01*
X113681613Y-134276482D01*
X113681612Y-134276480D01*
X113523520Y-134118388D01*
X113476921Y-134087251D01*
X113433622Y-134051717D01*
X113384224Y-134025313D01*
X113337624Y-133994176D01*
X113285845Y-133972728D01*
X113236446Y-133946324D01*
X113182845Y-133930064D01*
X113131067Y-133908617D01*
X113076103Y-133897684D01*
X113022498Y-133881423D01*
X112966748Y-133875932D01*
X112911788Y-133865000D01*
X112855751Y-133865000D01*
X112800000Y-133859509D01*
X112744249Y-133865000D01*
X112688212Y-133865000D01*
X112633252Y-133875932D01*
X112577502Y-133881423D01*
X112523897Y-133897684D01*
X112468933Y-133908617D01*
X112417155Y-133930064D01*
X112363554Y-133946324D01*
X112314155Y-133972728D01*
X112262376Y-133994176D01*
X112215776Y-134025313D01*
X112166378Y-134051717D01*
X112123080Y-134087251D01*
X112076480Y-134118388D01*
X112036849Y-134158019D01*
X111993552Y-134193552D01*
X111958019Y-134236849D01*
X111918388Y-134276480D01*
X111887251Y-134323080D01*
X111851717Y-134366378D01*
X111825313Y-134415776D01*
X111794176Y-134462376D01*
X111772728Y-134514155D01*
X111746324Y-134563554D01*
X111730064Y-134617155D01*
X111708617Y-134668933D01*
X111697684Y-134723897D01*
X111681423Y-134777502D01*
X111675932Y-134833252D01*
X111665000Y-134888212D01*
X111665000Y-134944249D01*
X111659509Y-135000000D01*
X111665000Y-135055751D01*
X111665000Y-135111788D01*
X111675932Y-135166748D01*
X111681423Y-135222498D01*
X111697684Y-135276103D01*
X111708617Y-135331067D01*
X111730064Y-135382845D01*
X111746324Y-135436446D01*
X111772728Y-135485845D01*
X111794176Y-135537624D01*
X111825313Y-135584224D01*
X111851717Y-135633622D01*
X111855001Y-135637623D01*
X111855001Y-136175936D01*
X111745506Y-136234463D01*
X111648815Y-136313815D01*
X111569463Y-136410506D01*
X111510498Y-136520820D01*
X111474188Y-136640518D01*
X111461928Y-136765000D01*
X111461928Y-137687941D01*
X111036860Y-138113009D01*
X110993552Y-138148551D01*
X110851717Y-138321377D01*
X110806106Y-138406710D01*
X110746324Y-138518554D01*
X110681423Y-138732502D01*
X110659509Y-138955000D01*
X110665001Y-139010761D01*
X110665000Y-140886780D01*
X110622038Y-140922038D01*
X110511595Y-141056614D01*
X110443036Y-141184879D01*
X110290256Y-141082795D01*
X110101898Y-141004774D01*
X109956776Y-140975908D01*
X109642796Y-140661928D01*
X108635000Y-139654133D01*
X108635000Y-130345867D01*
X108807103Y-130173764D01*
X108863589Y-130185000D01*
X109136411Y-130185000D01*
X109403989Y-130131775D01*
X109656043Y-130027371D01*
X109882886Y-129875799D01*
X110075799Y-129682886D01*
X110227371Y-129456043D01*
X110331775Y-129203989D01*
X110385000Y-128936411D01*
X110385000Y-128663589D01*
X110373764Y-128607104D01*
X111361433Y-127619436D01*
X111393291Y-127593291D01*
X111461928Y-127509656D01*
X111461928Y-129235000D01*
G04 #@! TA.AperFunction,Conductor*
D24*
G36*
X111461928Y-129235000D02*
G01*
X111474188Y-129359482D01*
X111510498Y-129479180D01*
X111569463Y-129589494D01*
X111648815Y-129686185D01*
X111745506Y-129765537D01*
X111855820Y-129824502D01*
X111975518Y-129860812D01*
X112100000Y-129873072D01*
X112189646Y-129873072D01*
X112214828Y-129956086D01*
X112292364Y-130101145D01*
X112396709Y-130228291D01*
X112428578Y-130254446D01*
X113735563Y-131561432D01*
X113761709Y-131593291D01*
X113793568Y-131619437D01*
X113793570Y-131619439D01*
X113825023Y-131645251D01*
X113888854Y-131697636D01*
X114033913Y-131775172D01*
X114191311Y-131822918D01*
X114313981Y-131835000D01*
X114313982Y-131835000D01*
X114355000Y-131839040D01*
X114396018Y-131835000D01*
X118758982Y-131835000D01*
X118800000Y-131839040D01*
X118841018Y-131835000D01*
X118841019Y-131835000D01*
X118963689Y-131822918D01*
X119121087Y-131775172D01*
X119266146Y-131697636D01*
X119393291Y-131593291D01*
X119419446Y-131561421D01*
X120800001Y-130180868D01*
X127180563Y-136561432D01*
X127206709Y-136593291D01*
X127250637Y-136629341D01*
X127311595Y-136743386D01*
X127422038Y-136877962D01*
X127556614Y-136988405D01*
X127710150Y-137070472D01*
X127876746Y-137121008D01*
X128050000Y-137138072D01*
X129140001Y-137138072D01*
X129140001Y-148967711D01*
X129130420Y-149065424D01*
X129111420Y-149128357D01*
X129080554Y-149186406D01*
X129039011Y-149237343D01*
X128988356Y-149279248D01*
X128930529Y-149310515D01*
X128867728Y-149329956D01*
X128772165Y-149340000D01*
X110065132Y-149340000D01*
X110428073Y-148977060D01*
X110469463Y-149054494D01*
X110548815Y-149151185D01*
X110645506Y-149230537D01*
X110755820Y-149289502D01*
X110875518Y-149325812D01*
X111000000Y-149338072D01*
X111514250Y-149335000D01*
X111673000Y-149176250D01*
X111673000Y-147327000D01*
X111927000Y-147327000D01*
X111927000Y-149176250D01*
X112085750Y-149335000D01*
X112600000Y-149338072D01*
X112724482Y-149325812D01*
X112844180Y-149289502D01*
X112954494Y-149230537D01*
X113051185Y-149151185D01*
X113130537Y-149054494D01*
X113189502Y-148944180D01*
X113225812Y-148824482D01*
X113238072Y-148700000D01*
X117361928Y-148700000D01*
X117374188Y-148824482D01*
X117410498Y-148944180D01*
X117469463Y-149054494D01*
X117548815Y-149151185D01*
X117645506Y-149230537D01*
X117755820Y-149289502D01*
X117875518Y-149325812D01*
X118000000Y-149338072D01*
X118514250Y-149335000D01*
X118673000Y-149176250D01*
X118673000Y-147327000D01*
X118927000Y-147327000D01*
X118927000Y-149176250D01*
X119085750Y-149335000D01*
X119600000Y-149338072D01*
X119724482Y-149325812D01*
X119844180Y-149289502D01*
X119954494Y-149230537D01*
X120051185Y-149151185D01*
X120130537Y-149054494D01*
X120189502Y-148944180D01*
X120225812Y-148824482D01*
X120238072Y-148700000D01*
X120235353Y-147625000D01*
X123436928Y-147625000D01*
X123449188Y-147749482D01*
X123485498Y-147869180D01*
X123544463Y-147979494D01*
X123623815Y-148076185D01*
X123720506Y-148155537D01*
X123830820Y-148214502D01*
X123950518Y-148250812D01*
X124075000Y-148263072D01*
X124514250Y-148260000D01*
X124673000Y-148101250D01*
X124673000Y-147164500D01*
X124927000Y-147164500D01*
X124927000Y-148101250D01*
X125085750Y-148260000D01*
X125525000Y-148263072D01*
X125649482Y-148250812D01*
X125769180Y-148214502D01*
X125800000Y-148198028D01*
X125830820Y-148214502D01*
X125950518Y-148250812D01*
X126075000Y-148263072D01*
X126514250Y-148260000D01*
X126673000Y-148101250D01*
X126673000Y-147164500D01*
X126927000Y-147164500D01*
X126927000Y-148101250D01*
X127085750Y-148260000D01*
X127525000Y-148263072D01*
X127649482Y-148250812D01*
X127769180Y-148214502D01*
X127879494Y-148155537D01*
X127976185Y-148076185D01*
X128055537Y-147979494D01*
X128114502Y-147869180D01*
X128150812Y-147749482D01*
X128163072Y-147625000D01*
X128160000Y-147323250D01*
X128001250Y-147164500D01*
X126927000Y-147164500D01*
X126673000Y-147164500D01*
X124927000Y-147164500D01*
X124673000Y-147164500D01*
X123598750Y-147164500D01*
X123440000Y-147323250D01*
X123436928Y-147625000D01*
X120235353Y-147625000D01*
X120235000Y-147485750D01*
X120076250Y-147327000D01*
X118927000Y-147327000D01*
X118673000Y-147327000D01*
X117523750Y-147327000D01*
X117365000Y-147485750D01*
X117361928Y-148700000D01*
X113238072Y-148700000D01*
X113235000Y-147485750D01*
X113076250Y-147327000D01*
X111927000Y-147327000D01*
X111673000Y-147327000D01*
X111653000Y-147327000D01*
X111653000Y-147073000D01*
X111673000Y-147073000D01*
X111673000Y-145223750D01*
X111927000Y-145223750D01*
X111927000Y-147073000D01*
X113076250Y-147073000D01*
X113235000Y-146914250D01*
X113238072Y-145700000D01*
X117361928Y-145700000D01*
X117365000Y-146914250D01*
X117523750Y-147073000D01*
X118673000Y-147073000D01*
X118673000Y-145223750D01*
X118927000Y-145223750D01*
X118927000Y-147073000D01*
X120076250Y-147073000D01*
X120235000Y-146914250D01*
X120238072Y-145700000D01*
X120225812Y-145575518D01*
X120189502Y-145455820D01*
X120130537Y-145345506D01*
X120051185Y-145248815D01*
X119954494Y-145169463D01*
X119844180Y-145110498D01*
X119724482Y-145074188D01*
X119600000Y-145061928D01*
X119085750Y-145065000D01*
X118927000Y-145223750D01*
X118673000Y-145223750D01*
X118514250Y-145065000D01*
X118000000Y-145061928D01*
X117875518Y-145074188D01*
X117755820Y-145110498D01*
X117645506Y-145169463D01*
X117548815Y-145248815D01*
X117469463Y-145345506D01*
X117410498Y-145455820D01*
X117374188Y-145575518D01*
X117361928Y-145700000D01*
X113238072Y-145700000D01*
X113225812Y-145575518D01*
X113189502Y-145455820D01*
X113130537Y-145345506D01*
X113051185Y-145248815D01*
X112954494Y-145169463D01*
X112844180Y-145110498D01*
X112724482Y-145074188D01*
X112600000Y-145061928D01*
X112085750Y-145065000D01*
X111927000Y-145223750D01*
X111673000Y-145223750D01*
X111514250Y-145065000D01*
X111142353Y-145062778D01*
X111267059Y-144938072D01*
X112350000Y-144938072D01*
X112523254Y-144921008D01*
X112689850Y-144870472D01*
X112843386Y-144788405D01*
X112977962Y-144677962D01*
X113088405Y-144543386D01*
X113170472Y-144389850D01*
X113221008Y-144223254D01*
X113238072Y-144050000D01*
X113238072Y-143935000D01*
X117361928Y-143935000D01*
X117361928Y-144050000D01*
X117378992Y-144223254D01*
X117429528Y-144389850D01*
X117511595Y-144543386D01*
X117622038Y-144677962D01*
X117756614Y-144788405D01*
X117910150Y-144870472D01*
X118076746Y-144921008D01*
X118250000Y-144938072D01*
X119350000Y-144938072D01*
X119523254Y-144921008D01*
X119689850Y-144870472D01*
X119843386Y-144788405D01*
X119977962Y-144677962D01*
X120088405Y-144543386D01*
X120170472Y-144389850D01*
X120221008Y-144223254D01*
X120238072Y-144050000D01*
X120238072Y-144043203D01*
X121920509Y-145725641D01*
X121956051Y-145768949D01*
X122128877Y-145910784D01*
X122326053Y-146016176D01*
X122540001Y-146081077D01*
X122686503Y-146095506D01*
X122762500Y-146102991D01*
X122818252Y-146097500D01*
X123543397Y-146097500D01*
X123485498Y-146205820D01*
X123449188Y-146325518D01*
X123436928Y-146450000D01*
X123440000Y-146751750D01*
X123598750Y-146910500D01*
X124673000Y-146910500D01*
X124673000Y-146890500D01*
X124927000Y-146890500D01*
X124927000Y-146910500D01*
X126673000Y-146910500D01*
X126673000Y-146890500D01*
X126927000Y-146890500D01*
X126927000Y-146910500D01*
X128001250Y-146910500D01*
X128160000Y-146751750D01*
X128163072Y-146450000D01*
X128150812Y-146325518D01*
X128114502Y-146205820D01*
X128055537Y-146095506D01*
X127976185Y-145998815D01*
X127896406Y-145933342D01*
X127902962Y-145927962D01*
X128013405Y-145793386D01*
X128095472Y-145639850D01*
X128146008Y-145473254D01*
X128163072Y-145300000D01*
X128163072Y-144625000D01*
X128146008Y-144451746D01*
X128095472Y-144285150D01*
X128013405Y-144131614D01*
X127902962Y-143997038D01*
X127768386Y-143886595D01*
X127614850Y-143804528D01*
X127498371Y-143769195D01*
X127521831Y-143740608D01*
X127599278Y-143595716D01*
X127646969Y-143438500D01*
X127663072Y-143275000D01*
X127663072Y-142725000D01*
X127646969Y-142561500D01*
X127599278Y-142404284D01*
X127521831Y-142259392D01*
X127460000Y-142184051D01*
X127460000Y-141956437D01*
X127581623Y-141856623D01*
X127690512Y-141723942D01*
X127771423Y-141572567D01*
X127821248Y-141408316D01*
X127838072Y-141237500D01*
X127838072Y-140762500D01*
X127821248Y-140591684D01*
X127771423Y-140427433D01*
X127690512Y-140276058D01*
X127581623Y-140143377D01*
X127510000Y-140084597D01*
X127510000Y-139658568D01*
X127517973Y-139639319D01*
X127554282Y-139519623D01*
X127573404Y-139423490D01*
X127585664Y-139299009D01*
X127585664Y-139274450D01*
X127588072Y-139250000D01*
X127588072Y-138750000D01*
X127585664Y-138725550D01*
X127585664Y-138700991D01*
X127573404Y-138576510D01*
X127554282Y-138480377D01*
X127517973Y-138360681D01*
X127480464Y-138270125D01*
X127421498Y-138159808D01*
X127367042Y-138078309D01*
X127287690Y-137981618D01*
X127218382Y-137912310D01*
X127121691Y-137832958D01*
X127040192Y-137778502D01*
X126929875Y-137719536D01*
X126839319Y-137682027D01*
X126719623Y-137645718D01*
X126623490Y-137626596D01*
X126499009Y-137614336D01*
X126474450Y-137614336D01*
X126450000Y-137611928D01*
X125985000Y-137611928D01*
X125985000Y-137391007D01*
X125989039Y-137349999D01*
X125985000Y-137308991D01*
X125985000Y-137308981D01*
X125972918Y-137186311D01*
X125925172Y-137028913D01*
X125847636Y-136883854D01*
X125743291Y-136756709D01*
X125711426Y-136730558D01*
X125173764Y-136192897D01*
X125185000Y-136136411D01*
X125185000Y-135863589D01*
X125131775Y-135596011D01*
X125027371Y-135343957D01*
X124875799Y-135117114D01*
X124682886Y-134924201D01*
X124456043Y-134772629D01*
X124203989Y-134668225D01*
X123936411Y-134615000D01*
X123663589Y-134615000D01*
X123635000Y-134620687D01*
X123635000Y-134613285D01*
X123717205Y-134490256D01*
X123795226Y-134301898D01*
X123835000Y-134101939D01*
X123835000Y-133898061D01*
X123795226Y-133698102D01*
X123717205Y-133509744D01*
X123603937Y-133340226D01*
X123459774Y-133196063D01*
X123290256Y-133082795D01*
X123101898Y-133004774D01*
X122901939Y-132965000D01*
X122698061Y-132965000D01*
X122498102Y-133004774D01*
X122309744Y-133082795D01*
X122140226Y-133196063D01*
X121996063Y-133340226D01*
X121882795Y-133509744D01*
X121804774Y-133698102D01*
X121765000Y-133898061D01*
X121765000Y-134101939D01*
X121804774Y-134301898D01*
X121882795Y-134490256D01*
X121965001Y-134613286D01*
X121965001Y-134958972D01*
X121960960Y-135000000D01*
X121977082Y-135163688D01*
X122024828Y-135321086D01*
X122102364Y-135466145D01*
X122102365Y-135466146D01*
X122206710Y-135593291D01*
X122238574Y-135619441D01*
X122426236Y-135807103D01*
X122415000Y-135863589D01*
X122415000Y-136136411D01*
X122468225Y-136403989D01*
X122572629Y-136656043D01*
X122724201Y-136882886D01*
X122917114Y-137075799D01*
X123143957Y-137227371D01*
X123396011Y-137331775D01*
X123663589Y-137385000D01*
X123936411Y-137385000D01*
X123992897Y-137373764D01*
X124315001Y-137695869D01*
X124315001Y-137978927D01*
X124312310Y-137981618D01*
X124232958Y-138078309D01*
X124178502Y-138159808D01*
X124119536Y-138270125D01*
X124082027Y-138360681D01*
X124045718Y-138480377D01*
X124026596Y-138576510D01*
X124014336Y-138700991D01*
X124014336Y-138725550D01*
X124011928Y-138750000D01*
X124011928Y-139250000D01*
X124014336Y-139274450D01*
X124014336Y-139299009D01*
X124026596Y-139423490D01*
X124045718Y-139519623D01*
X124082027Y-139639319D01*
X124119536Y-139729875D01*
X124178502Y-139840192D01*
X124232958Y-139921691D01*
X124272331Y-139969667D01*
X124151058Y-140034488D01*
X124018377Y-140143377D01*
X123909488Y-140276058D01*
X123828577Y-140427433D01*
X123778752Y-140591684D01*
X123775955Y-140620087D01*
X122107085Y-138951218D01*
X122125812Y-138889482D01*
X122138072Y-138765000D01*
X122138072Y-136765000D01*
X122125812Y-136640518D01*
X122089502Y-136520820D01*
X122030537Y-136410506D01*
X121951185Y-136313815D01*
X121854494Y-136234463D01*
X121744180Y-136175498D01*
X121624482Y-136139188D01*
X121500000Y-136126928D01*
X119720000Y-136126928D01*
X119595518Y-136139188D01*
X119475820Y-136175498D01*
X119365506Y-136234463D01*
X119340000Y-136255395D01*
X119314494Y-136234463D01*
X119204180Y-136175498D01*
X119084482Y-136139188D01*
X118960000Y-136126928D01*
X117180000Y-136126928D01*
X117055518Y-136139188D01*
X116935820Y-136175498D01*
X116825506Y-136234463D01*
X116800000Y-136255395D01*
X116774494Y-136234463D01*
X116664180Y-136175498D01*
X116544482Y-136139188D01*
X116420000Y-136126928D01*
X114640000Y-136126928D01*
X114515518Y-136139188D01*
X114395820Y-136175498D01*
X114285506Y-136234463D01*
X114260000Y-136255395D01*
X114234494Y-136234463D01*
X114125000Y-136175936D01*
X114125000Y-135245752D01*
X114130491Y-135190000D01*
X114112920Y-135011595D01*
X114108577Y-134967501D01*
X114043676Y-134753553D01*
X113938284Y-134556377D01*
X113796449Y-134383551D01*
X113753139Y-134348007D01*
X113681613Y-134276482D01*
X113681612Y-134276480D01*
X113523520Y-134118388D01*
X113476921Y-134087251D01*
X113433622Y-134051717D01*
X113384224Y-134025313D01*
X113337624Y-133994176D01*
X113285845Y-133972728D01*
X113236446Y-133946324D01*
X113182845Y-133930064D01*
X113131067Y-133908617D01*
X113076103Y-133897684D01*
X113022498Y-133881423D01*
X112966748Y-133875932D01*
X112911788Y-133865000D01*
X112855751Y-133865000D01*
X112800000Y-133859509D01*
X112744249Y-133865000D01*
X112688212Y-133865000D01*
X112633252Y-133875932D01*
X112577502Y-133881423D01*
X112523897Y-133897684D01*
X112468933Y-133908617D01*
X112417155Y-133930064D01*
X112363554Y-133946324D01*
X112314155Y-133972728D01*
X112262376Y-133994176D01*
X112215776Y-134025313D01*
X112166378Y-134051717D01*
X112123080Y-134087251D01*
X112076480Y-134118388D01*
X112036849Y-134158019D01*
X111993552Y-134193552D01*
X111958019Y-134236849D01*
X111918388Y-134276480D01*
X111887251Y-134323080D01*
X111851717Y-134366378D01*
X111825313Y-134415776D01*
X111794176Y-134462376D01*
X111772728Y-134514155D01*
X111746324Y-134563554D01*
X111730064Y-134617155D01*
X111708617Y-134668933D01*
X111697684Y-134723897D01*
X111681423Y-134777502D01*
X111675932Y-134833252D01*
X111665000Y-134888212D01*
X111665000Y-134944249D01*
X111659509Y-135000000D01*
X111665000Y-135055751D01*
X111665000Y-135111788D01*
X111675932Y-135166748D01*
X111681423Y-135222498D01*
X111697684Y-135276103D01*
X111708617Y-135331067D01*
X111730064Y-135382845D01*
X111746324Y-135436446D01*
X111772728Y-135485845D01*
X111794176Y-135537624D01*
X111825313Y-135584224D01*
X111851717Y-135633622D01*
X111855001Y-135637623D01*
X111855001Y-136175936D01*
X111745506Y-136234463D01*
X111648815Y-136313815D01*
X111569463Y-136410506D01*
X111510498Y-136520820D01*
X111474188Y-136640518D01*
X111461928Y-136765000D01*
X111461928Y-137687941D01*
X111036860Y-138113009D01*
X110993552Y-138148551D01*
X110851717Y-138321377D01*
X110806106Y-138406710D01*
X110746324Y-138518554D01*
X110681423Y-138732502D01*
X110659509Y-138955000D01*
X110665001Y-139010761D01*
X110665000Y-140886780D01*
X110622038Y-140922038D01*
X110511595Y-141056614D01*
X110443036Y-141184879D01*
X110290256Y-141082795D01*
X110101898Y-141004774D01*
X109956776Y-140975908D01*
X109642796Y-140661928D01*
X108635000Y-139654133D01*
X108635000Y-130345867D01*
X108807103Y-130173764D01*
X108863589Y-130185000D01*
X109136411Y-130185000D01*
X109403989Y-130131775D01*
X109656043Y-130027371D01*
X109882886Y-129875799D01*
X110075799Y-129682886D01*
X110227371Y-129456043D01*
X110331775Y-129203989D01*
X110385000Y-128936411D01*
X110385000Y-128663589D01*
X110373764Y-128607104D01*
X111361433Y-127619436D01*
X111393291Y-127593291D01*
X111461928Y-127509656D01*
X111461928Y-129235000D01*
G37*
G04 #@! TD.AperFunction*
D23*
X106665001Y-143470133D02*
X106665000Y-144273602D01*
X106629494Y-144244463D01*
X106519180Y-144185498D01*
X106399482Y-144149188D01*
X106275000Y-144136928D01*
X106085750Y-144140000D01*
X105927000Y-144298750D01*
X105927000Y-145048000D01*
X105947000Y-145048000D01*
X105947000Y-145302000D01*
X105927000Y-145302000D01*
X105927000Y-145322000D01*
X105673000Y-145322000D01*
X105673000Y-145302000D01*
X105653000Y-145302000D01*
X105653000Y-145048000D01*
X105673000Y-145048000D01*
X105673000Y-144298750D01*
X105514250Y-144140000D01*
X105325000Y-144136928D01*
X105261999Y-144143133D01*
X105563145Y-143841987D01*
X105606449Y-143806449D01*
X105649500Y-143753992D01*
X105748284Y-143633623D01*
X105853676Y-143436447D01*
X105918577Y-143222499D01*
X105922504Y-143182628D01*
X106120132Y-142985000D01*
X106179868Y-142985000D01*
X106665001Y-143470133D01*
G04 #@! TA.AperFunction,Conductor*
D24*
G36*
X106665001Y-143470133D02*
G01*
X106665000Y-144273602D01*
X106629494Y-144244463D01*
X106519180Y-144185498D01*
X106399482Y-144149188D01*
X106275000Y-144136928D01*
X106085750Y-144140000D01*
X105927000Y-144298750D01*
X105927000Y-145048000D01*
X105947000Y-145048000D01*
X105947000Y-145302000D01*
X105927000Y-145302000D01*
X105927000Y-145322000D01*
X105673000Y-145322000D01*
X105673000Y-145302000D01*
X105653000Y-145302000D01*
X105653000Y-145048000D01*
X105673000Y-145048000D01*
X105673000Y-144298750D01*
X105514250Y-144140000D01*
X105325000Y-144136928D01*
X105261999Y-144143133D01*
X105563145Y-143841987D01*
X105606449Y-143806449D01*
X105649500Y-143753992D01*
X105748284Y-143633623D01*
X105853676Y-143436447D01*
X105918577Y-143222499D01*
X105922504Y-143182628D01*
X106120132Y-142985000D01*
X106179868Y-142985000D01*
X106665001Y-143470133D01*
G37*
G04 #@! TD.AperFunction*
D23*
X119365506Y-139295537D02*
X119475820Y-139354502D01*
X119595518Y-139390812D01*
X119720000Y-139403072D01*
X120197205Y-139403072D01*
X123936928Y-143142796D01*
X123936928Y-143275000D01*
X123953031Y-143438500D01*
X124000722Y-143595716D01*
X124078169Y-143740608D01*
X124101629Y-143769195D01*
X123985150Y-143804528D01*
X123942173Y-143827500D01*
X123232632Y-143827500D01*
X121441996Y-142036865D01*
X121406449Y-141993551D01*
X121233623Y-141851716D01*
X121036447Y-141746324D01*
X120822499Y-141681423D01*
X120655752Y-141665000D01*
X120655751Y-141665000D01*
X120600000Y-141659509D01*
X120544249Y-141665000D01*
X120238072Y-141665000D01*
X120238072Y-141550000D01*
X120221008Y-141376746D01*
X120170472Y-141210150D01*
X120088405Y-141056614D01*
X119977962Y-140922038D01*
X119843386Y-140811595D01*
X119689850Y-140729528D01*
X119523254Y-140678992D01*
X119350000Y-140661928D01*
X118250000Y-140661928D01*
X118076746Y-140678992D01*
X117910150Y-140729528D01*
X117756614Y-140811595D01*
X117622038Y-140922038D01*
X117511595Y-141056614D01*
X117429528Y-141210150D01*
X117378992Y-141376746D01*
X117361928Y-141550000D01*
X117361928Y-141665000D01*
X113238072Y-141665000D01*
X113238072Y-141550000D01*
X113221008Y-141376746D01*
X113170472Y-141210150D01*
X113088405Y-141056614D01*
X112977962Y-140922038D01*
X112935000Y-140886780D01*
X112935000Y-139425131D01*
X112957059Y-139403072D01*
X113880000Y-139403072D01*
X114004482Y-139390812D01*
X114124180Y-139354502D01*
X114234494Y-139295537D01*
X114260000Y-139274605D01*
X114285506Y-139295537D01*
X114395820Y-139354502D01*
X114515518Y-139390812D01*
X114640000Y-139403072D01*
X116420000Y-139403072D01*
X116544482Y-139390812D01*
X116664180Y-139354502D01*
X116774494Y-139295537D01*
X116800000Y-139274605D01*
X116825506Y-139295537D01*
X116935820Y-139354502D01*
X117055518Y-139390812D01*
X117180000Y-139403072D01*
X118960000Y-139403072D01*
X119084482Y-139390812D01*
X119204180Y-139354502D01*
X119314494Y-139295537D01*
X119340000Y-139274605D01*
X119365506Y-139295537D01*
G04 #@! TA.AperFunction,Conductor*
D24*
G36*
X119365506Y-139295537D02*
G01*
X119475820Y-139354502D01*
X119595518Y-139390812D01*
X119720000Y-139403072D01*
X120197205Y-139403072D01*
X123936928Y-143142796D01*
X123936928Y-143275000D01*
X123953031Y-143438500D01*
X124000722Y-143595716D01*
X124078169Y-143740608D01*
X124101629Y-143769195D01*
X123985150Y-143804528D01*
X123942173Y-143827500D01*
X123232632Y-143827500D01*
X121441996Y-142036865D01*
X121406449Y-141993551D01*
X121233623Y-141851716D01*
X121036447Y-141746324D01*
X120822499Y-141681423D01*
X120655752Y-141665000D01*
X120655751Y-141665000D01*
X120600000Y-141659509D01*
X120544249Y-141665000D01*
X120238072Y-141665000D01*
X120238072Y-141550000D01*
X120221008Y-141376746D01*
X120170472Y-141210150D01*
X120088405Y-141056614D01*
X119977962Y-140922038D01*
X119843386Y-140811595D01*
X119689850Y-140729528D01*
X119523254Y-140678992D01*
X119350000Y-140661928D01*
X118250000Y-140661928D01*
X118076746Y-140678992D01*
X117910150Y-140729528D01*
X117756614Y-140811595D01*
X117622038Y-140922038D01*
X117511595Y-141056614D01*
X117429528Y-141210150D01*
X117378992Y-141376746D01*
X117361928Y-141550000D01*
X117361928Y-141665000D01*
X113238072Y-141665000D01*
X113238072Y-141550000D01*
X113221008Y-141376746D01*
X113170472Y-141210150D01*
X113088405Y-141056614D01*
X112977962Y-140922038D01*
X112935000Y-140886780D01*
X112935000Y-139425131D01*
X112957059Y-139403072D01*
X113880000Y-139403072D01*
X114004482Y-139390812D01*
X114124180Y-139354502D01*
X114234494Y-139295537D01*
X114260000Y-139274605D01*
X114285506Y-139295537D01*
X114395820Y-139354502D01*
X114515518Y-139390812D01*
X114640000Y-139403072D01*
X116420000Y-139403072D01*
X116544482Y-139390812D01*
X116664180Y-139354502D01*
X116774494Y-139295537D01*
X116800000Y-139274605D01*
X116825506Y-139295537D01*
X116935820Y-139354502D01*
X117055518Y-139390812D01*
X117180000Y-139403072D01*
X118960000Y-139403072D01*
X119084482Y-139390812D01*
X119204180Y-139354502D01*
X119314494Y-139295537D01*
X119340000Y-139274605D01*
X119365506Y-139295537D01*
G37*
G04 #@! TD.AperFunction*
D23*
X128865424Y-120669580D02*
X128928356Y-120688580D01*
X128986405Y-120719445D01*
X129037343Y-120760989D01*
X129079248Y-120811644D01*
X129110515Y-120869471D01*
X129129956Y-120932272D01*
X129140000Y-121027835D01*
X129140000Y-131159132D01*
X124082008Y-126101141D01*
X124131067Y-126091383D01*
X124337624Y-126005824D01*
X124523520Y-125881612D01*
X124681612Y-125723520D01*
X124805824Y-125537624D01*
X124891383Y-125331067D01*
X124935000Y-125111788D01*
X124935000Y-124888212D01*
X124891383Y-124668933D01*
X124805824Y-124462376D01*
X124681612Y-124276480D01*
X124523520Y-124118388D01*
X124337624Y-123994176D01*
X124131067Y-123908617D01*
X123911788Y-123865000D01*
X123688212Y-123865000D01*
X123468933Y-123908617D01*
X123262376Y-123994176D01*
X123076480Y-124118388D01*
X123029868Y-124165000D01*
X122913072Y-124165000D01*
X122913072Y-124062500D01*
X122896248Y-123891684D01*
X122846423Y-123727433D01*
X122766226Y-123577394D01*
X122805537Y-123529494D01*
X122864502Y-123419180D01*
X122900812Y-123299482D01*
X122913072Y-123175000D01*
X122910000Y-122923250D01*
X122751250Y-122764500D01*
X121927000Y-122764500D01*
X121927000Y-122784500D01*
X121673000Y-122784500D01*
X121673000Y-122764500D01*
X121653000Y-122764500D01*
X121653000Y-122510500D01*
X121673000Y-122510500D01*
X121673000Y-122490500D01*
X121927000Y-122490500D01*
X121927000Y-122510500D01*
X122751250Y-122510500D01*
X122840441Y-122421309D01*
X125965000Y-125545868D01*
X125965001Y-126386714D01*
X125882795Y-126509744D01*
X125804774Y-126698102D01*
X125765000Y-126898061D01*
X125765000Y-127101939D01*
X125804774Y-127301898D01*
X125882795Y-127490256D01*
X125996063Y-127659774D01*
X126140226Y-127803937D01*
X126309744Y-127917205D01*
X126498102Y-127995226D01*
X126698061Y-128035000D01*
X126901939Y-128035000D01*
X127101898Y-127995226D01*
X127290256Y-127917205D01*
X127459774Y-127803937D01*
X127603937Y-127659774D01*
X127717205Y-127490256D01*
X127795226Y-127301898D01*
X127835000Y-127101939D01*
X127835000Y-126898061D01*
X127795226Y-126698102D01*
X127717205Y-126509744D01*
X127635000Y-126386715D01*
X127635000Y-125241007D01*
X127639039Y-125199999D01*
X127635000Y-125158991D01*
X127635000Y-125158981D01*
X127622918Y-125036311D01*
X127575172Y-124878913D01*
X127497636Y-124733854D01*
X127393291Y-124606709D01*
X127361428Y-124580560D01*
X123719436Y-120938569D01*
X123693281Y-120906699D01*
X123566136Y-120802354D01*
X123421077Y-120724818D01*
X123263679Y-120677072D01*
X123141009Y-120664990D01*
X123141008Y-120664990D01*
X123099990Y-120660950D01*
X123058972Y-120664990D01*
X121256608Y-120664990D01*
X121215590Y-120660950D01*
X121174572Y-120664990D01*
X121174571Y-120664990D01*
X121051901Y-120677072D01*
X120894503Y-120724818D01*
X120749444Y-120802354D01*
X120622299Y-120906699D01*
X120596148Y-120938564D01*
X120469712Y-121065000D01*
X119631993Y-121065000D01*
X119605537Y-121015506D01*
X119526185Y-120918815D01*
X119429494Y-120839463D01*
X119319180Y-120780498D01*
X119199482Y-120744188D01*
X119075000Y-120731928D01*
X118425000Y-120731928D01*
X118300518Y-120744188D01*
X118275000Y-120751929D01*
X118249482Y-120744188D01*
X118125000Y-120731928D01*
X118085750Y-120735000D01*
X117927000Y-120893750D01*
X117927000Y-120975859D01*
X117894463Y-121015506D01*
X117835498Y-121125820D01*
X117800000Y-121242841D01*
X117764502Y-121125820D01*
X117705537Y-121015506D01*
X117673000Y-120975859D01*
X117673000Y-120893750D01*
X117514250Y-120735000D01*
X117475000Y-120731928D01*
X117350518Y-120744188D01*
X117325000Y-120751929D01*
X117299482Y-120744188D01*
X117175000Y-120731928D01*
X116525000Y-120731928D01*
X116400518Y-120744188D01*
X116280820Y-120780498D01*
X116170506Y-120839463D01*
X116073815Y-120918815D01*
X115994463Y-121015506D01*
X115968007Y-121065000D01*
X115941018Y-121065000D01*
X115900000Y-121060960D01*
X115858981Y-121065000D01*
X115771969Y-121073570D01*
X115736311Y-121077082D01*
X115578913Y-121124828D01*
X115433854Y-121202364D01*
X115343869Y-121276213D01*
X115306709Y-121306709D01*
X115280563Y-121338568D01*
X114522430Y-122096702D01*
X114493475Y-122053368D01*
X114286632Y-121846525D01*
X114043411Y-121684010D01*
X113773158Y-121572068D01*
X113486260Y-121515000D01*
X113193740Y-121515000D01*
X112906842Y-121572068D01*
X112636589Y-121684010D01*
X112393368Y-121846525D01*
X112186525Y-122053368D01*
X112070000Y-122227760D01*
X111953475Y-122053368D01*
X111746632Y-121846525D01*
X111503411Y-121684010D01*
X111233158Y-121572068D01*
X110946260Y-121515000D01*
X110653740Y-121515000D01*
X110366842Y-121572068D01*
X110096589Y-121684010D01*
X109853368Y-121846525D01*
X109646525Y-122053368D01*
X109524805Y-122235534D01*
X109455178Y-122118645D01*
X109260269Y-121902412D01*
X109026920Y-121728359D01*
X108764099Y-121603175D01*
X108616890Y-121558524D01*
X108387000Y-121679845D01*
X108387000Y-122873000D01*
X108407000Y-122873000D01*
X108407000Y-123127000D01*
X108387000Y-123127000D01*
X108387000Y-124320155D01*
X108616890Y-124441476D01*
X108764099Y-124396825D01*
X109026920Y-124271641D01*
X109260269Y-124097588D01*
X109455178Y-123881355D01*
X109524805Y-123764466D01*
X109646525Y-123946632D01*
X109853368Y-124153475D01*
X110096589Y-124315990D01*
X110366842Y-124427932D01*
X110653740Y-124485000D01*
X110946260Y-124485000D01*
X111233158Y-124427932D01*
X111503411Y-124315990D01*
X111746632Y-124153475D01*
X111953475Y-123946632D01*
X112070000Y-123772240D01*
X112186525Y-123946632D01*
X112393368Y-124153475D01*
X112636589Y-124315990D01*
X112906842Y-124427932D01*
X113193740Y-124485000D01*
X113486260Y-124485000D01*
X113773158Y-124427932D01*
X114043411Y-124315990D01*
X114286632Y-124153475D01*
X114493475Y-123946632D01*
X114568065Y-123835000D01*
X114758982Y-123835000D01*
X114777187Y-123836793D01*
X114765000Y-123898061D01*
X114765000Y-124101939D01*
X114804774Y-124301898D01*
X114882795Y-124490256D01*
X114996063Y-124659774D01*
X115140226Y-124803937D01*
X115309744Y-124917205D01*
X115498102Y-124995226D01*
X115698061Y-125035000D01*
X115901939Y-125035000D01*
X116017111Y-125012091D01*
X116073815Y-125081185D01*
X116170506Y-125160537D01*
X116280820Y-125219502D01*
X116400518Y-125255812D01*
X116525000Y-125268072D01*
X116982961Y-125268072D01*
X117024828Y-125406088D01*
X117102364Y-125551147D01*
X117206709Y-125678293D01*
X117238578Y-125704447D01*
X117930550Y-126396420D01*
X117956696Y-126428280D01*
X117988555Y-126454426D01*
X117988557Y-126454428D01*
X118032214Y-126490256D01*
X118083841Y-126532625D01*
X118134453Y-126559678D01*
X118097202Y-126596928D01*
X117180000Y-126596928D01*
X117055518Y-126609188D01*
X116935820Y-126645498D01*
X116825506Y-126704463D01*
X116800000Y-126725395D01*
X116774494Y-126704463D01*
X116664180Y-126645498D01*
X116544482Y-126609188D01*
X116420000Y-126596928D01*
X114640000Y-126596928D01*
X114515518Y-126609188D01*
X114395820Y-126645498D01*
X114285506Y-126704463D01*
X114260000Y-126725395D01*
X114234494Y-126704463D01*
X114124180Y-126645498D01*
X114004482Y-126609188D01*
X113880000Y-126596928D01*
X112100000Y-126596928D01*
X111975518Y-126609188D01*
X111855820Y-126645498D01*
X111745506Y-126704463D01*
X111648815Y-126783815D01*
X111635000Y-126800649D01*
X111635000Y-126613285D01*
X111717205Y-126490256D01*
X111795226Y-126301898D01*
X111835000Y-126101939D01*
X111835000Y-125898061D01*
X111795226Y-125698102D01*
X111717205Y-125509744D01*
X111603937Y-125340226D01*
X111459774Y-125196063D01*
X111290256Y-125082795D01*
X111101898Y-125004774D01*
X110901939Y-124965000D01*
X110698061Y-124965000D01*
X110498102Y-125004774D01*
X110309744Y-125082795D01*
X110140226Y-125196063D01*
X109996063Y-125340226D01*
X109882795Y-125509744D01*
X109804774Y-125698102D01*
X109765000Y-125898061D01*
X109765000Y-126101939D01*
X109804774Y-126301898D01*
X109882795Y-126490256D01*
X109965000Y-126613285D01*
X109965000Y-126654131D01*
X109192896Y-127426236D01*
X109136411Y-127415000D01*
X108863589Y-127415000D01*
X108596011Y-127468225D01*
X108343957Y-127572629D01*
X108117114Y-127724201D01*
X107924201Y-127917114D01*
X107772629Y-128143957D01*
X107668225Y-128396011D01*
X107615000Y-128663589D01*
X107615000Y-128936411D01*
X107626236Y-128992897D01*
X107238574Y-129380559D01*
X107206710Y-129406709D01*
X107180562Y-129438571D01*
X107102364Y-129533855D01*
X107024828Y-129678914D01*
X106977082Y-129836312D01*
X106960960Y-130000000D01*
X106965001Y-130041029D01*
X106965001Y-130318330D01*
X106900000Y-130311928D01*
X105935750Y-130315000D01*
X105777000Y-130473750D01*
X105777000Y-131373000D01*
X105797000Y-131373000D01*
X105797000Y-131627000D01*
X105777000Y-131627000D01*
X105777000Y-132526250D01*
X105935750Y-132685000D01*
X106900000Y-132688072D01*
X106965001Y-132681670D01*
X106965001Y-132818330D01*
X106900000Y-132811928D01*
X104400000Y-132811928D01*
X104275518Y-132824188D01*
X104155820Y-132860498D01*
X104066829Y-132908066D01*
X104085000Y-132816712D01*
X104085000Y-132601647D01*
X104155820Y-132639502D01*
X104275518Y-132675812D01*
X104400000Y-132688072D01*
X105364250Y-132685000D01*
X105523000Y-132526250D01*
X105523000Y-131627000D01*
X103923750Y-131627000D01*
X103765000Y-131785750D01*
X103763812Y-131887968D01*
X103655394Y-131779550D01*
X103461308Y-131649866D01*
X103245652Y-131560539D01*
X103016712Y-131515000D01*
X102783288Y-131515000D01*
X102554348Y-131560539D01*
X102338692Y-131649866D01*
X102144606Y-131779550D01*
X101979550Y-131944606D01*
X101849866Y-132138692D01*
X101760539Y-132354348D01*
X101715000Y-132583288D01*
X101715000Y-132816712D01*
X101760539Y-133045652D01*
X101849866Y-133261308D01*
X101979550Y-133455394D01*
X102144606Y-133620450D01*
X102338692Y-133750134D01*
X102554348Y-133839461D01*
X102783288Y-133885000D01*
X103016712Y-133885000D01*
X103245652Y-133839461D01*
X103461308Y-133750134D01*
X103655394Y-133620450D01*
X103761928Y-133513916D01*
X103761928Y-134550000D01*
X103774188Y-134674482D01*
X103810498Y-134794180D01*
X103869463Y-134904494D01*
X103947842Y-135000000D01*
X103869463Y-135095506D01*
X103810498Y-135205820D01*
X103774188Y-135325518D01*
X103761928Y-135450000D01*
X103761928Y-136486084D01*
X103655394Y-136379550D01*
X103461308Y-136249866D01*
X103245652Y-136160539D01*
X103016712Y-136115000D01*
X102783288Y-136115000D01*
X102554348Y-136160539D01*
X102338692Y-136249866D01*
X102144606Y-136379550D01*
X101979550Y-136544606D01*
X101849866Y-136738692D01*
X101760539Y-136954348D01*
X101715000Y-137183288D01*
X101715000Y-137416712D01*
X101760539Y-137645652D01*
X101849866Y-137861308D01*
X101979550Y-138055394D01*
X102144606Y-138220450D01*
X102338692Y-138350134D01*
X102554348Y-138439461D01*
X102783288Y-138485000D01*
X103016712Y-138485000D01*
X103245652Y-138439461D01*
X103461308Y-138350134D01*
X103655394Y-138220450D01*
X103761928Y-138113916D01*
X103761928Y-139050000D01*
X103768330Y-139115000D01*
X102022136Y-139115000D01*
X101789286Y-139137934D01*
X101490512Y-139228566D01*
X101215161Y-139375744D01*
X100973813Y-139573813D01*
X100775744Y-139815161D01*
X100628566Y-140090512D01*
X100537934Y-140389286D01*
X100507331Y-140700000D01*
X100537934Y-141010714D01*
X100628566Y-141309488D01*
X100775744Y-141584839D01*
X100973813Y-141826187D01*
X101215161Y-142024256D01*
X101490512Y-142171434D01*
X101789286Y-142262066D01*
X102022136Y-142285000D01*
X103739818Y-142285000D01*
X103681423Y-142477501D01*
X103677496Y-142517372D01*
X103036864Y-143158005D01*
X102993551Y-143193551D01*
X102851716Y-143366377D01*
X102757851Y-143541988D01*
X102746324Y-143563554D01*
X102681423Y-143777502D01*
X102660494Y-143990000D01*
X102245396Y-143990000D01*
X102208316Y-143978752D01*
X102037500Y-143961928D01*
X101562500Y-143961928D01*
X101391684Y-143978752D01*
X101227433Y-144028577D01*
X101076058Y-144109488D01*
X100943377Y-144218377D01*
X100834488Y-144351058D01*
X100753577Y-144502433D01*
X100703752Y-144666684D01*
X100686928Y-144837500D01*
X100686928Y-144884354D01*
X100681423Y-144902501D01*
X100659509Y-145125000D01*
X100681423Y-145347499D01*
X100686928Y-145365646D01*
X100686928Y-145412500D01*
X100703752Y-145583316D01*
X100753577Y-145747567D01*
X100834488Y-145898942D01*
X100917425Y-146000000D01*
X100834488Y-146101058D01*
X100753577Y-146252433D01*
X100703752Y-146416684D01*
X100686928Y-146587500D01*
X100686928Y-146634354D01*
X100681423Y-146652501D01*
X100665000Y-146819248D01*
X100665000Y-147944249D01*
X100659509Y-148000000D01*
X100665000Y-148055751D01*
X100681423Y-148222498D01*
X100746324Y-148436446D01*
X100851716Y-148633623D01*
X100993551Y-148806449D01*
X101036864Y-148841995D01*
X101534868Y-149340000D01*
X100832279Y-149340000D01*
X100734576Y-149330420D01*
X100671643Y-149311420D01*
X100613594Y-149280554D01*
X100562657Y-149239011D01*
X100520752Y-149188356D01*
X100489485Y-149130529D01*
X100470044Y-149067728D01*
X100460000Y-148972165D01*
X100460000Y-129300000D01*
X100507331Y-129300000D01*
X100537934Y-129610714D01*
X100628566Y-129909488D01*
X100775744Y-130184839D01*
X100973813Y-130426187D01*
X101215161Y-130624256D01*
X101490512Y-130771434D01*
X101789286Y-130862066D01*
X102022136Y-130885000D01*
X103768330Y-130885000D01*
X103761928Y-130950000D01*
X103765000Y-131214250D01*
X103923750Y-131373000D01*
X105523000Y-131373000D01*
X105523000Y-130473750D01*
X105364250Y-130315000D01*
X104918601Y-130313580D01*
X105024256Y-130184839D01*
X105171434Y-129909488D01*
X105262066Y-129610714D01*
X105292669Y-129300000D01*
X105262066Y-128989286D01*
X105171434Y-128690512D01*
X105024256Y-128415161D01*
X104826187Y-128173813D01*
X104584839Y-127975744D01*
X104309488Y-127828566D01*
X104010714Y-127737934D01*
X103777864Y-127715000D01*
X102022136Y-127715000D01*
X101789286Y-127737934D01*
X101490512Y-127828566D01*
X101215161Y-127975744D01*
X100973813Y-128173813D01*
X100775744Y-128415161D01*
X100628566Y-128690512D01*
X100537934Y-128989286D01*
X100507331Y-129300000D01*
X100460000Y-129300000D01*
X100460000Y-125362639D01*
X100468225Y-125403989D01*
X100572629Y-125656043D01*
X100724201Y-125882886D01*
X100917114Y-126075799D01*
X101143957Y-126227371D01*
X101396011Y-126331775D01*
X101663589Y-126385000D01*
X101936411Y-126385000D01*
X102203989Y-126331775D01*
X102456043Y-126227371D01*
X102682886Y-126075799D01*
X102875799Y-125882886D01*
X103027371Y-125656043D01*
X103131775Y-125403989D01*
X103164212Y-125240919D01*
X104270132Y-124135000D01*
X104302317Y-124135000D01*
X104339463Y-124204494D01*
X104418815Y-124301185D01*
X104515506Y-124380537D01*
X104625820Y-124439502D01*
X104745518Y-124475812D01*
X104870000Y-124488072D01*
X106570000Y-124488072D01*
X106694482Y-124475812D01*
X106814180Y-124439502D01*
X106924494Y-124380537D01*
X107021185Y-124301185D01*
X107100537Y-124204494D01*
X107159502Y-124094180D01*
X107183966Y-124013534D01*
X107259731Y-124097588D01*
X107493080Y-124271641D01*
X107755901Y-124396825D01*
X107903110Y-124441476D01*
X108133000Y-124320155D01*
X108133000Y-123127000D01*
X108113000Y-123127000D01*
X108113000Y-122873000D01*
X108133000Y-122873000D01*
X108133000Y-121679845D01*
X107903110Y-121558524D01*
X107755901Y-121603175D01*
X107493080Y-121728359D01*
X107259731Y-121902412D01*
X107183966Y-121986466D01*
X107159502Y-121905820D01*
X107100537Y-121795506D01*
X107021185Y-121698815D01*
X106924494Y-121619463D01*
X106814180Y-121560498D01*
X106694482Y-121524188D01*
X106570000Y-121511928D01*
X104870000Y-121511928D01*
X104745518Y-121524188D01*
X104625820Y-121560498D01*
X104515506Y-121619463D01*
X104418815Y-121698815D01*
X104339463Y-121795506D01*
X104302317Y-121865000D01*
X103855751Y-121865000D01*
X103799999Y-121859509D01*
X103577500Y-121881423D01*
X103527705Y-121896529D01*
X103363553Y-121946324D01*
X103166377Y-122051716D01*
X102993551Y-122193551D01*
X102958009Y-122236859D01*
X101559081Y-123635788D01*
X101396011Y-123668225D01*
X101143957Y-123772629D01*
X100917114Y-123924201D01*
X100724201Y-124117114D01*
X100572629Y-124343957D01*
X100468225Y-124596011D01*
X100460000Y-124637361D01*
X100460000Y-121032279D01*
X100469580Y-120934576D01*
X100488580Y-120871644D01*
X100519445Y-120813595D01*
X100560989Y-120762657D01*
X100611644Y-120720752D01*
X100669471Y-120689485D01*
X100732272Y-120670044D01*
X100827835Y-120660000D01*
X128767721Y-120660000D01*
X128865424Y-120669580D01*
G04 #@! TA.AperFunction,Conductor*
D24*
G36*
X128865424Y-120669580D02*
G01*
X128928356Y-120688580D01*
X128986405Y-120719445D01*
X129037343Y-120760989D01*
X129079248Y-120811644D01*
X129110515Y-120869471D01*
X129129956Y-120932272D01*
X129140000Y-121027835D01*
X129140000Y-131159132D01*
X124082008Y-126101141D01*
X124131067Y-126091383D01*
X124337624Y-126005824D01*
X124523520Y-125881612D01*
X124681612Y-125723520D01*
X124805824Y-125537624D01*
X124891383Y-125331067D01*
X124935000Y-125111788D01*
X124935000Y-124888212D01*
X124891383Y-124668933D01*
X124805824Y-124462376D01*
X124681612Y-124276480D01*
X124523520Y-124118388D01*
X124337624Y-123994176D01*
X124131067Y-123908617D01*
X123911788Y-123865000D01*
X123688212Y-123865000D01*
X123468933Y-123908617D01*
X123262376Y-123994176D01*
X123076480Y-124118388D01*
X123029868Y-124165000D01*
X122913072Y-124165000D01*
X122913072Y-124062500D01*
X122896248Y-123891684D01*
X122846423Y-123727433D01*
X122766226Y-123577394D01*
X122805537Y-123529494D01*
X122864502Y-123419180D01*
X122900812Y-123299482D01*
X122913072Y-123175000D01*
X122910000Y-122923250D01*
X122751250Y-122764500D01*
X121927000Y-122764500D01*
X121927000Y-122784500D01*
X121673000Y-122784500D01*
X121673000Y-122764500D01*
X121653000Y-122764500D01*
X121653000Y-122510500D01*
X121673000Y-122510500D01*
X121673000Y-122490500D01*
X121927000Y-122490500D01*
X121927000Y-122510500D01*
X122751250Y-122510500D01*
X122840441Y-122421309D01*
X125965000Y-125545868D01*
X125965001Y-126386714D01*
X125882795Y-126509744D01*
X125804774Y-126698102D01*
X125765000Y-126898061D01*
X125765000Y-127101939D01*
X125804774Y-127301898D01*
X125882795Y-127490256D01*
X125996063Y-127659774D01*
X126140226Y-127803937D01*
X126309744Y-127917205D01*
X126498102Y-127995226D01*
X126698061Y-128035000D01*
X126901939Y-128035000D01*
X127101898Y-127995226D01*
X127290256Y-127917205D01*
X127459774Y-127803937D01*
X127603937Y-127659774D01*
X127717205Y-127490256D01*
X127795226Y-127301898D01*
X127835000Y-127101939D01*
X127835000Y-126898061D01*
X127795226Y-126698102D01*
X127717205Y-126509744D01*
X127635000Y-126386715D01*
X127635000Y-125241007D01*
X127639039Y-125199999D01*
X127635000Y-125158991D01*
X127635000Y-125158981D01*
X127622918Y-125036311D01*
X127575172Y-124878913D01*
X127497636Y-124733854D01*
X127393291Y-124606709D01*
X127361428Y-124580560D01*
X123719436Y-120938569D01*
X123693281Y-120906699D01*
X123566136Y-120802354D01*
X123421077Y-120724818D01*
X123263679Y-120677072D01*
X123141009Y-120664990D01*
X123141008Y-120664990D01*
X123099990Y-120660950D01*
X123058972Y-120664990D01*
X121256608Y-120664990D01*
X121215590Y-120660950D01*
X121174572Y-120664990D01*
X121174571Y-120664990D01*
X121051901Y-120677072D01*
X120894503Y-120724818D01*
X120749444Y-120802354D01*
X120622299Y-120906699D01*
X120596148Y-120938564D01*
X120469712Y-121065000D01*
X119631993Y-121065000D01*
X119605537Y-121015506D01*
X119526185Y-120918815D01*
X119429494Y-120839463D01*
X119319180Y-120780498D01*
X119199482Y-120744188D01*
X119075000Y-120731928D01*
X118425000Y-120731928D01*
X118300518Y-120744188D01*
X118275000Y-120751929D01*
X118249482Y-120744188D01*
X118125000Y-120731928D01*
X118085750Y-120735000D01*
X117927000Y-120893750D01*
X117927000Y-120975859D01*
X117894463Y-121015506D01*
X117835498Y-121125820D01*
X117800000Y-121242841D01*
X117764502Y-121125820D01*
X117705537Y-121015506D01*
X117673000Y-120975859D01*
X117673000Y-120893750D01*
X117514250Y-120735000D01*
X117475000Y-120731928D01*
X117350518Y-120744188D01*
X117325000Y-120751929D01*
X117299482Y-120744188D01*
X117175000Y-120731928D01*
X116525000Y-120731928D01*
X116400518Y-120744188D01*
X116280820Y-120780498D01*
X116170506Y-120839463D01*
X116073815Y-120918815D01*
X115994463Y-121015506D01*
X115968007Y-121065000D01*
X115941018Y-121065000D01*
X115900000Y-121060960D01*
X115858981Y-121065000D01*
X115771969Y-121073570D01*
X115736311Y-121077082D01*
X115578913Y-121124828D01*
X115433854Y-121202364D01*
X115343869Y-121276213D01*
X115306709Y-121306709D01*
X115280563Y-121338568D01*
X114522430Y-122096702D01*
X114493475Y-122053368D01*
X114286632Y-121846525D01*
X114043411Y-121684010D01*
X113773158Y-121572068D01*
X113486260Y-121515000D01*
X113193740Y-121515000D01*
X112906842Y-121572068D01*
X112636589Y-121684010D01*
X112393368Y-121846525D01*
X112186525Y-122053368D01*
X112070000Y-122227760D01*
X111953475Y-122053368D01*
X111746632Y-121846525D01*
X111503411Y-121684010D01*
X111233158Y-121572068D01*
X110946260Y-121515000D01*
X110653740Y-121515000D01*
X110366842Y-121572068D01*
X110096589Y-121684010D01*
X109853368Y-121846525D01*
X109646525Y-122053368D01*
X109524805Y-122235534D01*
X109455178Y-122118645D01*
X109260269Y-121902412D01*
X109026920Y-121728359D01*
X108764099Y-121603175D01*
X108616890Y-121558524D01*
X108387000Y-121679845D01*
X108387000Y-122873000D01*
X108407000Y-122873000D01*
X108407000Y-123127000D01*
X108387000Y-123127000D01*
X108387000Y-124320155D01*
X108616890Y-124441476D01*
X108764099Y-124396825D01*
X109026920Y-124271641D01*
X109260269Y-124097588D01*
X109455178Y-123881355D01*
X109524805Y-123764466D01*
X109646525Y-123946632D01*
X109853368Y-124153475D01*
X110096589Y-124315990D01*
X110366842Y-124427932D01*
X110653740Y-124485000D01*
X110946260Y-124485000D01*
X111233158Y-124427932D01*
X111503411Y-124315990D01*
X111746632Y-124153475D01*
X111953475Y-123946632D01*
X112070000Y-123772240D01*
X112186525Y-123946632D01*
X112393368Y-124153475D01*
X112636589Y-124315990D01*
X112906842Y-124427932D01*
X113193740Y-124485000D01*
X113486260Y-124485000D01*
X113773158Y-124427932D01*
X114043411Y-124315990D01*
X114286632Y-124153475D01*
X114493475Y-123946632D01*
X114568065Y-123835000D01*
X114758982Y-123835000D01*
X114777187Y-123836793D01*
X114765000Y-123898061D01*
X114765000Y-124101939D01*
X114804774Y-124301898D01*
X114882795Y-124490256D01*
X114996063Y-124659774D01*
X115140226Y-124803937D01*
X115309744Y-124917205D01*
X115498102Y-124995226D01*
X115698061Y-125035000D01*
X115901939Y-125035000D01*
X116017111Y-125012091D01*
X116073815Y-125081185D01*
X116170506Y-125160537D01*
X116280820Y-125219502D01*
X116400518Y-125255812D01*
X116525000Y-125268072D01*
X116982961Y-125268072D01*
X117024828Y-125406088D01*
X117102364Y-125551147D01*
X117206709Y-125678293D01*
X117238578Y-125704447D01*
X117930550Y-126396420D01*
X117956696Y-126428280D01*
X117988555Y-126454426D01*
X117988557Y-126454428D01*
X118032214Y-126490256D01*
X118083841Y-126532625D01*
X118134453Y-126559678D01*
X118097202Y-126596928D01*
X117180000Y-126596928D01*
X117055518Y-126609188D01*
X116935820Y-126645498D01*
X116825506Y-126704463D01*
X116800000Y-126725395D01*
X116774494Y-126704463D01*
X116664180Y-126645498D01*
X116544482Y-126609188D01*
X116420000Y-126596928D01*
X114640000Y-126596928D01*
X114515518Y-126609188D01*
X114395820Y-126645498D01*
X114285506Y-126704463D01*
X114260000Y-126725395D01*
X114234494Y-126704463D01*
X114124180Y-126645498D01*
X114004482Y-126609188D01*
X113880000Y-126596928D01*
X112100000Y-126596928D01*
X111975518Y-126609188D01*
X111855820Y-126645498D01*
X111745506Y-126704463D01*
X111648815Y-126783815D01*
X111635000Y-126800649D01*
X111635000Y-126613285D01*
X111717205Y-126490256D01*
X111795226Y-126301898D01*
X111835000Y-126101939D01*
X111835000Y-125898061D01*
X111795226Y-125698102D01*
X111717205Y-125509744D01*
X111603937Y-125340226D01*
X111459774Y-125196063D01*
X111290256Y-125082795D01*
X111101898Y-125004774D01*
X110901939Y-124965000D01*
X110698061Y-124965000D01*
X110498102Y-125004774D01*
X110309744Y-125082795D01*
X110140226Y-125196063D01*
X109996063Y-125340226D01*
X109882795Y-125509744D01*
X109804774Y-125698102D01*
X109765000Y-125898061D01*
X109765000Y-126101939D01*
X109804774Y-126301898D01*
X109882795Y-126490256D01*
X109965000Y-126613285D01*
X109965000Y-126654131D01*
X109192896Y-127426236D01*
X109136411Y-127415000D01*
X108863589Y-127415000D01*
X108596011Y-127468225D01*
X108343957Y-127572629D01*
X108117114Y-127724201D01*
X107924201Y-127917114D01*
X107772629Y-128143957D01*
X107668225Y-128396011D01*
X107615000Y-128663589D01*
X107615000Y-128936411D01*
X107626236Y-128992897D01*
X107238574Y-129380559D01*
X107206710Y-129406709D01*
X107180562Y-129438571D01*
X107102364Y-129533855D01*
X107024828Y-129678914D01*
X106977082Y-129836312D01*
X106960960Y-130000000D01*
X106965001Y-130041029D01*
X106965001Y-130318330D01*
X106900000Y-130311928D01*
X105935750Y-130315000D01*
X105777000Y-130473750D01*
X105777000Y-131373000D01*
X105797000Y-131373000D01*
X105797000Y-131627000D01*
X105777000Y-131627000D01*
X105777000Y-132526250D01*
X105935750Y-132685000D01*
X106900000Y-132688072D01*
X106965001Y-132681670D01*
X106965001Y-132818330D01*
X106900000Y-132811928D01*
X104400000Y-132811928D01*
X104275518Y-132824188D01*
X104155820Y-132860498D01*
X104066829Y-132908066D01*
X104085000Y-132816712D01*
X104085000Y-132601647D01*
X104155820Y-132639502D01*
X104275518Y-132675812D01*
X104400000Y-132688072D01*
X105364250Y-132685000D01*
X105523000Y-132526250D01*
X105523000Y-131627000D01*
X103923750Y-131627000D01*
X103765000Y-131785750D01*
X103763812Y-131887968D01*
X103655394Y-131779550D01*
X103461308Y-131649866D01*
X103245652Y-131560539D01*
X103016712Y-131515000D01*
X102783288Y-131515000D01*
X102554348Y-131560539D01*
X102338692Y-131649866D01*
X102144606Y-131779550D01*
X101979550Y-131944606D01*
X101849866Y-132138692D01*
X101760539Y-132354348D01*
X101715000Y-132583288D01*
X101715000Y-132816712D01*
X101760539Y-133045652D01*
X101849866Y-133261308D01*
X101979550Y-133455394D01*
X102144606Y-133620450D01*
X102338692Y-133750134D01*
X102554348Y-133839461D01*
X102783288Y-133885000D01*
X103016712Y-133885000D01*
X103245652Y-133839461D01*
X103461308Y-133750134D01*
X103655394Y-133620450D01*
X103761928Y-133513916D01*
X103761928Y-134550000D01*
X103774188Y-134674482D01*
X103810498Y-134794180D01*
X103869463Y-134904494D01*
X103947842Y-135000000D01*
X103869463Y-135095506D01*
X103810498Y-135205820D01*
X103774188Y-135325518D01*
X103761928Y-135450000D01*
X103761928Y-136486084D01*
X103655394Y-136379550D01*
X103461308Y-136249866D01*
X103245652Y-136160539D01*
X103016712Y-136115000D01*
X102783288Y-136115000D01*
X102554348Y-136160539D01*
X102338692Y-136249866D01*
X102144606Y-136379550D01*
X101979550Y-136544606D01*
X101849866Y-136738692D01*
X101760539Y-136954348D01*
X101715000Y-137183288D01*
X101715000Y-137416712D01*
X101760539Y-137645652D01*
X101849866Y-137861308D01*
X101979550Y-138055394D01*
X102144606Y-138220450D01*
X102338692Y-138350134D01*
X102554348Y-138439461D01*
X102783288Y-138485000D01*
X103016712Y-138485000D01*
X103245652Y-138439461D01*
X103461308Y-138350134D01*
X103655394Y-138220450D01*
X103761928Y-138113916D01*
X103761928Y-139050000D01*
X103768330Y-139115000D01*
X102022136Y-139115000D01*
X101789286Y-139137934D01*
X101490512Y-139228566D01*
X101215161Y-139375744D01*
X100973813Y-139573813D01*
X100775744Y-139815161D01*
X100628566Y-140090512D01*
X100537934Y-140389286D01*
X100507331Y-140700000D01*
X100537934Y-141010714D01*
X100628566Y-141309488D01*
X100775744Y-141584839D01*
X100973813Y-141826187D01*
X101215161Y-142024256D01*
X101490512Y-142171434D01*
X101789286Y-142262066D01*
X102022136Y-142285000D01*
X103739818Y-142285000D01*
X103681423Y-142477501D01*
X103677496Y-142517372D01*
X103036864Y-143158005D01*
X102993551Y-143193551D01*
X102851716Y-143366377D01*
X102757851Y-143541988D01*
X102746324Y-143563554D01*
X102681423Y-143777502D01*
X102660494Y-143990000D01*
X102245396Y-143990000D01*
X102208316Y-143978752D01*
X102037500Y-143961928D01*
X101562500Y-143961928D01*
X101391684Y-143978752D01*
X101227433Y-144028577D01*
X101076058Y-144109488D01*
X100943377Y-144218377D01*
X100834488Y-144351058D01*
X100753577Y-144502433D01*
X100703752Y-144666684D01*
X100686928Y-144837500D01*
X100686928Y-144884354D01*
X100681423Y-144902501D01*
X100659509Y-145125000D01*
X100681423Y-145347499D01*
X100686928Y-145365646D01*
X100686928Y-145412500D01*
X100703752Y-145583316D01*
X100753577Y-145747567D01*
X100834488Y-145898942D01*
X100917425Y-146000000D01*
X100834488Y-146101058D01*
X100753577Y-146252433D01*
X100703752Y-146416684D01*
X100686928Y-146587500D01*
X100686928Y-146634354D01*
X100681423Y-146652501D01*
X100665000Y-146819248D01*
X100665000Y-147944249D01*
X100659509Y-148000000D01*
X100665000Y-148055751D01*
X100681423Y-148222498D01*
X100746324Y-148436446D01*
X100851716Y-148633623D01*
X100993551Y-148806449D01*
X101036864Y-148841995D01*
X101534868Y-149340000D01*
X100832279Y-149340000D01*
X100734576Y-149330420D01*
X100671643Y-149311420D01*
X100613594Y-149280554D01*
X100562657Y-149239011D01*
X100520752Y-149188356D01*
X100489485Y-149130529D01*
X100470044Y-149067728D01*
X100460000Y-148972165D01*
X100460000Y-129300000D01*
X100507331Y-129300000D01*
X100537934Y-129610714D01*
X100628566Y-129909488D01*
X100775744Y-130184839D01*
X100973813Y-130426187D01*
X101215161Y-130624256D01*
X101490512Y-130771434D01*
X101789286Y-130862066D01*
X102022136Y-130885000D01*
X103768330Y-130885000D01*
X103761928Y-130950000D01*
X103765000Y-131214250D01*
X103923750Y-131373000D01*
X105523000Y-131373000D01*
X105523000Y-130473750D01*
X105364250Y-130315000D01*
X104918601Y-130313580D01*
X105024256Y-130184839D01*
X105171434Y-129909488D01*
X105262066Y-129610714D01*
X105292669Y-129300000D01*
X105262066Y-128989286D01*
X105171434Y-128690512D01*
X105024256Y-128415161D01*
X104826187Y-128173813D01*
X104584839Y-127975744D01*
X104309488Y-127828566D01*
X104010714Y-127737934D01*
X103777864Y-127715000D01*
X102022136Y-127715000D01*
X101789286Y-127737934D01*
X101490512Y-127828566D01*
X101215161Y-127975744D01*
X100973813Y-128173813D01*
X100775744Y-128415161D01*
X100628566Y-128690512D01*
X100537934Y-128989286D01*
X100507331Y-129300000D01*
X100460000Y-129300000D01*
X100460000Y-125362639D01*
X100468225Y-125403989D01*
X100572629Y-125656043D01*
X100724201Y-125882886D01*
X100917114Y-126075799D01*
X101143957Y-126227371D01*
X101396011Y-126331775D01*
X101663589Y-126385000D01*
X101936411Y-126385000D01*
X102203989Y-126331775D01*
X102456043Y-126227371D01*
X102682886Y-126075799D01*
X102875799Y-125882886D01*
X103027371Y-125656043D01*
X103131775Y-125403989D01*
X103164212Y-125240919D01*
X104270132Y-124135000D01*
X104302317Y-124135000D01*
X104339463Y-124204494D01*
X104418815Y-124301185D01*
X104515506Y-124380537D01*
X104625820Y-124439502D01*
X104745518Y-124475812D01*
X104870000Y-124488072D01*
X106570000Y-124488072D01*
X106694482Y-124475812D01*
X106814180Y-124439502D01*
X106924494Y-124380537D01*
X107021185Y-124301185D01*
X107100537Y-124204494D01*
X107159502Y-124094180D01*
X107183966Y-124013534D01*
X107259731Y-124097588D01*
X107493080Y-124271641D01*
X107755901Y-124396825D01*
X107903110Y-124441476D01*
X108133000Y-124320155D01*
X108133000Y-123127000D01*
X108113000Y-123127000D01*
X108113000Y-122873000D01*
X108133000Y-122873000D01*
X108133000Y-121679845D01*
X107903110Y-121558524D01*
X107755901Y-121603175D01*
X107493080Y-121728359D01*
X107259731Y-121902412D01*
X107183966Y-121986466D01*
X107159502Y-121905820D01*
X107100537Y-121795506D01*
X107021185Y-121698815D01*
X106924494Y-121619463D01*
X106814180Y-121560498D01*
X106694482Y-121524188D01*
X106570000Y-121511928D01*
X104870000Y-121511928D01*
X104745518Y-121524188D01*
X104625820Y-121560498D01*
X104515506Y-121619463D01*
X104418815Y-121698815D01*
X104339463Y-121795506D01*
X104302317Y-121865000D01*
X103855751Y-121865000D01*
X103799999Y-121859509D01*
X103577500Y-121881423D01*
X103527705Y-121896529D01*
X103363553Y-121946324D01*
X103166377Y-122051716D01*
X102993551Y-122193551D01*
X102958009Y-122236859D01*
X101559081Y-123635788D01*
X101396011Y-123668225D01*
X101143957Y-123772629D01*
X100917114Y-123924201D01*
X100724201Y-124117114D01*
X100572629Y-124343957D01*
X100468225Y-124596011D01*
X100460000Y-124637361D01*
X100460000Y-121032279D01*
X100469580Y-120934576D01*
X100488580Y-120871644D01*
X100519445Y-120813595D01*
X100560989Y-120762657D01*
X100611644Y-120720752D01*
X100669471Y-120689485D01*
X100732272Y-120670044D01*
X100827835Y-120660000D01*
X128767721Y-120660000D01*
X128865424Y-120669580D01*
G37*
G04 #@! TD.AperFunction*
D23*
X111461928Y-129235000D02*
X111474188Y-129359482D01*
X111510498Y-129479180D01*
X111569463Y-129589494D01*
X111648815Y-129686185D01*
X111745506Y-129765537D01*
X111855820Y-129824502D01*
X111975518Y-129860812D01*
X112100000Y-129873072D01*
X112189646Y-129873072D01*
X112214828Y-129956086D01*
X112292364Y-130101145D01*
X112396709Y-130228291D01*
X112428578Y-130254446D01*
X113735563Y-131561432D01*
X113761709Y-131593291D01*
X113793568Y-131619437D01*
X113793570Y-131619439D01*
X113825023Y-131645251D01*
X113888854Y-131697636D01*
X114033913Y-131775172D01*
X114191311Y-131822918D01*
X114313981Y-131835000D01*
X114313982Y-131835000D01*
X114355000Y-131839040D01*
X114396018Y-131835000D01*
X118758982Y-131835000D01*
X118800000Y-131839040D01*
X118841018Y-131835000D01*
X118841019Y-131835000D01*
X118963689Y-131822918D01*
X119121087Y-131775172D01*
X119266146Y-131697636D01*
X119393291Y-131593291D01*
X119419446Y-131561421D01*
X120800001Y-130180868D01*
X127180563Y-136561432D01*
X127206709Y-136593291D01*
X127250637Y-136629341D01*
X127311595Y-136743386D01*
X127422038Y-136877962D01*
X127556614Y-136988405D01*
X127710150Y-137070472D01*
X127876746Y-137121008D01*
X128050000Y-137138072D01*
X129140001Y-137138072D01*
X129140001Y-148967711D01*
X129130420Y-149065424D01*
X129111420Y-149128357D01*
X129080554Y-149186406D01*
X129039011Y-149237343D01*
X128988356Y-149279248D01*
X128930529Y-149310515D01*
X128867728Y-149329956D01*
X128772165Y-149340000D01*
X110065132Y-149340000D01*
X110428073Y-148977060D01*
X110469463Y-149054494D01*
X110548815Y-149151185D01*
X110645506Y-149230537D01*
X110755820Y-149289502D01*
X110875518Y-149325812D01*
X111000000Y-149338072D01*
X111514250Y-149335000D01*
X111673000Y-149176250D01*
X111673000Y-147327000D01*
X111927000Y-147327000D01*
X111927000Y-149176250D01*
X112085750Y-149335000D01*
X112600000Y-149338072D01*
X112724482Y-149325812D01*
X112844180Y-149289502D01*
X112954494Y-149230537D01*
X113051185Y-149151185D01*
X113130537Y-149054494D01*
X113189502Y-148944180D01*
X113225812Y-148824482D01*
X113238072Y-148700000D01*
X117361928Y-148700000D01*
X117374188Y-148824482D01*
X117410498Y-148944180D01*
X117469463Y-149054494D01*
X117548815Y-149151185D01*
X117645506Y-149230537D01*
X117755820Y-149289502D01*
X117875518Y-149325812D01*
X118000000Y-149338072D01*
X118514250Y-149335000D01*
X118673000Y-149176250D01*
X118673000Y-147327000D01*
X118927000Y-147327000D01*
X118927000Y-149176250D01*
X119085750Y-149335000D01*
X119600000Y-149338072D01*
X119724482Y-149325812D01*
X119844180Y-149289502D01*
X119954494Y-149230537D01*
X120051185Y-149151185D01*
X120130537Y-149054494D01*
X120189502Y-148944180D01*
X120225812Y-148824482D01*
X120238072Y-148700000D01*
X120235353Y-147625000D01*
X123436928Y-147625000D01*
X123449188Y-147749482D01*
X123485498Y-147869180D01*
X123544463Y-147979494D01*
X123623815Y-148076185D01*
X123720506Y-148155537D01*
X123830820Y-148214502D01*
X123950518Y-148250812D01*
X124075000Y-148263072D01*
X124514250Y-148260000D01*
X124673000Y-148101250D01*
X124673000Y-147164500D01*
X124927000Y-147164500D01*
X124927000Y-148101250D01*
X125085750Y-148260000D01*
X125525000Y-148263072D01*
X125649482Y-148250812D01*
X125769180Y-148214502D01*
X125800000Y-148198028D01*
X125830820Y-148214502D01*
X125950518Y-148250812D01*
X126075000Y-148263072D01*
X126514250Y-148260000D01*
X126673000Y-148101250D01*
X126673000Y-147164500D01*
X126927000Y-147164500D01*
X126927000Y-148101250D01*
X127085750Y-148260000D01*
X127525000Y-148263072D01*
X127649482Y-148250812D01*
X127769180Y-148214502D01*
X127879494Y-148155537D01*
X127976185Y-148076185D01*
X128055537Y-147979494D01*
X128114502Y-147869180D01*
X128150812Y-147749482D01*
X128163072Y-147625000D01*
X128160000Y-147323250D01*
X128001250Y-147164500D01*
X126927000Y-147164500D01*
X126673000Y-147164500D01*
X124927000Y-147164500D01*
X124673000Y-147164500D01*
X123598750Y-147164500D01*
X123440000Y-147323250D01*
X123436928Y-147625000D01*
X120235353Y-147625000D01*
X120235000Y-147485750D01*
X120076250Y-147327000D01*
X118927000Y-147327000D01*
X118673000Y-147327000D01*
X117523750Y-147327000D01*
X117365000Y-147485750D01*
X117361928Y-148700000D01*
X113238072Y-148700000D01*
X113235000Y-147485750D01*
X113076250Y-147327000D01*
X111927000Y-147327000D01*
X111673000Y-147327000D01*
X111653000Y-147327000D01*
X111653000Y-147073000D01*
X111673000Y-147073000D01*
X111673000Y-145223750D01*
X111927000Y-145223750D01*
X111927000Y-147073000D01*
X113076250Y-147073000D01*
X113235000Y-146914250D01*
X113238072Y-145700000D01*
X117361928Y-145700000D01*
X117365000Y-146914250D01*
X117523750Y-147073000D01*
X118673000Y-147073000D01*
X118673000Y-145223750D01*
X118927000Y-145223750D01*
X118927000Y-147073000D01*
X120076250Y-147073000D01*
X120235000Y-146914250D01*
X120238072Y-145700000D01*
X120225812Y-145575518D01*
X120189502Y-145455820D01*
X120130537Y-145345506D01*
X120051185Y-145248815D01*
X119954494Y-145169463D01*
X119844180Y-145110498D01*
X119724482Y-145074188D01*
X119600000Y-145061928D01*
X119085750Y-145065000D01*
X118927000Y-145223750D01*
X118673000Y-145223750D01*
X118514250Y-145065000D01*
X118000000Y-145061928D01*
X117875518Y-145074188D01*
X117755820Y-145110498D01*
X117645506Y-145169463D01*
X117548815Y-145248815D01*
X117469463Y-145345506D01*
X117410498Y-145455820D01*
X117374188Y-145575518D01*
X117361928Y-145700000D01*
X113238072Y-145700000D01*
X113225812Y-145575518D01*
X113189502Y-145455820D01*
X113130537Y-145345506D01*
X113051185Y-145248815D01*
X112954494Y-145169463D01*
X112844180Y-145110498D01*
X112724482Y-145074188D01*
X112600000Y-145061928D01*
X112085750Y-145065000D01*
X111927000Y-145223750D01*
X111673000Y-145223750D01*
X111514250Y-145065000D01*
X111142353Y-145062778D01*
X111267059Y-144938072D01*
X112350000Y-144938072D01*
X112523254Y-144921008D01*
X112689850Y-144870472D01*
X112843386Y-144788405D01*
X112977962Y-144677962D01*
X113088405Y-144543386D01*
X113170472Y-144389850D01*
X113221008Y-144223254D01*
X113238072Y-144050000D01*
X113238072Y-143935000D01*
X117361928Y-143935000D01*
X117361928Y-144050000D01*
X117378992Y-144223254D01*
X117429528Y-144389850D01*
X117511595Y-144543386D01*
X117622038Y-144677962D01*
X117756614Y-144788405D01*
X117910150Y-144870472D01*
X118076746Y-144921008D01*
X118250000Y-144938072D01*
X119350000Y-144938072D01*
X119523254Y-144921008D01*
X119689850Y-144870472D01*
X119843386Y-144788405D01*
X119977962Y-144677962D01*
X120088405Y-144543386D01*
X120170472Y-144389850D01*
X120221008Y-144223254D01*
X120238072Y-144050000D01*
X120238072Y-144043203D01*
X121920509Y-145725641D01*
X121956051Y-145768949D01*
X122128877Y-145910784D01*
X122326053Y-146016176D01*
X122540001Y-146081077D01*
X122686503Y-146095506D01*
X122762500Y-146102991D01*
X122818252Y-146097500D01*
X123543397Y-146097500D01*
X123485498Y-146205820D01*
X123449188Y-146325518D01*
X123436928Y-146450000D01*
X123440000Y-146751750D01*
X123598750Y-146910500D01*
X124673000Y-146910500D01*
X124673000Y-146890500D01*
X124927000Y-146890500D01*
X124927000Y-146910500D01*
X126673000Y-146910500D01*
X126673000Y-146890500D01*
X126927000Y-146890500D01*
X126927000Y-146910500D01*
X128001250Y-146910500D01*
X128160000Y-146751750D01*
X128163072Y-146450000D01*
X128150812Y-146325518D01*
X128114502Y-146205820D01*
X128055537Y-146095506D01*
X127976185Y-145998815D01*
X127896406Y-145933342D01*
X127902962Y-145927962D01*
X128013405Y-145793386D01*
X128095472Y-145639850D01*
X128146008Y-145473254D01*
X128163072Y-145300000D01*
X128163072Y-144625000D01*
X128146008Y-144451746D01*
X128095472Y-144285150D01*
X128013405Y-144131614D01*
X127902962Y-143997038D01*
X127768386Y-143886595D01*
X127614850Y-143804528D01*
X127498371Y-143769195D01*
X127521831Y-143740608D01*
X127599278Y-143595716D01*
X127646969Y-143438500D01*
X127663072Y-143275000D01*
X127663072Y-142725000D01*
X127646969Y-142561500D01*
X127599278Y-142404284D01*
X127521831Y-142259392D01*
X127460000Y-142184051D01*
X127460000Y-141956437D01*
X127581623Y-141856623D01*
X127690512Y-141723942D01*
X127771423Y-141572567D01*
X127821248Y-141408316D01*
X127838072Y-141237500D01*
X127838072Y-140762500D01*
X127821248Y-140591684D01*
X127771423Y-140427433D01*
X127690512Y-140276058D01*
X127581623Y-140143377D01*
X127510000Y-140084597D01*
X127510000Y-139658568D01*
X127517973Y-139639319D01*
X127554282Y-139519623D01*
X127573404Y-139423490D01*
X127585664Y-139299009D01*
X127585664Y-139274450D01*
X127588072Y-139250000D01*
X127588072Y-138750000D01*
X127585664Y-138725550D01*
X127585664Y-138700991D01*
X127573404Y-138576510D01*
X127554282Y-138480377D01*
X127517973Y-138360681D01*
X127480464Y-138270125D01*
X127421498Y-138159808D01*
X127367042Y-138078309D01*
X127287690Y-137981618D01*
X127218382Y-137912310D01*
X127121691Y-137832958D01*
X127040192Y-137778502D01*
X126929875Y-137719536D01*
X126839319Y-137682027D01*
X126719623Y-137645718D01*
X126623490Y-137626596D01*
X126499009Y-137614336D01*
X126474450Y-137614336D01*
X126450000Y-137611928D01*
X125985000Y-137611928D01*
X125985000Y-137391007D01*
X125989039Y-137349999D01*
X125985000Y-137308991D01*
X125985000Y-137308981D01*
X125972918Y-137186311D01*
X125925172Y-137028913D01*
X125847636Y-136883854D01*
X125743291Y-136756709D01*
X125711426Y-136730558D01*
X125173764Y-136192897D01*
X125185000Y-136136411D01*
X125185000Y-135863589D01*
X125131775Y-135596011D01*
X125027371Y-135343957D01*
X124875799Y-135117114D01*
X124682886Y-134924201D01*
X124456043Y-134772629D01*
X124203989Y-134668225D01*
X123936411Y-134615000D01*
X123663589Y-134615000D01*
X123635000Y-134620687D01*
X123635000Y-134613285D01*
X123717205Y-134490256D01*
X123795226Y-134301898D01*
X123835000Y-134101939D01*
X123835000Y-133898061D01*
X123795226Y-133698102D01*
X123717205Y-133509744D01*
X123603937Y-133340226D01*
X123459774Y-133196063D01*
X123290256Y-133082795D01*
X123101898Y-133004774D01*
X122901939Y-132965000D01*
X122698061Y-132965000D01*
X122498102Y-133004774D01*
X122309744Y-133082795D01*
X122140226Y-133196063D01*
X121996063Y-133340226D01*
X121882795Y-133509744D01*
X121804774Y-133698102D01*
X121765000Y-133898061D01*
X121765000Y-134101939D01*
X121804774Y-134301898D01*
X121882795Y-134490256D01*
X121965001Y-134613286D01*
X121965001Y-134958972D01*
X121960960Y-135000000D01*
X121977082Y-135163688D01*
X122024828Y-135321086D01*
X122102364Y-135466145D01*
X122102365Y-135466146D01*
X122206710Y-135593291D01*
X122238574Y-135619441D01*
X122426236Y-135807103D01*
X122415000Y-135863589D01*
X122415000Y-136136411D01*
X122468225Y-136403989D01*
X122572629Y-136656043D01*
X122724201Y-136882886D01*
X122917114Y-137075799D01*
X123143957Y-137227371D01*
X123396011Y-137331775D01*
X123663589Y-137385000D01*
X123936411Y-137385000D01*
X123992897Y-137373764D01*
X124315001Y-137695869D01*
X124315001Y-137978927D01*
X124312310Y-137981618D01*
X124232958Y-138078309D01*
X124178502Y-138159808D01*
X124119536Y-138270125D01*
X124082027Y-138360681D01*
X124045718Y-138480377D01*
X124026596Y-138576510D01*
X124014336Y-138700991D01*
X124014336Y-138725550D01*
X124011928Y-138750000D01*
X124011928Y-139250000D01*
X124014336Y-139274450D01*
X124014336Y-139299009D01*
X124026596Y-139423490D01*
X124045718Y-139519623D01*
X124082027Y-139639319D01*
X124119536Y-139729875D01*
X124178502Y-139840192D01*
X124232958Y-139921691D01*
X124272331Y-139969667D01*
X124151058Y-140034488D01*
X124018377Y-140143377D01*
X123909488Y-140276058D01*
X123828577Y-140427433D01*
X123778752Y-140591684D01*
X123775955Y-140620087D01*
X122107085Y-138951218D01*
X122125812Y-138889482D01*
X122138072Y-138765000D01*
X122138072Y-136765000D01*
X122125812Y-136640518D01*
X122089502Y-136520820D01*
X122030537Y-136410506D01*
X121951185Y-136313815D01*
X121854494Y-136234463D01*
X121744180Y-136175498D01*
X121624482Y-136139188D01*
X121500000Y-136126928D01*
X119720000Y-136126928D01*
X119595518Y-136139188D01*
X119475820Y-136175498D01*
X119365506Y-136234463D01*
X119340000Y-136255395D01*
X119314494Y-136234463D01*
X119204180Y-136175498D01*
X119084482Y-136139188D01*
X118960000Y-136126928D01*
X117180000Y-136126928D01*
X117055518Y-136139188D01*
X116935820Y-136175498D01*
X116825506Y-136234463D01*
X116800000Y-136255395D01*
X116774494Y-136234463D01*
X116664180Y-136175498D01*
X116544482Y-136139188D01*
X116420000Y-136126928D01*
X114640000Y-136126928D01*
X114515518Y-136139188D01*
X114395820Y-136175498D01*
X114285506Y-136234463D01*
X114260000Y-136255395D01*
X114234494Y-136234463D01*
X114125000Y-136175936D01*
X114125000Y-135245752D01*
X114130491Y-135190000D01*
X114112920Y-135011595D01*
X114108577Y-134967501D01*
X114043676Y-134753553D01*
X113938284Y-134556377D01*
X113796449Y-134383551D01*
X113753139Y-134348007D01*
X113681613Y-134276482D01*
X113681612Y-134276480D01*
X113523520Y-134118388D01*
X113476921Y-134087251D01*
X113433622Y-134051717D01*
X113384224Y-134025313D01*
X113337624Y-133994176D01*
X113285845Y-133972728D01*
X113236446Y-133946324D01*
X113182845Y-133930064D01*
X113131067Y-133908617D01*
X113076103Y-133897684D01*
X113022498Y-133881423D01*
X112966748Y-133875932D01*
X112911788Y-133865000D01*
X112855751Y-133865000D01*
X112800000Y-133859509D01*
X112744249Y-133865000D01*
X112688212Y-133865000D01*
X112633252Y-133875932D01*
X112577502Y-133881423D01*
X112523897Y-133897684D01*
X112468933Y-133908617D01*
X112417155Y-133930064D01*
X112363554Y-133946324D01*
X112314155Y-133972728D01*
X112262376Y-133994176D01*
X112215776Y-134025313D01*
X112166378Y-134051717D01*
X112123080Y-134087251D01*
X112076480Y-134118388D01*
X112036849Y-134158019D01*
X111993552Y-134193552D01*
X111958019Y-134236849D01*
X111918388Y-134276480D01*
X111887251Y-134323080D01*
X111851717Y-134366378D01*
X111825313Y-134415776D01*
X111794176Y-134462376D01*
X111772728Y-134514155D01*
X111746324Y-134563554D01*
X111730064Y-134617155D01*
X111708617Y-134668933D01*
X111697684Y-134723897D01*
X111681423Y-134777502D01*
X111675932Y-134833252D01*
X111665000Y-134888212D01*
X111665000Y-134944249D01*
X111659509Y-135000000D01*
X111665000Y-135055751D01*
X111665000Y-135111788D01*
X111675932Y-135166748D01*
X111681423Y-135222498D01*
X111697684Y-135276103D01*
X111708617Y-135331067D01*
X111730064Y-135382845D01*
X111746324Y-135436446D01*
X111772728Y-135485845D01*
X111794176Y-135537624D01*
X111825313Y-135584224D01*
X111851717Y-135633622D01*
X111855001Y-135637623D01*
X111855001Y-136175936D01*
X111745506Y-136234463D01*
X111648815Y-136313815D01*
X111569463Y-136410506D01*
X111510498Y-136520820D01*
X111474188Y-136640518D01*
X111461928Y-136765000D01*
X111461928Y-137687941D01*
X111036860Y-138113009D01*
X110993552Y-138148551D01*
X110851717Y-138321377D01*
X110806106Y-138406710D01*
X110746324Y-138518554D01*
X110681423Y-138732502D01*
X110659509Y-138955000D01*
X110665001Y-139010761D01*
X110665000Y-140886780D01*
X110622038Y-140922038D01*
X110511595Y-141056614D01*
X110443036Y-141184879D01*
X110290256Y-141082795D01*
X110101898Y-141004774D01*
X109956776Y-140975908D01*
X109642796Y-140661928D01*
X108635000Y-139654133D01*
X108635000Y-130345867D01*
X108807103Y-130173764D01*
X108863589Y-130185000D01*
X109136411Y-130185000D01*
X109403989Y-130131775D01*
X109656043Y-130027371D01*
X109882886Y-129875799D01*
X110075799Y-129682886D01*
X110227371Y-129456043D01*
X110331775Y-129203989D01*
X110385000Y-128936411D01*
X110385000Y-128663589D01*
X110373764Y-128607104D01*
X111361433Y-127619436D01*
X111393291Y-127593291D01*
X111461928Y-127509656D01*
X111461928Y-129235000D01*
G04 #@! TA.AperFunction,Conductor*
D24*
G36*
X111461928Y-129235000D02*
G01*
X111474188Y-129359482D01*
X111510498Y-129479180D01*
X111569463Y-129589494D01*
X111648815Y-129686185D01*
X111745506Y-129765537D01*
X111855820Y-129824502D01*
X111975518Y-129860812D01*
X112100000Y-129873072D01*
X112189646Y-129873072D01*
X112214828Y-129956086D01*
X112292364Y-130101145D01*
X112396709Y-130228291D01*
X112428578Y-130254446D01*
X113735563Y-131561432D01*
X113761709Y-131593291D01*
X113793568Y-131619437D01*
X113793570Y-131619439D01*
X113825023Y-131645251D01*
X113888854Y-131697636D01*
X114033913Y-131775172D01*
X114191311Y-131822918D01*
X114313981Y-131835000D01*
X114313982Y-131835000D01*
X114355000Y-131839040D01*
X114396018Y-131835000D01*
X118758982Y-131835000D01*
X118800000Y-131839040D01*
X118841018Y-131835000D01*
X118841019Y-131835000D01*
X118963689Y-131822918D01*
X119121087Y-131775172D01*
X119266146Y-131697636D01*
X119393291Y-131593291D01*
X119419446Y-131561421D01*
X120800001Y-130180868D01*
X127180563Y-136561432D01*
X127206709Y-136593291D01*
X127250637Y-136629341D01*
X127311595Y-136743386D01*
X127422038Y-136877962D01*
X127556614Y-136988405D01*
X127710150Y-137070472D01*
X127876746Y-137121008D01*
X128050000Y-137138072D01*
X129140001Y-137138072D01*
X129140001Y-148967711D01*
X129130420Y-149065424D01*
X129111420Y-149128357D01*
X129080554Y-149186406D01*
X129039011Y-149237343D01*
X128988356Y-149279248D01*
X128930529Y-149310515D01*
X128867728Y-149329956D01*
X128772165Y-149340000D01*
X110065132Y-149340000D01*
X110428073Y-148977060D01*
X110469463Y-149054494D01*
X110548815Y-149151185D01*
X110645506Y-149230537D01*
X110755820Y-149289502D01*
X110875518Y-149325812D01*
X111000000Y-149338072D01*
X111514250Y-149335000D01*
X111673000Y-149176250D01*
X111673000Y-147327000D01*
X111927000Y-147327000D01*
X111927000Y-149176250D01*
X112085750Y-149335000D01*
X112600000Y-149338072D01*
X112724482Y-149325812D01*
X112844180Y-149289502D01*
X112954494Y-149230537D01*
X113051185Y-149151185D01*
X113130537Y-149054494D01*
X113189502Y-148944180D01*
X113225812Y-148824482D01*
X113238072Y-148700000D01*
X117361928Y-148700000D01*
X117374188Y-148824482D01*
X117410498Y-148944180D01*
X117469463Y-149054494D01*
X117548815Y-149151185D01*
X117645506Y-149230537D01*
X117755820Y-149289502D01*
X117875518Y-149325812D01*
X118000000Y-149338072D01*
X118514250Y-149335000D01*
X118673000Y-149176250D01*
X118673000Y-147327000D01*
X118927000Y-147327000D01*
X118927000Y-149176250D01*
X119085750Y-149335000D01*
X119600000Y-149338072D01*
X119724482Y-149325812D01*
X119844180Y-149289502D01*
X119954494Y-149230537D01*
X120051185Y-149151185D01*
X120130537Y-149054494D01*
X120189502Y-148944180D01*
X120225812Y-148824482D01*
X120238072Y-148700000D01*
X120235353Y-147625000D01*
X123436928Y-147625000D01*
X123449188Y-147749482D01*
X123485498Y-147869180D01*
X123544463Y-147979494D01*
X123623815Y-148076185D01*
X123720506Y-148155537D01*
X123830820Y-148214502D01*
X123950518Y-148250812D01*
X124075000Y-148263072D01*
X124514250Y-148260000D01*
X124673000Y-148101250D01*
X124673000Y-147164500D01*
X124927000Y-147164500D01*
X124927000Y-148101250D01*
X125085750Y-148260000D01*
X125525000Y-148263072D01*
X125649482Y-148250812D01*
X125769180Y-148214502D01*
X125800000Y-148198028D01*
X125830820Y-148214502D01*
X125950518Y-148250812D01*
X126075000Y-148263072D01*
X126514250Y-148260000D01*
X126673000Y-148101250D01*
X126673000Y-147164500D01*
X126927000Y-147164500D01*
X126927000Y-148101250D01*
X127085750Y-148260000D01*
X127525000Y-148263072D01*
X127649482Y-148250812D01*
X127769180Y-148214502D01*
X127879494Y-148155537D01*
X127976185Y-148076185D01*
X128055537Y-147979494D01*
X128114502Y-147869180D01*
X128150812Y-147749482D01*
X128163072Y-147625000D01*
X128160000Y-147323250D01*
X128001250Y-147164500D01*
X126927000Y-147164500D01*
X126673000Y-147164500D01*
X124927000Y-147164500D01*
X124673000Y-147164500D01*
X123598750Y-147164500D01*
X123440000Y-147323250D01*
X123436928Y-147625000D01*
X120235353Y-147625000D01*
X120235000Y-147485750D01*
X120076250Y-147327000D01*
X118927000Y-147327000D01*
X118673000Y-147327000D01*
X117523750Y-147327000D01*
X117365000Y-147485750D01*
X117361928Y-148700000D01*
X113238072Y-148700000D01*
X113235000Y-147485750D01*
X113076250Y-147327000D01*
X111927000Y-147327000D01*
X111673000Y-147327000D01*
X111653000Y-147327000D01*
X111653000Y-147073000D01*
X111673000Y-147073000D01*
X111673000Y-145223750D01*
X111927000Y-145223750D01*
X111927000Y-147073000D01*
X113076250Y-147073000D01*
X113235000Y-146914250D01*
X113238072Y-145700000D01*
X117361928Y-145700000D01*
X117365000Y-146914250D01*
X117523750Y-147073000D01*
X118673000Y-147073000D01*
X118673000Y-145223750D01*
X118927000Y-145223750D01*
X118927000Y-147073000D01*
X120076250Y-147073000D01*
X120235000Y-146914250D01*
X120238072Y-145700000D01*
X120225812Y-145575518D01*
X120189502Y-145455820D01*
X120130537Y-145345506D01*
X120051185Y-145248815D01*
X119954494Y-145169463D01*
X119844180Y-145110498D01*
X119724482Y-145074188D01*
X119600000Y-145061928D01*
X119085750Y-145065000D01*
X118927000Y-145223750D01*
X118673000Y-145223750D01*
X118514250Y-145065000D01*
X118000000Y-145061928D01*
X117875518Y-145074188D01*
X117755820Y-145110498D01*
X117645506Y-145169463D01*
X117548815Y-145248815D01*
X117469463Y-145345506D01*
X117410498Y-145455820D01*
X117374188Y-145575518D01*
X117361928Y-145700000D01*
X113238072Y-145700000D01*
X113225812Y-145575518D01*
X113189502Y-145455820D01*
X113130537Y-145345506D01*
X113051185Y-145248815D01*
X112954494Y-145169463D01*
X112844180Y-145110498D01*
X112724482Y-145074188D01*
X112600000Y-145061928D01*
X112085750Y-145065000D01*
X111927000Y-145223750D01*
X111673000Y-145223750D01*
X111514250Y-145065000D01*
X111142353Y-145062778D01*
X111267059Y-144938072D01*
X112350000Y-144938072D01*
X112523254Y-144921008D01*
X112689850Y-144870472D01*
X112843386Y-144788405D01*
X112977962Y-144677962D01*
X113088405Y-144543386D01*
X113170472Y-144389850D01*
X113221008Y-144223254D01*
X113238072Y-144050000D01*
X113238072Y-143935000D01*
X117361928Y-143935000D01*
X117361928Y-144050000D01*
X117378992Y-144223254D01*
X117429528Y-144389850D01*
X117511595Y-144543386D01*
X117622038Y-144677962D01*
X117756614Y-144788405D01*
X117910150Y-144870472D01*
X118076746Y-144921008D01*
X118250000Y-144938072D01*
X119350000Y-144938072D01*
X119523254Y-144921008D01*
X119689850Y-144870472D01*
X119843386Y-144788405D01*
X119977962Y-144677962D01*
X120088405Y-144543386D01*
X120170472Y-144389850D01*
X120221008Y-144223254D01*
X120238072Y-144050000D01*
X120238072Y-144043203D01*
X121920509Y-145725641D01*
X121956051Y-145768949D01*
X122128877Y-145910784D01*
X122326053Y-146016176D01*
X122540001Y-146081077D01*
X122686503Y-146095506D01*
X122762500Y-146102991D01*
X122818252Y-146097500D01*
X123543397Y-146097500D01*
X123485498Y-146205820D01*
X123449188Y-146325518D01*
X123436928Y-146450000D01*
X123440000Y-146751750D01*
X123598750Y-146910500D01*
X124673000Y-146910500D01*
X124673000Y-146890500D01*
X124927000Y-146890500D01*
X124927000Y-146910500D01*
X126673000Y-146910500D01*
X126673000Y-146890500D01*
X126927000Y-146890500D01*
X126927000Y-146910500D01*
X128001250Y-146910500D01*
X128160000Y-146751750D01*
X128163072Y-146450000D01*
X128150812Y-146325518D01*
X128114502Y-146205820D01*
X128055537Y-146095506D01*
X127976185Y-145998815D01*
X127896406Y-145933342D01*
X127902962Y-145927962D01*
X128013405Y-145793386D01*
X128095472Y-145639850D01*
X128146008Y-145473254D01*
X128163072Y-145300000D01*
X128163072Y-144625000D01*
X128146008Y-144451746D01*
X128095472Y-144285150D01*
X128013405Y-144131614D01*
X127902962Y-143997038D01*
X127768386Y-143886595D01*
X127614850Y-143804528D01*
X127498371Y-143769195D01*
X127521831Y-143740608D01*
X127599278Y-143595716D01*
X127646969Y-143438500D01*
X127663072Y-143275000D01*
X127663072Y-142725000D01*
X127646969Y-142561500D01*
X127599278Y-142404284D01*
X127521831Y-142259392D01*
X127460000Y-142184051D01*
X127460000Y-141956437D01*
X127581623Y-141856623D01*
X127690512Y-141723942D01*
X127771423Y-141572567D01*
X127821248Y-141408316D01*
X127838072Y-141237500D01*
X127838072Y-140762500D01*
X127821248Y-140591684D01*
X127771423Y-140427433D01*
X127690512Y-140276058D01*
X127581623Y-140143377D01*
X127510000Y-140084597D01*
X127510000Y-139658568D01*
X127517973Y-139639319D01*
X127554282Y-139519623D01*
X127573404Y-139423490D01*
X127585664Y-139299009D01*
X127585664Y-139274450D01*
X127588072Y-139250000D01*
X127588072Y-138750000D01*
X127585664Y-138725550D01*
X127585664Y-138700991D01*
X127573404Y-138576510D01*
X127554282Y-138480377D01*
X127517973Y-138360681D01*
X127480464Y-138270125D01*
X127421498Y-138159808D01*
X127367042Y-138078309D01*
X127287690Y-137981618D01*
X127218382Y-137912310D01*
X127121691Y-137832958D01*
X127040192Y-137778502D01*
X126929875Y-137719536D01*
X126839319Y-137682027D01*
X126719623Y-137645718D01*
X126623490Y-137626596D01*
X126499009Y-137614336D01*
X126474450Y-137614336D01*
X126450000Y-137611928D01*
X125985000Y-137611928D01*
X125985000Y-137391007D01*
X125989039Y-137349999D01*
X125985000Y-137308991D01*
X125985000Y-137308981D01*
X125972918Y-137186311D01*
X125925172Y-137028913D01*
X125847636Y-136883854D01*
X125743291Y-136756709D01*
X125711426Y-136730558D01*
X125173764Y-136192897D01*
X125185000Y-136136411D01*
X125185000Y-135863589D01*
X125131775Y-135596011D01*
X125027371Y-135343957D01*
X124875799Y-135117114D01*
X124682886Y-134924201D01*
X124456043Y-134772629D01*
X124203989Y-134668225D01*
X123936411Y-134615000D01*
X123663589Y-134615000D01*
X123635000Y-134620687D01*
X123635000Y-134613285D01*
X123717205Y-134490256D01*
X123795226Y-134301898D01*
X123835000Y-134101939D01*
X123835000Y-133898061D01*
X123795226Y-133698102D01*
X123717205Y-133509744D01*
X123603937Y-133340226D01*
X123459774Y-133196063D01*
X123290256Y-133082795D01*
X123101898Y-133004774D01*
X122901939Y-132965000D01*
X122698061Y-132965000D01*
X122498102Y-133004774D01*
X122309744Y-133082795D01*
X122140226Y-133196063D01*
X121996063Y-133340226D01*
X121882795Y-133509744D01*
X121804774Y-133698102D01*
X121765000Y-133898061D01*
X121765000Y-134101939D01*
X121804774Y-134301898D01*
X121882795Y-134490256D01*
X121965001Y-134613286D01*
X121965001Y-134958972D01*
X121960960Y-135000000D01*
X121977082Y-135163688D01*
X122024828Y-135321086D01*
X122102364Y-135466145D01*
X122102365Y-135466146D01*
X122206710Y-135593291D01*
X122238574Y-135619441D01*
X122426236Y-135807103D01*
X122415000Y-135863589D01*
X122415000Y-136136411D01*
X122468225Y-136403989D01*
X122572629Y-136656043D01*
X122724201Y-136882886D01*
X122917114Y-137075799D01*
X123143957Y-137227371D01*
X123396011Y-137331775D01*
X123663589Y-137385000D01*
X123936411Y-137385000D01*
X123992897Y-137373764D01*
X124315001Y-137695869D01*
X124315001Y-137978927D01*
X124312310Y-137981618D01*
X124232958Y-138078309D01*
X124178502Y-138159808D01*
X124119536Y-138270125D01*
X124082027Y-138360681D01*
X124045718Y-138480377D01*
X124026596Y-138576510D01*
X124014336Y-138700991D01*
X124014336Y-138725550D01*
X124011928Y-138750000D01*
X124011928Y-139250000D01*
X124014336Y-139274450D01*
X124014336Y-139299009D01*
X124026596Y-139423490D01*
X124045718Y-139519623D01*
X124082027Y-139639319D01*
X124119536Y-139729875D01*
X124178502Y-139840192D01*
X124232958Y-139921691D01*
X124272331Y-139969667D01*
X124151058Y-140034488D01*
X124018377Y-140143377D01*
X123909488Y-140276058D01*
X123828577Y-140427433D01*
X123778752Y-140591684D01*
X123775955Y-140620087D01*
X122107085Y-138951218D01*
X122125812Y-138889482D01*
X122138072Y-138765000D01*
X122138072Y-136765000D01*
X122125812Y-136640518D01*
X122089502Y-136520820D01*
X122030537Y-136410506D01*
X121951185Y-136313815D01*
X121854494Y-136234463D01*
X121744180Y-136175498D01*
X121624482Y-136139188D01*
X121500000Y-136126928D01*
X119720000Y-136126928D01*
X119595518Y-136139188D01*
X119475820Y-136175498D01*
X119365506Y-136234463D01*
X119340000Y-136255395D01*
X119314494Y-136234463D01*
X119204180Y-136175498D01*
X119084482Y-136139188D01*
X118960000Y-136126928D01*
X117180000Y-136126928D01*
X117055518Y-136139188D01*
X116935820Y-136175498D01*
X116825506Y-136234463D01*
X116800000Y-136255395D01*
X116774494Y-136234463D01*
X116664180Y-136175498D01*
X116544482Y-136139188D01*
X116420000Y-136126928D01*
X114640000Y-136126928D01*
X114515518Y-136139188D01*
X114395820Y-136175498D01*
X114285506Y-136234463D01*
X114260000Y-136255395D01*
X114234494Y-136234463D01*
X114125000Y-136175936D01*
X114125000Y-135245752D01*
X114130491Y-135190000D01*
X114112920Y-135011595D01*
X114108577Y-134967501D01*
X114043676Y-134753553D01*
X113938284Y-134556377D01*
X113796449Y-134383551D01*
X113753139Y-134348007D01*
X113681613Y-134276482D01*
X113681612Y-134276480D01*
X113523520Y-134118388D01*
X113476921Y-134087251D01*
X113433622Y-134051717D01*
X113384224Y-134025313D01*
X113337624Y-133994176D01*
X113285845Y-133972728D01*
X113236446Y-133946324D01*
X113182845Y-133930064D01*
X113131067Y-133908617D01*
X113076103Y-133897684D01*
X113022498Y-133881423D01*
X112966748Y-133875932D01*
X112911788Y-133865000D01*
X112855751Y-133865000D01*
X112800000Y-133859509D01*
X112744249Y-133865000D01*
X112688212Y-133865000D01*
X112633252Y-133875932D01*
X112577502Y-133881423D01*
X112523897Y-133897684D01*
X112468933Y-133908617D01*
X112417155Y-133930064D01*
X112363554Y-133946324D01*
X112314155Y-133972728D01*
X112262376Y-133994176D01*
X112215776Y-134025313D01*
X112166378Y-134051717D01*
X112123080Y-134087251D01*
X112076480Y-134118388D01*
X112036849Y-134158019D01*
X111993552Y-134193552D01*
X111958019Y-134236849D01*
X111918388Y-134276480D01*
X111887251Y-134323080D01*
X111851717Y-134366378D01*
X111825313Y-134415776D01*
X111794176Y-134462376D01*
X111772728Y-134514155D01*
X111746324Y-134563554D01*
X111730064Y-134617155D01*
X111708617Y-134668933D01*
X111697684Y-134723897D01*
X111681423Y-134777502D01*
X111675932Y-134833252D01*
X111665000Y-134888212D01*
X111665000Y-134944249D01*
X111659509Y-135000000D01*
X111665000Y-135055751D01*
X111665000Y-135111788D01*
X111675932Y-135166748D01*
X111681423Y-135222498D01*
X111697684Y-135276103D01*
X111708617Y-135331067D01*
X111730064Y-135382845D01*
X111746324Y-135436446D01*
X111772728Y-135485845D01*
X111794176Y-135537624D01*
X111825313Y-135584224D01*
X111851717Y-135633622D01*
X111855001Y-135637623D01*
X111855001Y-136175936D01*
X111745506Y-136234463D01*
X111648815Y-136313815D01*
X111569463Y-136410506D01*
X111510498Y-136520820D01*
X111474188Y-136640518D01*
X111461928Y-136765000D01*
X111461928Y-137687941D01*
X111036860Y-138113009D01*
X110993552Y-138148551D01*
X110851717Y-138321377D01*
X110806106Y-138406710D01*
X110746324Y-138518554D01*
X110681423Y-138732502D01*
X110659509Y-138955000D01*
X110665001Y-139010761D01*
X110665000Y-140886780D01*
X110622038Y-140922038D01*
X110511595Y-141056614D01*
X110443036Y-141184879D01*
X110290256Y-141082795D01*
X110101898Y-141004774D01*
X109956776Y-140975908D01*
X109642796Y-140661928D01*
X108635000Y-139654133D01*
X108635000Y-130345867D01*
X108807103Y-130173764D01*
X108863589Y-130185000D01*
X109136411Y-130185000D01*
X109403989Y-130131775D01*
X109656043Y-130027371D01*
X109882886Y-129875799D01*
X110075799Y-129682886D01*
X110227371Y-129456043D01*
X110331775Y-129203989D01*
X110385000Y-128936411D01*
X110385000Y-128663589D01*
X110373764Y-128607104D01*
X111361433Y-127619436D01*
X111393291Y-127593291D01*
X111461928Y-127509656D01*
X111461928Y-129235000D01*
G37*
G04 #@! TD.AperFunction*
D23*
X106665001Y-143470133D02*
X106665000Y-144273602D01*
X106629494Y-144244463D01*
X106519180Y-144185498D01*
X106399482Y-144149188D01*
X106275000Y-144136928D01*
X106085750Y-144140000D01*
X105927000Y-144298750D01*
X105927000Y-145048000D01*
X105947000Y-145048000D01*
X105947000Y-145302000D01*
X105927000Y-145302000D01*
X105927000Y-145322000D01*
X105673000Y-145322000D01*
X105673000Y-145302000D01*
X105653000Y-145302000D01*
X105653000Y-145048000D01*
X105673000Y-145048000D01*
X105673000Y-144298750D01*
X105514250Y-144140000D01*
X105325000Y-144136928D01*
X105261999Y-144143133D01*
X105563145Y-143841987D01*
X105606449Y-143806449D01*
X105649500Y-143753992D01*
X105748284Y-143633623D01*
X105853676Y-143436447D01*
X105918577Y-143222499D01*
X105922504Y-143182628D01*
X106120132Y-142985000D01*
X106179868Y-142985000D01*
X106665001Y-143470133D01*
G04 #@! TA.AperFunction,Conductor*
D24*
G36*
X106665001Y-143470133D02*
G01*
X106665000Y-144273602D01*
X106629494Y-144244463D01*
X106519180Y-144185498D01*
X106399482Y-144149188D01*
X106275000Y-144136928D01*
X106085750Y-144140000D01*
X105927000Y-144298750D01*
X105927000Y-145048000D01*
X105947000Y-145048000D01*
X105947000Y-145302000D01*
X105927000Y-145302000D01*
X105927000Y-145322000D01*
X105673000Y-145322000D01*
X105673000Y-145302000D01*
X105653000Y-145302000D01*
X105653000Y-145048000D01*
X105673000Y-145048000D01*
X105673000Y-144298750D01*
X105514250Y-144140000D01*
X105325000Y-144136928D01*
X105261999Y-144143133D01*
X105563145Y-143841987D01*
X105606449Y-143806449D01*
X105649500Y-143753992D01*
X105748284Y-143633623D01*
X105853676Y-143436447D01*
X105918577Y-143222499D01*
X105922504Y-143182628D01*
X106120132Y-142985000D01*
X106179868Y-142985000D01*
X106665001Y-143470133D01*
G37*
G04 #@! TD.AperFunction*
D23*
X119365506Y-139295537D02*
X119475820Y-139354502D01*
X119595518Y-139390812D01*
X119720000Y-139403072D01*
X120197205Y-139403072D01*
X123936928Y-143142796D01*
X123936928Y-143275000D01*
X123953031Y-143438500D01*
X124000722Y-143595716D01*
X124078169Y-143740608D01*
X124101629Y-143769195D01*
X123985150Y-143804528D01*
X123942173Y-143827500D01*
X123232632Y-143827500D01*
X121441996Y-142036865D01*
X121406449Y-141993551D01*
X121233623Y-141851716D01*
X121036447Y-141746324D01*
X120822499Y-141681423D01*
X120655752Y-141665000D01*
X120655751Y-141665000D01*
X120600000Y-141659509D01*
X120544249Y-141665000D01*
X120238072Y-141665000D01*
X120238072Y-141550000D01*
X120221008Y-141376746D01*
X120170472Y-141210150D01*
X120088405Y-141056614D01*
X119977962Y-140922038D01*
X119843386Y-140811595D01*
X119689850Y-140729528D01*
X119523254Y-140678992D01*
X119350000Y-140661928D01*
X118250000Y-140661928D01*
X118076746Y-140678992D01*
X117910150Y-140729528D01*
X117756614Y-140811595D01*
X117622038Y-140922038D01*
X117511595Y-141056614D01*
X117429528Y-141210150D01*
X117378992Y-141376746D01*
X117361928Y-141550000D01*
X117361928Y-141665000D01*
X113238072Y-141665000D01*
X113238072Y-141550000D01*
X113221008Y-141376746D01*
X113170472Y-141210150D01*
X113088405Y-141056614D01*
X112977962Y-140922038D01*
X112935000Y-140886780D01*
X112935000Y-139425131D01*
X112957059Y-139403072D01*
X113880000Y-139403072D01*
X114004482Y-139390812D01*
X114124180Y-139354502D01*
X114234494Y-139295537D01*
X114260000Y-139274605D01*
X114285506Y-139295537D01*
X114395820Y-139354502D01*
X114515518Y-139390812D01*
X114640000Y-139403072D01*
X116420000Y-139403072D01*
X116544482Y-139390812D01*
X116664180Y-139354502D01*
X116774494Y-139295537D01*
X116800000Y-139274605D01*
X116825506Y-139295537D01*
X116935820Y-139354502D01*
X117055518Y-139390812D01*
X117180000Y-139403072D01*
X118960000Y-139403072D01*
X119084482Y-139390812D01*
X119204180Y-139354502D01*
X119314494Y-139295537D01*
X119340000Y-139274605D01*
X119365506Y-139295537D01*
G04 #@! TA.AperFunction,Conductor*
D24*
G36*
X119365506Y-139295537D02*
G01*
X119475820Y-139354502D01*
X119595518Y-139390812D01*
X119720000Y-139403072D01*
X120197205Y-139403072D01*
X123936928Y-143142796D01*
X123936928Y-143275000D01*
X123953031Y-143438500D01*
X124000722Y-143595716D01*
X124078169Y-143740608D01*
X124101629Y-143769195D01*
X123985150Y-143804528D01*
X123942173Y-143827500D01*
X123232632Y-143827500D01*
X121441996Y-142036865D01*
X121406449Y-141993551D01*
X121233623Y-141851716D01*
X121036447Y-141746324D01*
X120822499Y-141681423D01*
X120655752Y-141665000D01*
X120655751Y-141665000D01*
X120600000Y-141659509D01*
X120544249Y-141665000D01*
X120238072Y-141665000D01*
X120238072Y-141550000D01*
X120221008Y-141376746D01*
X120170472Y-141210150D01*
X120088405Y-141056614D01*
X119977962Y-140922038D01*
X119843386Y-140811595D01*
X119689850Y-140729528D01*
X119523254Y-140678992D01*
X119350000Y-140661928D01*
X118250000Y-140661928D01*
X118076746Y-140678992D01*
X117910150Y-140729528D01*
X117756614Y-140811595D01*
X117622038Y-140922038D01*
X117511595Y-141056614D01*
X117429528Y-141210150D01*
X117378992Y-141376746D01*
X117361928Y-141550000D01*
X117361928Y-141665000D01*
X113238072Y-141665000D01*
X113238072Y-141550000D01*
X113221008Y-141376746D01*
X113170472Y-141210150D01*
X113088405Y-141056614D01*
X112977962Y-140922038D01*
X112935000Y-140886780D01*
X112935000Y-139425131D01*
X112957059Y-139403072D01*
X113880000Y-139403072D01*
X114004482Y-139390812D01*
X114124180Y-139354502D01*
X114234494Y-139295537D01*
X114260000Y-139274605D01*
X114285506Y-139295537D01*
X114395820Y-139354502D01*
X114515518Y-139390812D01*
X114640000Y-139403072D01*
X116420000Y-139403072D01*
X116544482Y-139390812D01*
X116664180Y-139354502D01*
X116774494Y-139295537D01*
X116800000Y-139274605D01*
X116825506Y-139295537D01*
X116935820Y-139354502D01*
X117055518Y-139390812D01*
X117180000Y-139403072D01*
X118960000Y-139403072D01*
X119084482Y-139390812D01*
X119204180Y-139354502D01*
X119314494Y-139295537D01*
X119340000Y-139274605D01*
X119365506Y-139295537D01*
G37*
G04 #@! TD.AperFunction*
M02*
