G04 #@! TF.GenerationSoftware,KiCad,Pcbnew,5.1.10*
G04 #@! TF.CreationDate,2021-09-07T22:45:51+08:00*
G04 #@! TF.ProjectId,nypx06,6e797078-3036-42e6-9b69-6361645f7063,rev?*
G04 #@! TF.SameCoordinates,Original*
G04 #@! TF.FileFunction,Soldermask,Top*
G04 #@! TF.FilePolarity,Negative*
%FSLAX46Y46*%
G04 Gerber Fmt 4.6, Leading zero omitted, Abs format (unit mm)*
G04 Created by KiCad (PCBNEW 5.1.10) date 2021-09-07 22:45:51*
%MOMM*%
%LPD*%
G01*
G04 APERTURE LIST*
%ADD10C,1.100000*%
%ADD11O,3.500000X1.900000*%
%ADD12R,2.500000X1.100000*%
%ADD13R,1.780000X2.000000*%
%ADD14R,0.650000X1.060000*%
%ADD15C,1.500000*%
%ADD16C,0.100000*%
%ADD17O,1.700000X1.700000*%
%ADD18R,1.700000X1.700000*%
G04 APERTURE END LIST*
G36*
G01*
X122037500Y-123175000D02*
X121562500Y-123175000D01*
G75*
G02*
X121325000Y-122937500I0J237500D01*
G01*
X121325000Y-122337500D01*
G75*
G02*
X121562500Y-122100000I237500J0D01*
G01*
X122037500Y-122100000D01*
G75*
G02*
X122275000Y-122337500I0J-237500D01*
G01*
X122275000Y-122937500D01*
G75*
G02*
X122037500Y-123175000I-237500J0D01*
G01*
G37*
G36*
G01*
X122037500Y-124900000D02*
X121562500Y-124900000D01*
G75*
G02*
X121325000Y-124662500I0J237500D01*
G01*
X121325000Y-124062500D01*
G75*
G02*
X121562500Y-123825000I237500J0D01*
G01*
X122037500Y-123825000D01*
G75*
G02*
X122275000Y-124062500I0J-237500D01*
G01*
X122275000Y-124662500D01*
G75*
G02*
X122037500Y-124900000I-237500J0D01*
G01*
G37*
D10*
X102900000Y-132700000D03*
X102900000Y-137300000D03*
D11*
X102900000Y-129300000D03*
X102900000Y-140700000D03*
D12*
X105650000Y-131500000D03*
X105650000Y-138500000D03*
X105650000Y-134000000D03*
X105650000Y-136000000D03*
D13*
X112990000Y-128235000D03*
X120610000Y-137765000D03*
X115530000Y-128235000D03*
X118070000Y-137765000D03*
X118070000Y-128235000D03*
X115530000Y-137765000D03*
X120610000Y-128235000D03*
X112990000Y-137765000D03*
D14*
X117800000Y-124100000D03*
X118750000Y-124100000D03*
X116850000Y-124100000D03*
X116850000Y-121900000D03*
X117800000Y-121900000D03*
X118750000Y-121900000D03*
D15*
X123800000Y-136000000D03*
X101800000Y-125000000D03*
X109000000Y-128800000D03*
G36*
G01*
X106075000Y-145575000D02*
X105525000Y-145575000D01*
G75*
G02*
X105325000Y-145375000I0J200000D01*
G01*
X105325000Y-144975000D01*
G75*
G02*
X105525000Y-144775000I200000J0D01*
G01*
X106075000Y-144775000D01*
G75*
G02*
X106275000Y-144975000I0J-200000D01*
G01*
X106275000Y-145375000D01*
G75*
G02*
X106075000Y-145575000I-200000J0D01*
G01*
G37*
G36*
G01*
X106075000Y-147225000D02*
X105525000Y-147225000D01*
G75*
G02*
X105325000Y-147025000I0J200000D01*
G01*
X105325000Y-146625000D01*
G75*
G02*
X105525000Y-146425000I200000J0D01*
G01*
X106075000Y-146425000D01*
G75*
G02*
X106275000Y-146625000I0J-200000D01*
G01*
X106275000Y-147025000D01*
G75*
G02*
X106075000Y-147225000I-200000J0D01*
G01*
G37*
G36*
G01*
X126225000Y-143275000D02*
X126225000Y-142725000D01*
G75*
G02*
X126425000Y-142525000I200000J0D01*
G01*
X126825000Y-142525000D01*
G75*
G02*
X127025000Y-142725000I0J-200000D01*
G01*
X127025000Y-143275000D01*
G75*
G02*
X126825000Y-143475000I-200000J0D01*
G01*
X126425000Y-143475000D01*
G75*
G02*
X126225000Y-143275000I0J200000D01*
G01*
G37*
G36*
G01*
X124575000Y-143275000D02*
X124575000Y-142725000D01*
G75*
G02*
X124775000Y-142525000I200000J0D01*
G01*
X125175000Y-142525000D01*
G75*
G02*
X125375000Y-142725000I0J-200000D01*
G01*
X125375000Y-143275000D01*
G75*
G02*
X125175000Y-143475000I-200000J0D01*
G01*
X124775000Y-143475000D01*
G75*
G02*
X124575000Y-143275000I0J200000D01*
G01*
G37*
G36*
G01*
X103525000Y-146425000D02*
X104075000Y-146425000D01*
G75*
G02*
X104275000Y-146625000I0J-200000D01*
G01*
X104275000Y-147025000D01*
G75*
G02*
X104075000Y-147225000I-200000J0D01*
G01*
X103525000Y-147225000D01*
G75*
G02*
X103325000Y-147025000I0J200000D01*
G01*
X103325000Y-146625000D01*
G75*
G02*
X103525000Y-146425000I200000J0D01*
G01*
G37*
G36*
G01*
X103525000Y-144775000D02*
X104075000Y-144775000D01*
G75*
G02*
X104275000Y-144975000I0J-200000D01*
G01*
X104275000Y-145375000D01*
G75*
G02*
X104075000Y-145575000I-200000J0D01*
G01*
X103525000Y-145575000D01*
G75*
G02*
X103325000Y-145375000I0J200000D01*
G01*
X103325000Y-144975000D01*
G75*
G02*
X103525000Y-144775000I200000J0D01*
G01*
G37*
D16*
G36*
X125950000Y-138250000D02*
G01*
X126450000Y-138250000D01*
X126450000Y-138250602D01*
X126474534Y-138250602D01*
X126523365Y-138255412D01*
X126571490Y-138264984D01*
X126618445Y-138279228D01*
X126663778Y-138298005D01*
X126707051Y-138321136D01*
X126747850Y-138348396D01*
X126785779Y-138379524D01*
X126820476Y-138414221D01*
X126851604Y-138452150D01*
X126878864Y-138492949D01*
X126901995Y-138536222D01*
X126920772Y-138581555D01*
X126935016Y-138628510D01*
X126944588Y-138676635D01*
X126949398Y-138725466D01*
X126949398Y-138750000D01*
X126950000Y-138750000D01*
X126950000Y-139250000D01*
X126949398Y-139250000D01*
X126949398Y-139274534D01*
X126944588Y-139323365D01*
X126935016Y-139371490D01*
X126920772Y-139418445D01*
X126901995Y-139463778D01*
X126878864Y-139507051D01*
X126851604Y-139547850D01*
X126820476Y-139585779D01*
X126785779Y-139620476D01*
X126747850Y-139651604D01*
X126707051Y-139678864D01*
X126663778Y-139701995D01*
X126618445Y-139720772D01*
X126571490Y-139735016D01*
X126523365Y-139744588D01*
X126474534Y-139749398D01*
X126450000Y-139749398D01*
X126450000Y-139750000D01*
X125950000Y-139750000D01*
X125950000Y-138250000D01*
G37*
G36*
X125150000Y-139749398D02*
G01*
X125125466Y-139749398D01*
X125076635Y-139744588D01*
X125028510Y-139735016D01*
X124981555Y-139720772D01*
X124936222Y-139701995D01*
X124892949Y-139678864D01*
X124852150Y-139651604D01*
X124814221Y-139620476D01*
X124779524Y-139585779D01*
X124748396Y-139547850D01*
X124721136Y-139507051D01*
X124698005Y-139463778D01*
X124679228Y-139418445D01*
X124664984Y-139371490D01*
X124655412Y-139323365D01*
X124650602Y-139274534D01*
X124650602Y-139250000D01*
X124650000Y-139250000D01*
X124650000Y-138750000D01*
X124650602Y-138750000D01*
X124650602Y-138725466D01*
X124655412Y-138676635D01*
X124664984Y-138628510D01*
X124679228Y-138581555D01*
X124698005Y-138536222D01*
X124721136Y-138492949D01*
X124748396Y-138452150D01*
X124779524Y-138414221D01*
X124814221Y-138379524D01*
X124852150Y-138348396D01*
X124892949Y-138321136D01*
X124936222Y-138298005D01*
X124981555Y-138279228D01*
X125028510Y-138264984D01*
X125076635Y-138255412D01*
X125125466Y-138250602D01*
X125150000Y-138250602D01*
X125150000Y-138250000D01*
X125650000Y-138250000D01*
X125650000Y-139750000D01*
X125150000Y-139750000D01*
X125150000Y-139749398D01*
G37*
G36*
G01*
X129550000Y-136500000D02*
X128050000Y-136500000D01*
G75*
G02*
X127800000Y-136250000I0J250000D01*
G01*
X127800000Y-135750000D01*
G75*
G02*
X128050000Y-135500000I250000J0D01*
G01*
X129550000Y-135500000D01*
G75*
G02*
X129800000Y-135750000I0J-250000D01*
G01*
X129800000Y-136250000D01*
G75*
G02*
X129550000Y-136500000I-250000J0D01*
G01*
G37*
G36*
G01*
X129550000Y-134500000D02*
X128050000Y-134500000D01*
G75*
G02*
X127800000Y-134250000I0J250000D01*
G01*
X127800000Y-133750000D01*
G75*
G02*
X128050000Y-133500000I250000J0D01*
G01*
X129550000Y-133500000D01*
G75*
G02*
X129800000Y-133750000I0J-250000D01*
G01*
X129800000Y-134250000D01*
G75*
G02*
X129550000Y-134500000I-250000J0D01*
G01*
G37*
D17*
X113340000Y-123000000D03*
X110800000Y-123000000D03*
X108260000Y-123000000D03*
D18*
X105720000Y-123000000D03*
G36*
G01*
X126150000Y-141237500D02*
X126150000Y-140762500D01*
G75*
G02*
X126387500Y-140525000I237500J0D01*
G01*
X126962500Y-140525000D01*
G75*
G02*
X127200000Y-140762500I0J-237500D01*
G01*
X127200000Y-141237500D01*
G75*
G02*
X126962500Y-141475000I-237500J0D01*
G01*
X126387500Y-141475000D01*
G75*
G02*
X126150000Y-141237500I0J237500D01*
G01*
G37*
G36*
G01*
X124400000Y-141237500D02*
X124400000Y-140762500D01*
G75*
G02*
X124637500Y-140525000I237500J0D01*
G01*
X125212500Y-140525000D01*
G75*
G02*
X125450000Y-140762500I0J-237500D01*
G01*
X125450000Y-141237500D01*
G75*
G02*
X125212500Y-141475000I-237500J0D01*
G01*
X124637500Y-141475000D01*
G75*
G02*
X124400000Y-141237500I0J237500D01*
G01*
G37*
G36*
G01*
X108037500Y-145650000D02*
X107562500Y-145650000D01*
G75*
G02*
X107325000Y-145412500I0J237500D01*
G01*
X107325000Y-144837500D01*
G75*
G02*
X107562500Y-144600000I237500J0D01*
G01*
X108037500Y-144600000D01*
G75*
G02*
X108275000Y-144837500I0J-237500D01*
G01*
X108275000Y-145412500D01*
G75*
G02*
X108037500Y-145650000I-237500J0D01*
G01*
G37*
G36*
G01*
X108037500Y-147400000D02*
X107562500Y-147400000D01*
G75*
G02*
X107325000Y-147162500I0J237500D01*
G01*
X107325000Y-146587500D01*
G75*
G02*
X107562500Y-146350000I237500J0D01*
G01*
X108037500Y-146350000D01*
G75*
G02*
X108275000Y-146587500I0J-237500D01*
G01*
X108275000Y-147162500D01*
G75*
G02*
X108037500Y-147400000I-237500J0D01*
G01*
G37*
G36*
G01*
X102037500Y-147400000D02*
X101562500Y-147400000D01*
G75*
G02*
X101325000Y-147162500I0J237500D01*
G01*
X101325000Y-146587500D01*
G75*
G02*
X101562500Y-146350000I237500J0D01*
G01*
X102037500Y-146350000D01*
G75*
G02*
X102275000Y-146587500I0J-237500D01*
G01*
X102275000Y-147162500D01*
G75*
G02*
X102037500Y-147400000I-237500J0D01*
G01*
G37*
G36*
G01*
X102037500Y-145650000D02*
X101562500Y-145650000D01*
G75*
G02*
X101325000Y-145412500I0J237500D01*
G01*
X101325000Y-144837500D01*
G75*
G02*
X101562500Y-144600000I237500J0D01*
G01*
X102037500Y-144600000D01*
G75*
G02*
X102275000Y-144837500I0J-237500D01*
G01*
X102275000Y-145412500D01*
G75*
G02*
X102037500Y-145650000I-237500J0D01*
G01*
G37*
G36*
G01*
X111250000Y-145700000D02*
X112350000Y-145700000D01*
G75*
G02*
X112600000Y-145950000I0J-250000D01*
G01*
X112600000Y-148450000D01*
G75*
G02*
X112350000Y-148700000I-250000J0D01*
G01*
X111250000Y-148700000D01*
G75*
G02*
X111000000Y-148450000I0J250000D01*
G01*
X111000000Y-145950000D01*
G75*
G02*
X111250000Y-145700000I250000J0D01*
G01*
G37*
G36*
G01*
X111250000Y-141300000D02*
X112350000Y-141300000D01*
G75*
G02*
X112600000Y-141550000I0J-250000D01*
G01*
X112600000Y-144050000D01*
G75*
G02*
X112350000Y-144300000I-250000J0D01*
G01*
X111250000Y-144300000D01*
G75*
G02*
X111000000Y-144050000I0J250000D01*
G01*
X111000000Y-141550000D01*
G75*
G02*
X111250000Y-141300000I250000J0D01*
G01*
G37*
G36*
G01*
X118250000Y-145700000D02*
X119350000Y-145700000D01*
G75*
G02*
X119600000Y-145950000I0J-250000D01*
G01*
X119600000Y-148450000D01*
G75*
G02*
X119350000Y-148700000I-250000J0D01*
G01*
X118250000Y-148700000D01*
G75*
G02*
X118000000Y-148450000I0J250000D01*
G01*
X118000000Y-145950000D01*
G75*
G02*
X118250000Y-145700000I250000J0D01*
G01*
G37*
G36*
G01*
X118250000Y-141300000D02*
X119350000Y-141300000D01*
G75*
G02*
X119600000Y-141550000I0J-250000D01*
G01*
X119600000Y-144050000D01*
G75*
G02*
X119350000Y-144300000I-250000J0D01*
G01*
X118250000Y-144300000D01*
G75*
G02*
X118000000Y-144050000I0J250000D01*
G01*
X118000000Y-141550000D01*
G75*
G02*
X118250000Y-141300000I250000J0D01*
G01*
G37*
G36*
G01*
X126325000Y-146450000D02*
X127275000Y-146450000D01*
G75*
G02*
X127525000Y-146700000I0J-250000D01*
G01*
X127525000Y-147375000D01*
G75*
G02*
X127275000Y-147625000I-250000J0D01*
G01*
X126325000Y-147625000D01*
G75*
G02*
X126075000Y-147375000I0J250000D01*
G01*
X126075000Y-146700000D01*
G75*
G02*
X126325000Y-146450000I250000J0D01*
G01*
G37*
G36*
G01*
X126325000Y-144375000D02*
X127275000Y-144375000D01*
G75*
G02*
X127525000Y-144625000I0J-250000D01*
G01*
X127525000Y-145300000D01*
G75*
G02*
X127275000Y-145550000I-250000J0D01*
G01*
X126325000Y-145550000D01*
G75*
G02*
X126075000Y-145300000I0J250000D01*
G01*
X126075000Y-144625000D01*
G75*
G02*
X126325000Y-144375000I250000J0D01*
G01*
G37*
G36*
G01*
X124325000Y-146450000D02*
X125275000Y-146450000D01*
G75*
G02*
X125525000Y-146700000I0J-250000D01*
G01*
X125525000Y-147375000D01*
G75*
G02*
X125275000Y-147625000I-250000J0D01*
G01*
X124325000Y-147625000D01*
G75*
G02*
X124075000Y-147375000I0J250000D01*
G01*
X124075000Y-146700000D01*
G75*
G02*
X124325000Y-146450000I250000J0D01*
G01*
G37*
G36*
G01*
X124325000Y-144375000D02*
X125275000Y-144375000D01*
G75*
G02*
X125525000Y-144625000I0J-250000D01*
G01*
X125525000Y-145300000D01*
G75*
G02*
X125275000Y-145550000I-250000J0D01*
G01*
X124325000Y-145550000D01*
G75*
G02*
X124075000Y-145300000I0J250000D01*
G01*
X124075000Y-144625000D01*
G75*
G02*
X124325000Y-144375000I250000J0D01*
G01*
G37*
M02*
