G04 #@! TF.GenerationSoftware,KiCad,Pcbnew,5.1.10*
G04 #@! TF.CreationDate,2021-09-07T22:45:51+08:00*
G04 #@! TF.ProjectId,nypx06,6e797078-3036-42e6-9b69-6361645f7063,rev?*
G04 #@! TF.SameCoordinates,Original*
G04 #@! TF.FileFunction,Copper,L2,Bot*
G04 #@! TF.FilePolarity,Positive*
%FSLAX46Y46*%
G04 Gerber Fmt 4.6, Leading zero omitted, Abs format (unit mm)*
G04 Created by KiCad (PCBNEW 5.1.10) date 2021-09-07 22:45:51*
%MOMM*%
%LPD*%
G01*
G04 APERTURE LIST*
G04 #@! TA.AperFunction,ComponentPad*
%ADD10O,3.500000X1.900000*%
G04 #@! TD*
G04 #@! TA.AperFunction,ComponentPad*
%ADD11O,1.700000X1.700000*%
G04 #@! TD*
G04 #@! TA.AperFunction,ComponentPad*
%ADD12R,1.700000X1.700000*%
G04 #@! TD*
G04 #@! TA.AperFunction,ViaPad*
%ADD13C,0.800000*%
G04 #@! TD*
G04 #@! TA.AperFunction,ViaPad*
%ADD14C,1.000000*%
G04 #@! TD*
G04 #@! TA.AperFunction,Conductor*
%ADD15C,1.000000*%
G04 #@! TD*
G04 #@! TA.AperFunction,Conductor*
%ADD16C,0.400000*%
G04 #@! TD*
G04 #@! TA.AperFunction,Conductor*
%ADD17C,0.254000*%
G04 #@! TD*
G04 #@! TA.AperFunction,Conductor*
%ADD18C,0.100000*%
G04 #@! TD*
G04 APERTURE END LIST*
D10*
X102900000Y-129300000D03*
X102900000Y-140700000D03*
D11*
X113340000Y-123000000D03*
X110800000Y-123000000D03*
X108260000Y-123000000D03*
D12*
X105720000Y-123000000D03*
D13*
X128800000Y-125000000D03*
X127800000Y-123000000D03*
X125800000Y-122000000D03*
X115800000Y-141000000D03*
X113800000Y-141000000D03*
X109800000Y-134000000D03*
X109800000Y-136000000D03*
X109800000Y-138000000D03*
X119800000Y-135000000D03*
X120800000Y-133000000D03*
X107800000Y-126000000D03*
X108800000Y-126000000D03*
X101800000Y-122000000D03*
X115800000Y-147000000D03*
X115800000Y-145000000D03*
X105800000Y-144000000D03*
X128800000Y-140000000D03*
X128800000Y-142000000D03*
X128800000Y-144000000D03*
X128800000Y-147000000D03*
X128800000Y-149000000D03*
X128800000Y-127000000D03*
X128800000Y-129000000D03*
X123400000Y-123400000D03*
D14*
X112800000Y-135000000D03*
X123800000Y-125000000D03*
D13*
X104474990Y-147700000D03*
X110800000Y-126000000D03*
X115800000Y-124000000D03*
X109800000Y-142000000D03*
X126800000Y-127000000D03*
X122800000Y-134000000D03*
X120300000Y-124792893D03*
D15*
X105720000Y-123000000D02*
X105720000Y-125920000D01*
X105720000Y-125920000D02*
X108800000Y-129000000D01*
X108800000Y-129000000D02*
X112800000Y-133000000D01*
X112800000Y-133000000D02*
X112800000Y-135000000D01*
X112800000Y-135000000D02*
X115800000Y-135000000D01*
X115800000Y-135000000D02*
X123800000Y-127000000D01*
X123800000Y-127000000D02*
X123800000Y-125000000D01*
D16*
X113800000Y-126000000D02*
X115800000Y-124000000D01*
X110800000Y-126000000D02*
X113800000Y-126000000D01*
X109800000Y-142000000D02*
X109800000Y-145000000D01*
X107100000Y-147700000D02*
X104474990Y-147700000D01*
X109800000Y-145000000D02*
X107100000Y-147700000D01*
X126800000Y-127000000D02*
X126800000Y-130000000D01*
X126800000Y-130000000D02*
X122800000Y-134000000D01*
X120592893Y-124792893D02*
X116800000Y-121000000D01*
X112800000Y-121000000D02*
X110800000Y-123000000D01*
X116800000Y-121000000D02*
X112800000Y-121000000D01*
D17*
X111077940Y-121541193D02*
X110946260Y-121515000D01*
X110653740Y-121515000D01*
X110366842Y-121572068D01*
X110096589Y-121684010D01*
X109853368Y-121846525D01*
X109646525Y-122053368D01*
X109524805Y-122235534D01*
X109455178Y-122118645D01*
X109260269Y-121902412D01*
X109026920Y-121728359D01*
X108764099Y-121603175D01*
X108616890Y-121558524D01*
X108387000Y-121679845D01*
X108387000Y-122873000D01*
X108407000Y-122873000D01*
X108407000Y-123127000D01*
X108387000Y-123127000D01*
X108387000Y-124320155D01*
X108616890Y-124441476D01*
X108764099Y-124396825D01*
X109026920Y-124271641D01*
X109260269Y-124097588D01*
X109455178Y-123881355D01*
X109524805Y-123764466D01*
X109646525Y-123946632D01*
X109853368Y-124153475D01*
X110096589Y-124315990D01*
X110366842Y-124427932D01*
X110653740Y-124485000D01*
X110946260Y-124485000D01*
X111233158Y-124427932D01*
X111503411Y-124315990D01*
X111746632Y-124153475D01*
X111953475Y-123946632D01*
X112070000Y-123772240D01*
X112186525Y-123946632D01*
X112393368Y-124153475D01*
X112636589Y-124315990D01*
X112906842Y-124427932D01*
X113193740Y-124485000D01*
X113486260Y-124485000D01*
X113773158Y-124427932D01*
X114043411Y-124315990D01*
X114286632Y-124153475D01*
X114493475Y-123946632D01*
X114655990Y-123703411D01*
X114767932Y-123433158D01*
X114825000Y-123146260D01*
X114825000Y-122853740D01*
X114767932Y-122566842D01*
X114655990Y-122296589D01*
X114493475Y-122053368D01*
X114286632Y-121846525D01*
X114269384Y-121835000D01*
X116454133Y-121835000D01*
X119272480Y-124653349D01*
X119265000Y-124690954D01*
X119265000Y-124894832D01*
X119304774Y-125094791D01*
X119382795Y-125283149D01*
X119496063Y-125452667D01*
X119640226Y-125596830D01*
X119809744Y-125710098D01*
X119998102Y-125788119D01*
X120198061Y-125827893D01*
X120401939Y-125827893D01*
X120601898Y-125788119D01*
X120790256Y-125710098D01*
X120959774Y-125596830D01*
X121098279Y-125458325D01*
X121186184Y-125386184D01*
X121290529Y-125259038D01*
X121368065Y-125113979D01*
X121415811Y-124956581D01*
X121431933Y-124792893D01*
X121415811Y-124629205D01*
X121368065Y-124471806D01*
X121290529Y-124326747D01*
X121212332Y-124231463D01*
X117640867Y-120660000D01*
X128767721Y-120660000D01*
X128865424Y-120669580D01*
X128928356Y-120688580D01*
X128986405Y-120719445D01*
X129037343Y-120760989D01*
X129079248Y-120811644D01*
X129110515Y-120869471D01*
X129129956Y-120932272D01*
X129140000Y-121027835D01*
X129140001Y-148967711D01*
X129130420Y-149065424D01*
X129111420Y-149128357D01*
X129080554Y-149186406D01*
X129039011Y-149237343D01*
X128988356Y-149279248D01*
X128930529Y-149310515D01*
X128867728Y-149329956D01*
X128772165Y-149340000D01*
X100832279Y-149340000D01*
X100734576Y-149330420D01*
X100671643Y-149311420D01*
X100613594Y-149280554D01*
X100562657Y-149239011D01*
X100520752Y-149188356D01*
X100489485Y-149130529D01*
X100470044Y-149067728D01*
X100460000Y-148972165D01*
X100460000Y-147598061D01*
X103439990Y-147598061D01*
X103439990Y-147801939D01*
X103479764Y-148001898D01*
X103557785Y-148190256D01*
X103671053Y-148359774D01*
X103815216Y-148503937D01*
X103984734Y-148617205D01*
X104173092Y-148695226D01*
X104373051Y-148735000D01*
X104576929Y-148735000D01*
X104776888Y-148695226D01*
X104965246Y-148617205D01*
X105088275Y-148535000D01*
X107058982Y-148535000D01*
X107100000Y-148539040D01*
X107141018Y-148535000D01*
X107141019Y-148535000D01*
X107263689Y-148522918D01*
X107421087Y-148475172D01*
X107566146Y-148397636D01*
X107693291Y-148293291D01*
X107719446Y-148261421D01*
X110361432Y-145619437D01*
X110393291Y-145593291D01*
X110497636Y-145466146D01*
X110575172Y-145321087D01*
X110622918Y-145163689D01*
X110635000Y-145041019D01*
X110635000Y-145041018D01*
X110639040Y-145000000D01*
X110635000Y-144958982D01*
X110635000Y-142613285D01*
X110717205Y-142490256D01*
X110795226Y-142301898D01*
X110835000Y-142101939D01*
X110835000Y-141898061D01*
X110795226Y-141698102D01*
X110717205Y-141509744D01*
X110603937Y-141340226D01*
X110459774Y-141196063D01*
X110290256Y-141082795D01*
X110101898Y-141004774D01*
X109901939Y-140965000D01*
X109698061Y-140965000D01*
X109498102Y-141004774D01*
X109309744Y-141082795D01*
X109140226Y-141196063D01*
X108996063Y-141340226D01*
X108882795Y-141509744D01*
X108804774Y-141698102D01*
X108765000Y-141898061D01*
X108765000Y-142101939D01*
X108804774Y-142301898D01*
X108882795Y-142490256D01*
X108965000Y-142613285D01*
X108965001Y-144654130D01*
X106754133Y-146865000D01*
X105088275Y-146865000D01*
X104965246Y-146782795D01*
X104776888Y-146704774D01*
X104576929Y-146665000D01*
X104373051Y-146665000D01*
X104173092Y-146704774D01*
X103984734Y-146782795D01*
X103815216Y-146896063D01*
X103671053Y-147040226D01*
X103557785Y-147209744D01*
X103479764Y-147398102D01*
X103439990Y-147598061D01*
X100460000Y-147598061D01*
X100460000Y-140700000D01*
X100507331Y-140700000D01*
X100537934Y-141010714D01*
X100628566Y-141309488D01*
X100775744Y-141584839D01*
X100973813Y-141826187D01*
X101215161Y-142024256D01*
X101490512Y-142171434D01*
X101789286Y-142262066D01*
X102022136Y-142285000D01*
X103777864Y-142285000D01*
X104010714Y-142262066D01*
X104309488Y-142171434D01*
X104584839Y-142024256D01*
X104826187Y-141826187D01*
X105024256Y-141584839D01*
X105171434Y-141309488D01*
X105262066Y-141010714D01*
X105292669Y-140700000D01*
X105262066Y-140389286D01*
X105171434Y-140090512D01*
X105024256Y-139815161D01*
X104826187Y-139573813D01*
X104584839Y-139375744D01*
X104309488Y-139228566D01*
X104010714Y-139137934D01*
X103777864Y-139115000D01*
X102022136Y-139115000D01*
X101789286Y-139137934D01*
X101490512Y-139228566D01*
X101215161Y-139375744D01*
X100973813Y-139573813D01*
X100775744Y-139815161D01*
X100628566Y-140090512D01*
X100537934Y-140389286D01*
X100507331Y-140700000D01*
X100460000Y-140700000D01*
X100460000Y-137183288D01*
X101715000Y-137183288D01*
X101715000Y-137416712D01*
X101760539Y-137645652D01*
X101849866Y-137861308D01*
X101979550Y-138055394D01*
X102144606Y-138220450D01*
X102338692Y-138350134D01*
X102554348Y-138439461D01*
X102783288Y-138485000D01*
X103016712Y-138485000D01*
X103245652Y-138439461D01*
X103461308Y-138350134D01*
X103655394Y-138220450D01*
X103820450Y-138055394D01*
X103950134Y-137861308D01*
X104039461Y-137645652D01*
X104085000Y-137416712D01*
X104085000Y-137183288D01*
X104039461Y-136954348D01*
X103950134Y-136738692D01*
X103820450Y-136544606D01*
X103655394Y-136379550D01*
X103461308Y-136249866D01*
X103245652Y-136160539D01*
X103016712Y-136115000D01*
X102783288Y-136115000D01*
X102554348Y-136160539D01*
X102338692Y-136249866D01*
X102144606Y-136379550D01*
X101979550Y-136544606D01*
X101849866Y-136738692D01*
X101760539Y-136954348D01*
X101715000Y-137183288D01*
X100460000Y-137183288D01*
X100460000Y-132583288D01*
X101715000Y-132583288D01*
X101715000Y-132816712D01*
X101760539Y-133045652D01*
X101849866Y-133261308D01*
X101979550Y-133455394D01*
X102144606Y-133620450D01*
X102338692Y-133750134D01*
X102554348Y-133839461D01*
X102783288Y-133885000D01*
X103016712Y-133885000D01*
X103245652Y-133839461D01*
X103461308Y-133750134D01*
X103655394Y-133620450D01*
X103820450Y-133455394D01*
X103950134Y-133261308D01*
X104039461Y-133045652D01*
X104085000Y-132816712D01*
X104085000Y-132583288D01*
X104039461Y-132354348D01*
X103950134Y-132138692D01*
X103820450Y-131944606D01*
X103655394Y-131779550D01*
X103461308Y-131649866D01*
X103245652Y-131560539D01*
X103016712Y-131515000D01*
X102783288Y-131515000D01*
X102554348Y-131560539D01*
X102338692Y-131649866D01*
X102144606Y-131779550D01*
X101979550Y-131944606D01*
X101849866Y-132138692D01*
X101760539Y-132354348D01*
X101715000Y-132583288D01*
X100460000Y-132583288D01*
X100460000Y-129300000D01*
X100507331Y-129300000D01*
X100537934Y-129610714D01*
X100628566Y-129909488D01*
X100775744Y-130184839D01*
X100973813Y-130426187D01*
X101215161Y-130624256D01*
X101490512Y-130771434D01*
X101789286Y-130862066D01*
X102022136Y-130885000D01*
X103777864Y-130885000D01*
X104010714Y-130862066D01*
X104309488Y-130771434D01*
X104584839Y-130624256D01*
X104826187Y-130426187D01*
X105024256Y-130184839D01*
X105171434Y-129909488D01*
X105262066Y-129610714D01*
X105292669Y-129300000D01*
X105262066Y-128989286D01*
X105171434Y-128690512D01*
X105024256Y-128415161D01*
X104826187Y-128173813D01*
X104584839Y-127975744D01*
X104309488Y-127828566D01*
X104010714Y-127737934D01*
X103777864Y-127715000D01*
X102022136Y-127715000D01*
X101789286Y-127737934D01*
X101490512Y-127828566D01*
X101215161Y-127975744D01*
X100973813Y-128173813D01*
X100775744Y-128415161D01*
X100628566Y-128690512D01*
X100537934Y-128989286D01*
X100507331Y-129300000D01*
X100460000Y-129300000D01*
X100460000Y-122150000D01*
X104231928Y-122150000D01*
X104231928Y-123850000D01*
X104244188Y-123974482D01*
X104280498Y-124094180D01*
X104339463Y-124204494D01*
X104418815Y-124301185D01*
X104515506Y-124380537D01*
X104585000Y-124417683D01*
X104585001Y-125864239D01*
X104579509Y-125920000D01*
X104601423Y-126142498D01*
X104666324Y-126356446D01*
X104666325Y-126356447D01*
X104771717Y-126553623D01*
X104913552Y-126726449D01*
X104956860Y-126761991D01*
X108036856Y-129841988D01*
X108036861Y-129841992D01*
X111665000Y-133470132D01*
X111665001Y-134888207D01*
X111665000Y-134888212D01*
X111665000Y-134944248D01*
X111659509Y-135000000D01*
X111665000Y-135055752D01*
X111665000Y-135111788D01*
X111675932Y-135166747D01*
X111681423Y-135222499D01*
X111697685Y-135276106D01*
X111708617Y-135331067D01*
X111730063Y-135382842D01*
X111746324Y-135436447D01*
X111772731Y-135485851D01*
X111794176Y-135537624D01*
X111825307Y-135584214D01*
X111851716Y-135633623D01*
X111887259Y-135676932D01*
X111918388Y-135723520D01*
X111958009Y-135763141D01*
X111993551Y-135806449D01*
X112036859Y-135841991D01*
X112076480Y-135881612D01*
X112123068Y-135912741D01*
X112166377Y-135948284D01*
X112215786Y-135974693D01*
X112262376Y-136005824D01*
X112314149Y-136027269D01*
X112363553Y-136053676D01*
X112417158Y-136069937D01*
X112468933Y-136091383D01*
X112523894Y-136102315D01*
X112577501Y-136118577D01*
X112633253Y-136124068D01*
X112688212Y-136135000D01*
X112744249Y-136135000D01*
X112800000Y-136140491D01*
X112855752Y-136135000D01*
X115744249Y-136135000D01*
X115800000Y-136140491D01*
X115855751Y-136135000D01*
X115855752Y-136135000D01*
X116022499Y-136118577D01*
X116236447Y-136053676D01*
X116433623Y-135948284D01*
X116606449Y-135806449D01*
X116641996Y-135763135D01*
X118507070Y-133898061D01*
X121765000Y-133898061D01*
X121765000Y-134101939D01*
X121804774Y-134301898D01*
X121882795Y-134490256D01*
X121996063Y-134659774D01*
X122140226Y-134803937D01*
X122309744Y-134917205D01*
X122498102Y-134995226D01*
X122698061Y-135035000D01*
X122901939Y-135035000D01*
X123101898Y-134995226D01*
X123290256Y-134917205D01*
X123459774Y-134803937D01*
X123603937Y-134659774D01*
X123717205Y-134490256D01*
X123795226Y-134301898D01*
X123824093Y-134156774D01*
X127361427Y-130619441D01*
X127393291Y-130593291D01*
X127497636Y-130466146D01*
X127575172Y-130321087D01*
X127622918Y-130163689D01*
X127635000Y-130041019D01*
X127635000Y-130041017D01*
X127639040Y-130000001D01*
X127635000Y-129958985D01*
X127635000Y-127613285D01*
X127717205Y-127490256D01*
X127795226Y-127301898D01*
X127835000Y-127101939D01*
X127835000Y-126898061D01*
X127795226Y-126698102D01*
X127717205Y-126509744D01*
X127603937Y-126340226D01*
X127459774Y-126196063D01*
X127290256Y-126082795D01*
X127101898Y-126004774D01*
X126901939Y-125965000D01*
X126698061Y-125965000D01*
X126498102Y-126004774D01*
X126309744Y-126082795D01*
X126140226Y-126196063D01*
X125996063Y-126340226D01*
X125882795Y-126509744D01*
X125804774Y-126698102D01*
X125765000Y-126898061D01*
X125765000Y-127101939D01*
X125804774Y-127301898D01*
X125882795Y-127490256D01*
X125965000Y-127613285D01*
X125965001Y-129654131D01*
X122643226Y-132975907D01*
X122498102Y-133004774D01*
X122309744Y-133082795D01*
X122140226Y-133196063D01*
X121996063Y-133340226D01*
X121882795Y-133509744D01*
X121804774Y-133698102D01*
X121765000Y-133898061D01*
X118507070Y-133898061D01*
X124563141Y-127841991D01*
X124606449Y-127806449D01*
X124748284Y-127633623D01*
X124853676Y-127436447D01*
X124918577Y-127222499D01*
X124935000Y-127055752D01*
X124935000Y-127055743D01*
X124940490Y-127000001D01*
X124935000Y-126944259D01*
X124935000Y-124888212D01*
X124924068Y-124833253D01*
X124918577Y-124777501D01*
X124902315Y-124723894D01*
X124891383Y-124668933D01*
X124869937Y-124617158D01*
X124853676Y-124563553D01*
X124827269Y-124514149D01*
X124805824Y-124462376D01*
X124774693Y-124415786D01*
X124748284Y-124366377D01*
X124712741Y-124323068D01*
X124681612Y-124276480D01*
X124641991Y-124236859D01*
X124606449Y-124193551D01*
X124563141Y-124158009D01*
X124523520Y-124118388D01*
X124476932Y-124087259D01*
X124433623Y-124051716D01*
X124384214Y-124025307D01*
X124337624Y-123994176D01*
X124285851Y-123972731D01*
X124236447Y-123946324D01*
X124182842Y-123930063D01*
X124131067Y-123908617D01*
X124076106Y-123897685D01*
X124022499Y-123881423D01*
X123966747Y-123875932D01*
X123911788Y-123865000D01*
X123855752Y-123865000D01*
X123800000Y-123859509D01*
X123744249Y-123865000D01*
X123688212Y-123865000D01*
X123633252Y-123875932D01*
X123577502Y-123881423D01*
X123523897Y-123897684D01*
X123468933Y-123908617D01*
X123417155Y-123930064D01*
X123363554Y-123946324D01*
X123314153Y-123972729D01*
X123262376Y-123994176D01*
X123215782Y-124025309D01*
X123166378Y-124051716D01*
X123123074Y-124087255D01*
X123076480Y-124118388D01*
X123036855Y-124158013D01*
X122993552Y-124193551D01*
X122958014Y-124236854D01*
X122918388Y-124276480D01*
X122887254Y-124323075D01*
X122851717Y-124366377D01*
X122825312Y-124415778D01*
X122794176Y-124462376D01*
X122772728Y-124514157D01*
X122746325Y-124563553D01*
X122730067Y-124617149D01*
X122708617Y-124668933D01*
X122697683Y-124723904D01*
X122681424Y-124777501D01*
X122675934Y-124833243D01*
X122665000Y-124888212D01*
X122665000Y-125111788D01*
X122665001Y-125111793D01*
X122665000Y-126529868D01*
X115329869Y-133865000D01*
X113935000Y-133865000D01*
X113935000Y-133055741D01*
X113940490Y-132999999D01*
X113935000Y-132944257D01*
X113935000Y-132944248D01*
X113918577Y-132777501D01*
X113853676Y-132563553D01*
X113748284Y-132366377D01*
X113606449Y-132193551D01*
X113563141Y-132158009D01*
X109641992Y-128236861D01*
X109641988Y-128236856D01*
X107303193Y-125898061D01*
X109765000Y-125898061D01*
X109765000Y-126101939D01*
X109804774Y-126301898D01*
X109882795Y-126490256D01*
X109996063Y-126659774D01*
X110140226Y-126803937D01*
X110309744Y-126917205D01*
X110498102Y-126995226D01*
X110698061Y-127035000D01*
X110901939Y-127035000D01*
X111101898Y-126995226D01*
X111290256Y-126917205D01*
X111413285Y-126835000D01*
X113758982Y-126835000D01*
X113800000Y-126839040D01*
X113841018Y-126835000D01*
X113841019Y-126835000D01*
X113963689Y-126822918D01*
X114121087Y-126775172D01*
X114266146Y-126697636D01*
X114393291Y-126593291D01*
X114419446Y-126561421D01*
X115956775Y-125024092D01*
X116101898Y-124995226D01*
X116290256Y-124917205D01*
X116459774Y-124803937D01*
X116603937Y-124659774D01*
X116717205Y-124490256D01*
X116795226Y-124301898D01*
X116835000Y-124101939D01*
X116835000Y-123898061D01*
X116795226Y-123698102D01*
X116717205Y-123509744D01*
X116603937Y-123340226D01*
X116459774Y-123196063D01*
X116290256Y-123082795D01*
X116101898Y-123004774D01*
X115901939Y-122965000D01*
X115698061Y-122965000D01*
X115498102Y-123004774D01*
X115309744Y-123082795D01*
X115140226Y-123196063D01*
X114996063Y-123340226D01*
X114882795Y-123509744D01*
X114804774Y-123698102D01*
X114775908Y-123843225D01*
X113454133Y-125165000D01*
X111413285Y-125165000D01*
X111290256Y-125082795D01*
X111101898Y-125004774D01*
X110901939Y-124965000D01*
X110698061Y-124965000D01*
X110498102Y-125004774D01*
X110309744Y-125082795D01*
X110140226Y-125196063D01*
X109996063Y-125340226D01*
X109882795Y-125509744D01*
X109804774Y-125698102D01*
X109765000Y-125898061D01*
X107303193Y-125898061D01*
X106855000Y-125449869D01*
X106855000Y-124417683D01*
X106924494Y-124380537D01*
X107021185Y-124301185D01*
X107100537Y-124204494D01*
X107159502Y-124094180D01*
X107183966Y-124013534D01*
X107259731Y-124097588D01*
X107493080Y-124271641D01*
X107755901Y-124396825D01*
X107903110Y-124441476D01*
X108133000Y-124320155D01*
X108133000Y-123127000D01*
X108113000Y-123127000D01*
X108113000Y-122873000D01*
X108133000Y-122873000D01*
X108133000Y-121679845D01*
X107903110Y-121558524D01*
X107755901Y-121603175D01*
X107493080Y-121728359D01*
X107259731Y-121902412D01*
X107183966Y-121986466D01*
X107159502Y-121905820D01*
X107100537Y-121795506D01*
X107021185Y-121698815D01*
X106924494Y-121619463D01*
X106814180Y-121560498D01*
X106694482Y-121524188D01*
X106570000Y-121511928D01*
X104870000Y-121511928D01*
X104745518Y-121524188D01*
X104625820Y-121560498D01*
X104515506Y-121619463D01*
X104418815Y-121698815D01*
X104339463Y-121795506D01*
X104280498Y-121905820D01*
X104244188Y-122025518D01*
X104231928Y-122150000D01*
X100460000Y-122150000D01*
X100460000Y-121032279D01*
X100469580Y-120934576D01*
X100488580Y-120871644D01*
X100519445Y-120813595D01*
X100560989Y-120762657D01*
X100611644Y-120720752D01*
X100669471Y-120689485D01*
X100732272Y-120670044D01*
X100827835Y-120660000D01*
X111959132Y-120660000D01*
X111077940Y-121541193D01*
G04 #@! TA.AperFunction,Conductor*
D18*
G36*
X111077940Y-121541193D02*
G01*
X110946260Y-121515000D01*
X110653740Y-121515000D01*
X110366842Y-121572068D01*
X110096589Y-121684010D01*
X109853368Y-121846525D01*
X109646525Y-122053368D01*
X109524805Y-122235534D01*
X109455178Y-122118645D01*
X109260269Y-121902412D01*
X109026920Y-121728359D01*
X108764099Y-121603175D01*
X108616890Y-121558524D01*
X108387000Y-121679845D01*
X108387000Y-122873000D01*
X108407000Y-122873000D01*
X108407000Y-123127000D01*
X108387000Y-123127000D01*
X108387000Y-124320155D01*
X108616890Y-124441476D01*
X108764099Y-124396825D01*
X109026920Y-124271641D01*
X109260269Y-124097588D01*
X109455178Y-123881355D01*
X109524805Y-123764466D01*
X109646525Y-123946632D01*
X109853368Y-124153475D01*
X110096589Y-124315990D01*
X110366842Y-124427932D01*
X110653740Y-124485000D01*
X110946260Y-124485000D01*
X111233158Y-124427932D01*
X111503411Y-124315990D01*
X111746632Y-124153475D01*
X111953475Y-123946632D01*
X112070000Y-123772240D01*
X112186525Y-123946632D01*
X112393368Y-124153475D01*
X112636589Y-124315990D01*
X112906842Y-124427932D01*
X113193740Y-124485000D01*
X113486260Y-124485000D01*
X113773158Y-124427932D01*
X114043411Y-124315990D01*
X114286632Y-124153475D01*
X114493475Y-123946632D01*
X114655990Y-123703411D01*
X114767932Y-123433158D01*
X114825000Y-123146260D01*
X114825000Y-122853740D01*
X114767932Y-122566842D01*
X114655990Y-122296589D01*
X114493475Y-122053368D01*
X114286632Y-121846525D01*
X114269384Y-121835000D01*
X116454133Y-121835000D01*
X119272480Y-124653349D01*
X119265000Y-124690954D01*
X119265000Y-124894832D01*
X119304774Y-125094791D01*
X119382795Y-125283149D01*
X119496063Y-125452667D01*
X119640226Y-125596830D01*
X119809744Y-125710098D01*
X119998102Y-125788119D01*
X120198061Y-125827893D01*
X120401939Y-125827893D01*
X120601898Y-125788119D01*
X120790256Y-125710098D01*
X120959774Y-125596830D01*
X121098279Y-125458325D01*
X121186184Y-125386184D01*
X121290529Y-125259038D01*
X121368065Y-125113979D01*
X121415811Y-124956581D01*
X121431933Y-124792893D01*
X121415811Y-124629205D01*
X121368065Y-124471806D01*
X121290529Y-124326747D01*
X121212332Y-124231463D01*
X117640867Y-120660000D01*
X128767721Y-120660000D01*
X128865424Y-120669580D01*
X128928356Y-120688580D01*
X128986405Y-120719445D01*
X129037343Y-120760989D01*
X129079248Y-120811644D01*
X129110515Y-120869471D01*
X129129956Y-120932272D01*
X129140000Y-121027835D01*
X129140001Y-148967711D01*
X129130420Y-149065424D01*
X129111420Y-149128357D01*
X129080554Y-149186406D01*
X129039011Y-149237343D01*
X128988356Y-149279248D01*
X128930529Y-149310515D01*
X128867728Y-149329956D01*
X128772165Y-149340000D01*
X100832279Y-149340000D01*
X100734576Y-149330420D01*
X100671643Y-149311420D01*
X100613594Y-149280554D01*
X100562657Y-149239011D01*
X100520752Y-149188356D01*
X100489485Y-149130529D01*
X100470044Y-149067728D01*
X100460000Y-148972165D01*
X100460000Y-147598061D01*
X103439990Y-147598061D01*
X103439990Y-147801939D01*
X103479764Y-148001898D01*
X103557785Y-148190256D01*
X103671053Y-148359774D01*
X103815216Y-148503937D01*
X103984734Y-148617205D01*
X104173092Y-148695226D01*
X104373051Y-148735000D01*
X104576929Y-148735000D01*
X104776888Y-148695226D01*
X104965246Y-148617205D01*
X105088275Y-148535000D01*
X107058982Y-148535000D01*
X107100000Y-148539040D01*
X107141018Y-148535000D01*
X107141019Y-148535000D01*
X107263689Y-148522918D01*
X107421087Y-148475172D01*
X107566146Y-148397636D01*
X107693291Y-148293291D01*
X107719446Y-148261421D01*
X110361432Y-145619437D01*
X110393291Y-145593291D01*
X110497636Y-145466146D01*
X110575172Y-145321087D01*
X110622918Y-145163689D01*
X110635000Y-145041019D01*
X110635000Y-145041018D01*
X110639040Y-145000000D01*
X110635000Y-144958982D01*
X110635000Y-142613285D01*
X110717205Y-142490256D01*
X110795226Y-142301898D01*
X110835000Y-142101939D01*
X110835000Y-141898061D01*
X110795226Y-141698102D01*
X110717205Y-141509744D01*
X110603937Y-141340226D01*
X110459774Y-141196063D01*
X110290256Y-141082795D01*
X110101898Y-141004774D01*
X109901939Y-140965000D01*
X109698061Y-140965000D01*
X109498102Y-141004774D01*
X109309744Y-141082795D01*
X109140226Y-141196063D01*
X108996063Y-141340226D01*
X108882795Y-141509744D01*
X108804774Y-141698102D01*
X108765000Y-141898061D01*
X108765000Y-142101939D01*
X108804774Y-142301898D01*
X108882795Y-142490256D01*
X108965000Y-142613285D01*
X108965001Y-144654130D01*
X106754133Y-146865000D01*
X105088275Y-146865000D01*
X104965246Y-146782795D01*
X104776888Y-146704774D01*
X104576929Y-146665000D01*
X104373051Y-146665000D01*
X104173092Y-146704774D01*
X103984734Y-146782795D01*
X103815216Y-146896063D01*
X103671053Y-147040226D01*
X103557785Y-147209744D01*
X103479764Y-147398102D01*
X103439990Y-147598061D01*
X100460000Y-147598061D01*
X100460000Y-140700000D01*
X100507331Y-140700000D01*
X100537934Y-141010714D01*
X100628566Y-141309488D01*
X100775744Y-141584839D01*
X100973813Y-141826187D01*
X101215161Y-142024256D01*
X101490512Y-142171434D01*
X101789286Y-142262066D01*
X102022136Y-142285000D01*
X103777864Y-142285000D01*
X104010714Y-142262066D01*
X104309488Y-142171434D01*
X104584839Y-142024256D01*
X104826187Y-141826187D01*
X105024256Y-141584839D01*
X105171434Y-141309488D01*
X105262066Y-141010714D01*
X105292669Y-140700000D01*
X105262066Y-140389286D01*
X105171434Y-140090512D01*
X105024256Y-139815161D01*
X104826187Y-139573813D01*
X104584839Y-139375744D01*
X104309488Y-139228566D01*
X104010714Y-139137934D01*
X103777864Y-139115000D01*
X102022136Y-139115000D01*
X101789286Y-139137934D01*
X101490512Y-139228566D01*
X101215161Y-139375744D01*
X100973813Y-139573813D01*
X100775744Y-139815161D01*
X100628566Y-140090512D01*
X100537934Y-140389286D01*
X100507331Y-140700000D01*
X100460000Y-140700000D01*
X100460000Y-137183288D01*
X101715000Y-137183288D01*
X101715000Y-137416712D01*
X101760539Y-137645652D01*
X101849866Y-137861308D01*
X101979550Y-138055394D01*
X102144606Y-138220450D01*
X102338692Y-138350134D01*
X102554348Y-138439461D01*
X102783288Y-138485000D01*
X103016712Y-138485000D01*
X103245652Y-138439461D01*
X103461308Y-138350134D01*
X103655394Y-138220450D01*
X103820450Y-138055394D01*
X103950134Y-137861308D01*
X104039461Y-137645652D01*
X104085000Y-137416712D01*
X104085000Y-137183288D01*
X104039461Y-136954348D01*
X103950134Y-136738692D01*
X103820450Y-136544606D01*
X103655394Y-136379550D01*
X103461308Y-136249866D01*
X103245652Y-136160539D01*
X103016712Y-136115000D01*
X102783288Y-136115000D01*
X102554348Y-136160539D01*
X102338692Y-136249866D01*
X102144606Y-136379550D01*
X101979550Y-136544606D01*
X101849866Y-136738692D01*
X101760539Y-136954348D01*
X101715000Y-137183288D01*
X100460000Y-137183288D01*
X100460000Y-132583288D01*
X101715000Y-132583288D01*
X101715000Y-132816712D01*
X101760539Y-133045652D01*
X101849866Y-133261308D01*
X101979550Y-133455394D01*
X102144606Y-133620450D01*
X102338692Y-133750134D01*
X102554348Y-133839461D01*
X102783288Y-133885000D01*
X103016712Y-133885000D01*
X103245652Y-133839461D01*
X103461308Y-133750134D01*
X103655394Y-133620450D01*
X103820450Y-133455394D01*
X103950134Y-133261308D01*
X104039461Y-133045652D01*
X104085000Y-132816712D01*
X104085000Y-132583288D01*
X104039461Y-132354348D01*
X103950134Y-132138692D01*
X103820450Y-131944606D01*
X103655394Y-131779550D01*
X103461308Y-131649866D01*
X103245652Y-131560539D01*
X103016712Y-131515000D01*
X102783288Y-131515000D01*
X102554348Y-131560539D01*
X102338692Y-131649866D01*
X102144606Y-131779550D01*
X101979550Y-131944606D01*
X101849866Y-132138692D01*
X101760539Y-132354348D01*
X101715000Y-132583288D01*
X100460000Y-132583288D01*
X100460000Y-129300000D01*
X100507331Y-129300000D01*
X100537934Y-129610714D01*
X100628566Y-129909488D01*
X100775744Y-130184839D01*
X100973813Y-130426187D01*
X101215161Y-130624256D01*
X101490512Y-130771434D01*
X101789286Y-130862066D01*
X102022136Y-130885000D01*
X103777864Y-130885000D01*
X104010714Y-130862066D01*
X104309488Y-130771434D01*
X104584839Y-130624256D01*
X104826187Y-130426187D01*
X105024256Y-130184839D01*
X105171434Y-129909488D01*
X105262066Y-129610714D01*
X105292669Y-129300000D01*
X105262066Y-128989286D01*
X105171434Y-128690512D01*
X105024256Y-128415161D01*
X104826187Y-128173813D01*
X104584839Y-127975744D01*
X104309488Y-127828566D01*
X104010714Y-127737934D01*
X103777864Y-127715000D01*
X102022136Y-127715000D01*
X101789286Y-127737934D01*
X101490512Y-127828566D01*
X101215161Y-127975744D01*
X100973813Y-128173813D01*
X100775744Y-128415161D01*
X100628566Y-128690512D01*
X100537934Y-128989286D01*
X100507331Y-129300000D01*
X100460000Y-129300000D01*
X100460000Y-122150000D01*
X104231928Y-122150000D01*
X104231928Y-123850000D01*
X104244188Y-123974482D01*
X104280498Y-124094180D01*
X104339463Y-124204494D01*
X104418815Y-124301185D01*
X104515506Y-124380537D01*
X104585000Y-124417683D01*
X104585001Y-125864239D01*
X104579509Y-125920000D01*
X104601423Y-126142498D01*
X104666324Y-126356446D01*
X104666325Y-126356447D01*
X104771717Y-126553623D01*
X104913552Y-126726449D01*
X104956860Y-126761991D01*
X108036856Y-129841988D01*
X108036861Y-129841992D01*
X111665000Y-133470132D01*
X111665001Y-134888207D01*
X111665000Y-134888212D01*
X111665000Y-134944248D01*
X111659509Y-135000000D01*
X111665000Y-135055752D01*
X111665000Y-135111788D01*
X111675932Y-135166747D01*
X111681423Y-135222499D01*
X111697685Y-135276106D01*
X111708617Y-135331067D01*
X111730063Y-135382842D01*
X111746324Y-135436447D01*
X111772731Y-135485851D01*
X111794176Y-135537624D01*
X111825307Y-135584214D01*
X111851716Y-135633623D01*
X111887259Y-135676932D01*
X111918388Y-135723520D01*
X111958009Y-135763141D01*
X111993551Y-135806449D01*
X112036859Y-135841991D01*
X112076480Y-135881612D01*
X112123068Y-135912741D01*
X112166377Y-135948284D01*
X112215786Y-135974693D01*
X112262376Y-136005824D01*
X112314149Y-136027269D01*
X112363553Y-136053676D01*
X112417158Y-136069937D01*
X112468933Y-136091383D01*
X112523894Y-136102315D01*
X112577501Y-136118577D01*
X112633253Y-136124068D01*
X112688212Y-136135000D01*
X112744249Y-136135000D01*
X112800000Y-136140491D01*
X112855752Y-136135000D01*
X115744249Y-136135000D01*
X115800000Y-136140491D01*
X115855751Y-136135000D01*
X115855752Y-136135000D01*
X116022499Y-136118577D01*
X116236447Y-136053676D01*
X116433623Y-135948284D01*
X116606449Y-135806449D01*
X116641996Y-135763135D01*
X118507070Y-133898061D01*
X121765000Y-133898061D01*
X121765000Y-134101939D01*
X121804774Y-134301898D01*
X121882795Y-134490256D01*
X121996063Y-134659774D01*
X122140226Y-134803937D01*
X122309744Y-134917205D01*
X122498102Y-134995226D01*
X122698061Y-135035000D01*
X122901939Y-135035000D01*
X123101898Y-134995226D01*
X123290256Y-134917205D01*
X123459774Y-134803937D01*
X123603937Y-134659774D01*
X123717205Y-134490256D01*
X123795226Y-134301898D01*
X123824093Y-134156774D01*
X127361427Y-130619441D01*
X127393291Y-130593291D01*
X127497636Y-130466146D01*
X127575172Y-130321087D01*
X127622918Y-130163689D01*
X127635000Y-130041019D01*
X127635000Y-130041017D01*
X127639040Y-130000001D01*
X127635000Y-129958985D01*
X127635000Y-127613285D01*
X127717205Y-127490256D01*
X127795226Y-127301898D01*
X127835000Y-127101939D01*
X127835000Y-126898061D01*
X127795226Y-126698102D01*
X127717205Y-126509744D01*
X127603937Y-126340226D01*
X127459774Y-126196063D01*
X127290256Y-126082795D01*
X127101898Y-126004774D01*
X126901939Y-125965000D01*
X126698061Y-125965000D01*
X126498102Y-126004774D01*
X126309744Y-126082795D01*
X126140226Y-126196063D01*
X125996063Y-126340226D01*
X125882795Y-126509744D01*
X125804774Y-126698102D01*
X125765000Y-126898061D01*
X125765000Y-127101939D01*
X125804774Y-127301898D01*
X125882795Y-127490256D01*
X125965000Y-127613285D01*
X125965001Y-129654131D01*
X122643226Y-132975907D01*
X122498102Y-133004774D01*
X122309744Y-133082795D01*
X122140226Y-133196063D01*
X121996063Y-133340226D01*
X121882795Y-133509744D01*
X121804774Y-133698102D01*
X121765000Y-133898061D01*
X118507070Y-133898061D01*
X124563141Y-127841991D01*
X124606449Y-127806449D01*
X124748284Y-127633623D01*
X124853676Y-127436447D01*
X124918577Y-127222499D01*
X124935000Y-127055752D01*
X124935000Y-127055743D01*
X124940490Y-127000001D01*
X124935000Y-126944259D01*
X124935000Y-124888212D01*
X124924068Y-124833253D01*
X124918577Y-124777501D01*
X124902315Y-124723894D01*
X124891383Y-124668933D01*
X124869937Y-124617158D01*
X124853676Y-124563553D01*
X124827269Y-124514149D01*
X124805824Y-124462376D01*
X124774693Y-124415786D01*
X124748284Y-124366377D01*
X124712741Y-124323068D01*
X124681612Y-124276480D01*
X124641991Y-124236859D01*
X124606449Y-124193551D01*
X124563141Y-124158009D01*
X124523520Y-124118388D01*
X124476932Y-124087259D01*
X124433623Y-124051716D01*
X124384214Y-124025307D01*
X124337624Y-123994176D01*
X124285851Y-123972731D01*
X124236447Y-123946324D01*
X124182842Y-123930063D01*
X124131067Y-123908617D01*
X124076106Y-123897685D01*
X124022499Y-123881423D01*
X123966747Y-123875932D01*
X123911788Y-123865000D01*
X123855752Y-123865000D01*
X123800000Y-123859509D01*
X123744249Y-123865000D01*
X123688212Y-123865000D01*
X123633252Y-123875932D01*
X123577502Y-123881423D01*
X123523897Y-123897684D01*
X123468933Y-123908617D01*
X123417155Y-123930064D01*
X123363554Y-123946324D01*
X123314153Y-123972729D01*
X123262376Y-123994176D01*
X123215782Y-124025309D01*
X123166378Y-124051716D01*
X123123074Y-124087255D01*
X123076480Y-124118388D01*
X123036855Y-124158013D01*
X122993552Y-124193551D01*
X122958014Y-124236854D01*
X122918388Y-124276480D01*
X122887254Y-124323075D01*
X122851717Y-124366377D01*
X122825312Y-124415778D01*
X122794176Y-124462376D01*
X122772728Y-124514157D01*
X122746325Y-124563553D01*
X122730067Y-124617149D01*
X122708617Y-124668933D01*
X122697683Y-124723904D01*
X122681424Y-124777501D01*
X122675934Y-124833243D01*
X122665000Y-124888212D01*
X122665000Y-125111788D01*
X122665001Y-125111793D01*
X122665000Y-126529868D01*
X115329869Y-133865000D01*
X113935000Y-133865000D01*
X113935000Y-133055741D01*
X113940490Y-132999999D01*
X113935000Y-132944257D01*
X113935000Y-132944248D01*
X113918577Y-132777501D01*
X113853676Y-132563553D01*
X113748284Y-132366377D01*
X113606449Y-132193551D01*
X113563141Y-132158009D01*
X109641992Y-128236861D01*
X109641988Y-128236856D01*
X107303193Y-125898061D01*
X109765000Y-125898061D01*
X109765000Y-126101939D01*
X109804774Y-126301898D01*
X109882795Y-126490256D01*
X109996063Y-126659774D01*
X110140226Y-126803937D01*
X110309744Y-126917205D01*
X110498102Y-126995226D01*
X110698061Y-127035000D01*
X110901939Y-127035000D01*
X111101898Y-126995226D01*
X111290256Y-126917205D01*
X111413285Y-126835000D01*
X113758982Y-126835000D01*
X113800000Y-126839040D01*
X113841018Y-126835000D01*
X113841019Y-126835000D01*
X113963689Y-126822918D01*
X114121087Y-126775172D01*
X114266146Y-126697636D01*
X114393291Y-126593291D01*
X114419446Y-126561421D01*
X115956775Y-125024092D01*
X116101898Y-124995226D01*
X116290256Y-124917205D01*
X116459774Y-124803937D01*
X116603937Y-124659774D01*
X116717205Y-124490256D01*
X116795226Y-124301898D01*
X116835000Y-124101939D01*
X116835000Y-123898061D01*
X116795226Y-123698102D01*
X116717205Y-123509744D01*
X116603937Y-123340226D01*
X116459774Y-123196063D01*
X116290256Y-123082795D01*
X116101898Y-123004774D01*
X115901939Y-122965000D01*
X115698061Y-122965000D01*
X115498102Y-123004774D01*
X115309744Y-123082795D01*
X115140226Y-123196063D01*
X114996063Y-123340226D01*
X114882795Y-123509744D01*
X114804774Y-123698102D01*
X114775908Y-123843225D01*
X113454133Y-125165000D01*
X111413285Y-125165000D01*
X111290256Y-125082795D01*
X111101898Y-125004774D01*
X110901939Y-124965000D01*
X110698061Y-124965000D01*
X110498102Y-125004774D01*
X110309744Y-125082795D01*
X110140226Y-125196063D01*
X109996063Y-125340226D01*
X109882795Y-125509744D01*
X109804774Y-125698102D01*
X109765000Y-125898061D01*
X107303193Y-125898061D01*
X106855000Y-125449869D01*
X106855000Y-124417683D01*
X106924494Y-124380537D01*
X107021185Y-124301185D01*
X107100537Y-124204494D01*
X107159502Y-124094180D01*
X107183966Y-124013534D01*
X107259731Y-124097588D01*
X107493080Y-124271641D01*
X107755901Y-124396825D01*
X107903110Y-124441476D01*
X108133000Y-124320155D01*
X108133000Y-123127000D01*
X108113000Y-123127000D01*
X108113000Y-122873000D01*
X108133000Y-122873000D01*
X108133000Y-121679845D01*
X107903110Y-121558524D01*
X107755901Y-121603175D01*
X107493080Y-121728359D01*
X107259731Y-121902412D01*
X107183966Y-121986466D01*
X107159502Y-121905820D01*
X107100537Y-121795506D01*
X107021185Y-121698815D01*
X106924494Y-121619463D01*
X106814180Y-121560498D01*
X106694482Y-121524188D01*
X106570000Y-121511928D01*
X104870000Y-121511928D01*
X104745518Y-121524188D01*
X104625820Y-121560498D01*
X104515506Y-121619463D01*
X104418815Y-121698815D01*
X104339463Y-121795506D01*
X104280498Y-121905820D01*
X104244188Y-122025518D01*
X104231928Y-122150000D01*
X100460000Y-122150000D01*
X100460000Y-121032279D01*
X100469580Y-120934576D01*
X100488580Y-120871644D01*
X100519445Y-120813595D01*
X100560989Y-120762657D01*
X100611644Y-120720752D01*
X100669471Y-120689485D01*
X100732272Y-120670044D01*
X100827835Y-120660000D01*
X111959132Y-120660000D01*
X111077940Y-121541193D01*
G37*
G04 #@! TD.AperFunction*
M02*
