G04 #@! TF.GenerationSoftware,KiCad,Pcbnew,5.1.10*
G04 #@! TF.CreationDate,2021-09-07T22:45:51+08:00*
G04 #@! TF.ProjectId,nypx06,6e797078-3036-42e6-9b69-6361645f7063,rev?*
G04 #@! TF.SameCoordinates,Original*
G04 #@! TF.FileFunction,Legend,Top*
G04 #@! TF.FilePolarity,Positive*
%FSLAX46Y46*%
G04 Gerber Fmt 4.6, Leading zero omitted, Abs format (unit mm)*
G04 Created by KiCad (PCBNEW 5.1.10) date 2021-09-07 22:45:51*
%MOMM*%
%LPD*%
G01*
G04 APERTURE LIST*
%ADD10C,0.120000*%
%ADD11C,0.150000*%
%ADD12C,1.100000*%
%ADD13O,3.500000X1.900000*%
%ADD14R,2.500000X1.100000*%
%ADD15R,1.780000X2.000000*%
%ADD16R,0.650000X1.060000*%
%ADD17C,1.500000*%
%ADD18C,0.100000*%
%ADD19O,1.700000X1.700000*%
%ADD20R,1.700000X1.700000*%
G04 APERTURE END LIST*
D10*
X122310000Y-123646267D02*
X122310000Y-123353733D01*
X121290000Y-123646267D02*
X121290000Y-123353733D01*
X104020000Y-139400000D02*
X104775000Y-139400000D01*
X100850000Y-128855000D02*
X99800000Y-128855000D01*
X100850000Y-141145000D02*
X99800000Y-141145000D01*
X104020000Y-139400000D02*
X104020000Y-130600000D01*
X111660000Y-129765000D02*
X111660000Y-132000000D01*
X121940000Y-129765000D02*
X111660000Y-129765000D01*
X121940000Y-136235000D02*
X121940000Y-129765000D01*
X111660000Y-136235000D02*
X121940000Y-136235000D01*
X111660000Y-134000000D02*
X111660000Y-136235000D01*
X111660000Y-132000000D02*
G75*
G02*
X111660000Y-134000000I0J-1000000D01*
G01*
X119410000Y-123900000D02*
X119410000Y-121450000D01*
X116190000Y-122100000D02*
X116190000Y-123900000D01*
X124750000Y-136000000D02*
G75*
G03*
X124750000Y-136000000I-950000J0D01*
G01*
X102750000Y-125000000D02*
G75*
G03*
X102750000Y-125000000I-950000J0D01*
G01*
X109950000Y-128800000D02*
G75*
G03*
X109950000Y-128800000I-950000J0D01*
G01*
X106322500Y-146237258D02*
X106322500Y-145762742D01*
X105277500Y-146237258D02*
X105277500Y-145762742D01*
X125562742Y-143522500D02*
X126037258Y-143522500D01*
X125562742Y-142477500D02*
X126037258Y-142477500D01*
X103277500Y-145762742D02*
X103277500Y-146237258D01*
X104322500Y-145762742D02*
X104322500Y-146237258D01*
X126500000Y-140000000D02*
X125100000Y-140000000D01*
X124400000Y-139300000D02*
X124400000Y-138700000D01*
X125100000Y-138000000D02*
X126500000Y-138000000D01*
X127200000Y-138700000D02*
X127200000Y-139300000D01*
X127200000Y-139300000D02*
G75*
G02*
X126500000Y-140000000I-700000J0D01*
G01*
X126500000Y-138000000D02*
G75*
G02*
X127200000Y-138700000I0J-700000D01*
G01*
X124400000Y-138700000D02*
G75*
G02*
X125100000Y-138000000I700000J0D01*
G01*
X125100000Y-140000000D02*
G75*
G02*
X124400000Y-139300000I0J700000D01*
G01*
X104450000Y-124270000D02*
X104450000Y-123000000D01*
X105720000Y-124270000D02*
X104450000Y-124270000D01*
X113720000Y-121957071D02*
X113720000Y-121560000D01*
X112960000Y-121957071D02*
X112960000Y-121560000D01*
X113720000Y-112900000D02*
X113720000Y-118900000D01*
X112960000Y-112900000D02*
X113720000Y-112900000D01*
X112960000Y-118900000D02*
X112960000Y-112900000D01*
X112070000Y-121560000D02*
X112070000Y-118900000D01*
X111180000Y-121957071D02*
X111180000Y-121560000D01*
X110420000Y-121957071D02*
X110420000Y-121560000D01*
X111180000Y-112900000D02*
X111180000Y-118900000D01*
X110420000Y-112900000D02*
X111180000Y-112900000D01*
X110420000Y-118900000D02*
X110420000Y-112900000D01*
X109530000Y-121560000D02*
X109530000Y-118900000D01*
X108640000Y-121957071D02*
X108640000Y-121560000D01*
X107880000Y-121957071D02*
X107880000Y-121560000D01*
X108640000Y-112900000D02*
X108640000Y-118900000D01*
X107880000Y-112900000D02*
X108640000Y-112900000D01*
X107880000Y-118900000D02*
X107880000Y-112900000D01*
X106990000Y-121560000D02*
X106990000Y-118900000D01*
X106100000Y-121890000D02*
X106100000Y-121560000D01*
X105340000Y-121890000D02*
X105340000Y-121560000D01*
X106000000Y-118900000D02*
X106000000Y-112900000D01*
X105880000Y-118900000D02*
X105880000Y-112900000D01*
X105760000Y-118900000D02*
X105760000Y-112900000D01*
X105640000Y-118900000D02*
X105640000Y-112900000D01*
X105520000Y-118900000D02*
X105520000Y-112900000D01*
X105400000Y-118900000D02*
X105400000Y-112900000D01*
X106100000Y-112900000D02*
X106100000Y-118900000D01*
X105340000Y-112900000D02*
X106100000Y-112900000D01*
X105340000Y-118900000D02*
X105340000Y-112900000D01*
X104390000Y-118900000D02*
X104390000Y-121560000D01*
X114670000Y-118900000D02*
X104390000Y-118900000D01*
X114670000Y-121560000D02*
X114670000Y-118900000D01*
X104390000Y-121560000D02*
X114670000Y-121560000D01*
X124140000Y-141735000D02*
X126600000Y-141735000D01*
X124140000Y-140265000D02*
X124140000Y-141735000D01*
X126600000Y-140265000D02*
X124140000Y-140265000D01*
X108535000Y-147660000D02*
X108535000Y-145200000D01*
X107065000Y-147660000D02*
X108535000Y-147660000D01*
X107065000Y-145200000D02*
X107065000Y-147660000D01*
X101065000Y-145200000D02*
X101065000Y-147660000D01*
X101065000Y-147660000D02*
X102535000Y-147660000D01*
X102535000Y-147660000D02*
X102535000Y-145200000D01*
X113797500Y-141687500D02*
X113172500Y-141687500D01*
X113485000Y-141375000D02*
X113485000Y-142000000D01*
X110104437Y-142240000D02*
X109040000Y-143304437D01*
X113495563Y-142240000D02*
X114560000Y-143304437D01*
X113495563Y-142240000D02*
X112860000Y-142240000D01*
X110104437Y-142240000D02*
X110740000Y-142240000D01*
X109040000Y-143304437D02*
X109040000Y-147760000D01*
X114560000Y-143304437D02*
X114560000Y-147760000D01*
X114560000Y-147760000D02*
X112860000Y-147760000D01*
X109040000Y-147760000D02*
X110740000Y-147760000D01*
X120797500Y-141687500D02*
X120172500Y-141687500D01*
X120485000Y-141375000D02*
X120485000Y-142000000D01*
X117104437Y-142240000D02*
X116040000Y-143304437D01*
X120495563Y-142240000D02*
X121560000Y-143304437D01*
X120495563Y-142240000D02*
X119860000Y-142240000D01*
X117104437Y-142240000D02*
X117740000Y-142240000D01*
X116040000Y-143304437D02*
X116040000Y-147760000D01*
X121560000Y-143304437D02*
X121560000Y-147760000D01*
X121560000Y-147760000D02*
X119860000Y-147760000D01*
X116040000Y-147760000D02*
X117740000Y-147760000D01*
X126065000Y-145738748D02*
X126065000Y-146261252D01*
X127535000Y-145738748D02*
X127535000Y-146261252D01*
X124065000Y-145738748D02*
X124065000Y-146261252D01*
X125535000Y-145738748D02*
X125535000Y-146261252D01*
D11*
X122157142Y-126666666D02*
X122204761Y-126714285D01*
X122252380Y-126857142D01*
X122252380Y-126952380D01*
X122204761Y-127095238D01*
X122109523Y-127190476D01*
X122014285Y-127238095D01*
X121823809Y-127285714D01*
X121680952Y-127285714D01*
X121490476Y-127238095D01*
X121395238Y-127190476D01*
X121300000Y-127095238D01*
X121252380Y-126952380D01*
X121252380Y-126857142D01*
X121300000Y-126714285D01*
X121347619Y-126666666D01*
X121252380Y-125761904D02*
X121252380Y-126238095D01*
X121728571Y-126285714D01*
X121680952Y-126238095D01*
X121633333Y-126142857D01*
X121633333Y-125904761D01*
X121680952Y-125809523D01*
X121728571Y-125761904D01*
X121823809Y-125714285D01*
X122061904Y-125714285D01*
X122157142Y-125761904D01*
X122204761Y-125809523D01*
X122252380Y-125904761D01*
X122252380Y-126142857D01*
X122204761Y-126238095D01*
X122157142Y-126285714D01*
X100752380Y-127833333D02*
X101466666Y-127833333D01*
X101609523Y-127880952D01*
X101704761Y-127976190D01*
X101752380Y-128119047D01*
X101752380Y-128214285D01*
X101085714Y-126928571D02*
X101752380Y-126928571D01*
X100704761Y-127166666D02*
X101419047Y-127404761D01*
X101419047Y-126785714D01*
X110112380Y-133761904D02*
X110921904Y-133761904D01*
X111017142Y-133714285D01*
X111064761Y-133666666D01*
X111112380Y-133571428D01*
X111112380Y-133380952D01*
X111064761Y-133285714D01*
X111017142Y-133238095D01*
X110921904Y-133190476D01*
X110112380Y-133190476D01*
X110207619Y-132761904D02*
X110160000Y-132714285D01*
X110112380Y-132619047D01*
X110112380Y-132380952D01*
X110160000Y-132285714D01*
X110207619Y-132238095D01*
X110302857Y-132190476D01*
X110398095Y-132190476D01*
X110540952Y-132238095D01*
X111112380Y-132809523D01*
X111112380Y-132190476D01*
X115252380Y-126261904D02*
X116061904Y-126261904D01*
X116157142Y-126214285D01*
X116204761Y-126166666D01*
X116252380Y-126071428D01*
X116252380Y-125880952D01*
X116204761Y-125785714D01*
X116157142Y-125738095D01*
X116061904Y-125690476D01*
X115252380Y-125690476D01*
X116252380Y-124690476D02*
X116252380Y-125261904D01*
X116252380Y-124976190D02*
X115252380Y-124976190D01*
X115395238Y-125071428D01*
X115490476Y-125166666D01*
X115538095Y-125261904D01*
X106252380Y-143166666D02*
X105776190Y-143500000D01*
X106252380Y-143738095D02*
X105252380Y-143738095D01*
X105252380Y-143357142D01*
X105300000Y-143261904D01*
X105347619Y-143214285D01*
X105442857Y-143166666D01*
X105585714Y-143166666D01*
X105680952Y-143214285D01*
X105728571Y-143261904D01*
X105776190Y-143357142D01*
X105776190Y-143738095D01*
X105252380Y-142833333D02*
X105252380Y-142214285D01*
X105633333Y-142547619D01*
X105633333Y-142404761D01*
X105680952Y-142309523D01*
X105728571Y-142261904D01*
X105823809Y-142214285D01*
X106061904Y-142214285D01*
X106157142Y-142261904D01*
X106204761Y-142309523D01*
X106252380Y-142404761D01*
X106252380Y-142690476D01*
X106204761Y-142785714D01*
X106157142Y-142833333D01*
X123752380Y-143166666D02*
X123276190Y-143500000D01*
X123752380Y-143738095D02*
X122752380Y-143738095D01*
X122752380Y-143357142D01*
X122800000Y-143261904D01*
X122847619Y-143214285D01*
X122942857Y-143166666D01*
X123085714Y-143166666D01*
X123180952Y-143214285D01*
X123228571Y-143261904D01*
X123276190Y-143357142D01*
X123276190Y-143738095D01*
X122847619Y-142785714D02*
X122800000Y-142738095D01*
X122752380Y-142642857D01*
X122752380Y-142404761D01*
X122800000Y-142309523D01*
X122847619Y-142261904D01*
X122942857Y-142214285D01*
X123038095Y-142214285D01*
X123180952Y-142261904D01*
X123752380Y-142833333D01*
X123752380Y-142214285D01*
X104252380Y-143166666D02*
X103776190Y-143500000D01*
X104252380Y-143738095D02*
X103252380Y-143738095D01*
X103252380Y-143357142D01*
X103300000Y-143261904D01*
X103347619Y-143214285D01*
X103442857Y-143166666D01*
X103585714Y-143166666D01*
X103680952Y-143214285D01*
X103728571Y-143261904D01*
X103776190Y-143357142D01*
X103776190Y-143738095D01*
X104252380Y-142214285D02*
X104252380Y-142785714D01*
X104252380Y-142500000D02*
X103252380Y-142500000D01*
X103395238Y-142595238D01*
X103490476Y-142690476D01*
X103538095Y-142785714D01*
X125712380Y-136333333D02*
X126426666Y-136333333D01*
X126569523Y-136380952D01*
X126664761Y-136476190D01*
X126712380Y-136619047D01*
X126712380Y-136714285D01*
X125712380Y-135952380D02*
X125712380Y-135333333D01*
X126093333Y-135666666D01*
X126093333Y-135523809D01*
X126140952Y-135428571D01*
X126188571Y-135380952D01*
X126283809Y-135333333D01*
X126521904Y-135333333D01*
X126617142Y-135380952D01*
X126664761Y-135428571D01*
X126712380Y-135523809D01*
X126712380Y-135809523D01*
X126664761Y-135904761D01*
X126617142Y-135952380D01*
X125712380Y-134333333D02*
X126426666Y-134333333D01*
X126569523Y-134380952D01*
X126664761Y-134476190D01*
X126712380Y-134619047D01*
X126712380Y-134714285D01*
X125807619Y-133904761D02*
X125760000Y-133857142D01*
X125712380Y-133761904D01*
X125712380Y-133523809D01*
X125760000Y-133428571D01*
X125807619Y-133380952D01*
X125902857Y-133333333D01*
X125998095Y-133333333D01*
X126140952Y-133380952D01*
X126712380Y-133952380D01*
X126712380Y-133333333D01*
X102752380Y-122333333D02*
X103466666Y-122333333D01*
X103609523Y-122380952D01*
X103704761Y-122476190D01*
X103752380Y-122619047D01*
X103752380Y-122714285D01*
X103752380Y-121333333D02*
X103752380Y-121904761D01*
X103752380Y-121619047D02*
X102752380Y-121619047D01*
X102895238Y-121714285D01*
X102990476Y-121809523D01*
X103038095Y-121904761D01*
X123752380Y-141738095D02*
X122752380Y-141738095D01*
X122752380Y-141500000D01*
X122800000Y-141357142D01*
X122895238Y-141261904D01*
X122990476Y-141214285D01*
X123180952Y-141166666D01*
X123323809Y-141166666D01*
X123514285Y-141214285D01*
X123609523Y-141261904D01*
X123704761Y-141357142D01*
X123752380Y-141500000D01*
X123752380Y-141738095D01*
X122752380Y-140833333D02*
X122752380Y-140214285D01*
X123133333Y-140547619D01*
X123133333Y-140404761D01*
X123180952Y-140309523D01*
X123228571Y-140261904D01*
X123323809Y-140214285D01*
X123561904Y-140214285D01*
X123657142Y-140261904D01*
X123704761Y-140309523D01*
X123752380Y-140404761D01*
X123752380Y-140690476D01*
X123704761Y-140785714D01*
X123657142Y-140833333D01*
X108252380Y-143738095D02*
X107252380Y-143738095D01*
X107252380Y-143500000D01*
X107300000Y-143357142D01*
X107395238Y-143261904D01*
X107490476Y-143214285D01*
X107680952Y-143166666D01*
X107823809Y-143166666D01*
X108014285Y-143214285D01*
X108109523Y-143261904D01*
X108204761Y-143357142D01*
X108252380Y-143500000D01*
X108252380Y-143738095D01*
X107347619Y-142785714D02*
X107300000Y-142738095D01*
X107252380Y-142642857D01*
X107252380Y-142404761D01*
X107300000Y-142309523D01*
X107347619Y-142261904D01*
X107442857Y-142214285D01*
X107538095Y-142214285D01*
X107680952Y-142261904D01*
X108252380Y-142833333D01*
X108252380Y-142214285D01*
X102252380Y-143738095D02*
X101252380Y-143738095D01*
X101252380Y-143500000D01*
X101300000Y-143357142D01*
X101395238Y-143261904D01*
X101490476Y-143214285D01*
X101680952Y-143166666D01*
X101823809Y-143166666D01*
X102014285Y-143214285D01*
X102109523Y-143261904D01*
X102204761Y-143357142D01*
X102252380Y-143500000D01*
X102252380Y-143738095D01*
X102252380Y-142214285D02*
X102252380Y-142785714D01*
X102252380Y-142500000D02*
X101252380Y-142500000D01*
X101395238Y-142595238D01*
X101490476Y-142690476D01*
X101538095Y-142785714D01*
X114157142Y-149166666D02*
X114204761Y-149214285D01*
X114252380Y-149357142D01*
X114252380Y-149452380D01*
X114204761Y-149595238D01*
X114109523Y-149690476D01*
X114014285Y-149738095D01*
X113823809Y-149785714D01*
X113680952Y-149785714D01*
X113490476Y-149738095D01*
X113395238Y-149690476D01*
X113300000Y-149595238D01*
X113252380Y-149452380D01*
X113252380Y-149357142D01*
X113300000Y-149214285D01*
X113347619Y-149166666D01*
X113585714Y-148309523D02*
X114252380Y-148309523D01*
X113204761Y-148547619D02*
X113919047Y-148785714D01*
X113919047Y-148166666D01*
X121157142Y-149166666D02*
X121204761Y-149214285D01*
X121252380Y-149357142D01*
X121252380Y-149452380D01*
X121204761Y-149595238D01*
X121109523Y-149690476D01*
X121014285Y-149738095D01*
X120823809Y-149785714D01*
X120680952Y-149785714D01*
X120490476Y-149738095D01*
X120395238Y-149690476D01*
X120300000Y-149595238D01*
X120252380Y-149452380D01*
X120252380Y-149357142D01*
X120300000Y-149214285D01*
X120347619Y-149166666D01*
X120252380Y-148833333D02*
X120252380Y-148214285D01*
X120633333Y-148547619D01*
X120633333Y-148404761D01*
X120680952Y-148309523D01*
X120728571Y-148261904D01*
X120823809Y-148214285D01*
X121061904Y-148214285D01*
X121157142Y-148261904D01*
X121204761Y-148309523D01*
X121252380Y-148404761D01*
X121252380Y-148690476D01*
X121204761Y-148785714D01*
X121157142Y-148833333D01*
X127157142Y-149166666D02*
X127204761Y-149214285D01*
X127252380Y-149357142D01*
X127252380Y-149452380D01*
X127204761Y-149595238D01*
X127109523Y-149690476D01*
X127014285Y-149738095D01*
X126823809Y-149785714D01*
X126680952Y-149785714D01*
X126490476Y-149738095D01*
X126395238Y-149690476D01*
X126300000Y-149595238D01*
X126252380Y-149452380D01*
X126252380Y-149357142D01*
X126300000Y-149214285D01*
X126347619Y-149166666D01*
X126347619Y-148785714D02*
X126300000Y-148738095D01*
X126252380Y-148642857D01*
X126252380Y-148404761D01*
X126300000Y-148309523D01*
X126347619Y-148261904D01*
X126442857Y-148214285D01*
X126538095Y-148214285D01*
X126680952Y-148261904D01*
X127252380Y-148833333D01*
X127252380Y-148214285D01*
X125157142Y-149166666D02*
X125204761Y-149214285D01*
X125252380Y-149357142D01*
X125252380Y-149452380D01*
X125204761Y-149595238D01*
X125109523Y-149690476D01*
X125014285Y-149738095D01*
X124823809Y-149785714D01*
X124680952Y-149785714D01*
X124490476Y-149738095D01*
X124395238Y-149690476D01*
X124300000Y-149595238D01*
X124252380Y-149452380D01*
X124252380Y-149357142D01*
X124300000Y-149214285D01*
X124347619Y-149166666D01*
X125252380Y-148214285D02*
X125252380Y-148785714D01*
X125252380Y-148500000D02*
X124252380Y-148500000D01*
X124395238Y-148595238D01*
X124490476Y-148690476D01*
X124538095Y-148785714D01*
%LPC*%
G36*
G01*
X122037500Y-123175000D02*
X121562500Y-123175000D01*
G75*
G02*
X121325000Y-122937500I0J237500D01*
G01*
X121325000Y-122337500D01*
G75*
G02*
X121562500Y-122100000I237500J0D01*
G01*
X122037500Y-122100000D01*
G75*
G02*
X122275000Y-122337500I0J-237500D01*
G01*
X122275000Y-122937500D01*
G75*
G02*
X122037500Y-123175000I-237500J0D01*
G01*
G37*
G36*
G01*
X122037500Y-124900000D02*
X121562500Y-124900000D01*
G75*
G02*
X121325000Y-124662500I0J237500D01*
G01*
X121325000Y-124062500D01*
G75*
G02*
X121562500Y-123825000I237500J0D01*
G01*
X122037500Y-123825000D01*
G75*
G02*
X122275000Y-124062500I0J-237500D01*
G01*
X122275000Y-124662500D01*
G75*
G02*
X122037500Y-124900000I-237500J0D01*
G01*
G37*
D12*
X102900000Y-132700000D03*
X102900000Y-137300000D03*
D13*
X102900000Y-129300000D03*
X102900000Y-140700000D03*
D14*
X105650000Y-131500000D03*
X105650000Y-138500000D03*
X105650000Y-134000000D03*
X105650000Y-136000000D03*
D15*
X112990000Y-128235000D03*
X120610000Y-137765000D03*
X115530000Y-128235000D03*
X118070000Y-137765000D03*
X118070000Y-128235000D03*
X115530000Y-137765000D03*
X120610000Y-128235000D03*
X112990000Y-137765000D03*
D16*
X117800000Y-124100000D03*
X118750000Y-124100000D03*
X116850000Y-124100000D03*
X116850000Y-121900000D03*
X117800000Y-121900000D03*
X118750000Y-121900000D03*
D17*
X123800000Y-136000000D03*
X101800000Y-125000000D03*
X109000000Y-128800000D03*
G36*
G01*
X106075000Y-145575000D02*
X105525000Y-145575000D01*
G75*
G02*
X105325000Y-145375000I0J200000D01*
G01*
X105325000Y-144975000D01*
G75*
G02*
X105525000Y-144775000I200000J0D01*
G01*
X106075000Y-144775000D01*
G75*
G02*
X106275000Y-144975000I0J-200000D01*
G01*
X106275000Y-145375000D01*
G75*
G02*
X106075000Y-145575000I-200000J0D01*
G01*
G37*
G36*
G01*
X106075000Y-147225000D02*
X105525000Y-147225000D01*
G75*
G02*
X105325000Y-147025000I0J200000D01*
G01*
X105325000Y-146625000D01*
G75*
G02*
X105525000Y-146425000I200000J0D01*
G01*
X106075000Y-146425000D01*
G75*
G02*
X106275000Y-146625000I0J-200000D01*
G01*
X106275000Y-147025000D01*
G75*
G02*
X106075000Y-147225000I-200000J0D01*
G01*
G37*
G36*
G01*
X126225000Y-143275000D02*
X126225000Y-142725000D01*
G75*
G02*
X126425000Y-142525000I200000J0D01*
G01*
X126825000Y-142525000D01*
G75*
G02*
X127025000Y-142725000I0J-200000D01*
G01*
X127025000Y-143275000D01*
G75*
G02*
X126825000Y-143475000I-200000J0D01*
G01*
X126425000Y-143475000D01*
G75*
G02*
X126225000Y-143275000I0J200000D01*
G01*
G37*
G36*
G01*
X124575000Y-143275000D02*
X124575000Y-142725000D01*
G75*
G02*
X124775000Y-142525000I200000J0D01*
G01*
X125175000Y-142525000D01*
G75*
G02*
X125375000Y-142725000I0J-200000D01*
G01*
X125375000Y-143275000D01*
G75*
G02*
X125175000Y-143475000I-200000J0D01*
G01*
X124775000Y-143475000D01*
G75*
G02*
X124575000Y-143275000I0J200000D01*
G01*
G37*
G36*
G01*
X103525000Y-146425000D02*
X104075000Y-146425000D01*
G75*
G02*
X104275000Y-146625000I0J-200000D01*
G01*
X104275000Y-147025000D01*
G75*
G02*
X104075000Y-147225000I-200000J0D01*
G01*
X103525000Y-147225000D01*
G75*
G02*
X103325000Y-147025000I0J200000D01*
G01*
X103325000Y-146625000D01*
G75*
G02*
X103525000Y-146425000I200000J0D01*
G01*
G37*
G36*
G01*
X103525000Y-144775000D02*
X104075000Y-144775000D01*
G75*
G02*
X104275000Y-144975000I0J-200000D01*
G01*
X104275000Y-145375000D01*
G75*
G02*
X104075000Y-145575000I-200000J0D01*
G01*
X103525000Y-145575000D01*
G75*
G02*
X103325000Y-145375000I0J200000D01*
G01*
X103325000Y-144975000D01*
G75*
G02*
X103525000Y-144775000I200000J0D01*
G01*
G37*
D18*
G36*
X125950000Y-138250000D02*
G01*
X126450000Y-138250000D01*
X126450000Y-138250602D01*
X126474534Y-138250602D01*
X126523365Y-138255412D01*
X126571490Y-138264984D01*
X126618445Y-138279228D01*
X126663778Y-138298005D01*
X126707051Y-138321136D01*
X126747850Y-138348396D01*
X126785779Y-138379524D01*
X126820476Y-138414221D01*
X126851604Y-138452150D01*
X126878864Y-138492949D01*
X126901995Y-138536222D01*
X126920772Y-138581555D01*
X126935016Y-138628510D01*
X126944588Y-138676635D01*
X126949398Y-138725466D01*
X126949398Y-138750000D01*
X126950000Y-138750000D01*
X126950000Y-139250000D01*
X126949398Y-139250000D01*
X126949398Y-139274534D01*
X126944588Y-139323365D01*
X126935016Y-139371490D01*
X126920772Y-139418445D01*
X126901995Y-139463778D01*
X126878864Y-139507051D01*
X126851604Y-139547850D01*
X126820476Y-139585779D01*
X126785779Y-139620476D01*
X126747850Y-139651604D01*
X126707051Y-139678864D01*
X126663778Y-139701995D01*
X126618445Y-139720772D01*
X126571490Y-139735016D01*
X126523365Y-139744588D01*
X126474534Y-139749398D01*
X126450000Y-139749398D01*
X126450000Y-139750000D01*
X125950000Y-139750000D01*
X125950000Y-138250000D01*
G37*
G36*
X125150000Y-139749398D02*
G01*
X125125466Y-139749398D01*
X125076635Y-139744588D01*
X125028510Y-139735016D01*
X124981555Y-139720772D01*
X124936222Y-139701995D01*
X124892949Y-139678864D01*
X124852150Y-139651604D01*
X124814221Y-139620476D01*
X124779524Y-139585779D01*
X124748396Y-139547850D01*
X124721136Y-139507051D01*
X124698005Y-139463778D01*
X124679228Y-139418445D01*
X124664984Y-139371490D01*
X124655412Y-139323365D01*
X124650602Y-139274534D01*
X124650602Y-139250000D01*
X124650000Y-139250000D01*
X124650000Y-138750000D01*
X124650602Y-138750000D01*
X124650602Y-138725466D01*
X124655412Y-138676635D01*
X124664984Y-138628510D01*
X124679228Y-138581555D01*
X124698005Y-138536222D01*
X124721136Y-138492949D01*
X124748396Y-138452150D01*
X124779524Y-138414221D01*
X124814221Y-138379524D01*
X124852150Y-138348396D01*
X124892949Y-138321136D01*
X124936222Y-138298005D01*
X124981555Y-138279228D01*
X125028510Y-138264984D01*
X125076635Y-138255412D01*
X125125466Y-138250602D01*
X125150000Y-138250602D01*
X125150000Y-138250000D01*
X125650000Y-138250000D01*
X125650000Y-139750000D01*
X125150000Y-139750000D01*
X125150000Y-139749398D01*
G37*
G36*
G01*
X129550000Y-136500000D02*
X128050000Y-136500000D01*
G75*
G02*
X127800000Y-136250000I0J250000D01*
G01*
X127800000Y-135750000D01*
G75*
G02*
X128050000Y-135500000I250000J0D01*
G01*
X129550000Y-135500000D01*
G75*
G02*
X129800000Y-135750000I0J-250000D01*
G01*
X129800000Y-136250000D01*
G75*
G02*
X129550000Y-136500000I-250000J0D01*
G01*
G37*
G36*
G01*
X129550000Y-134500000D02*
X128050000Y-134500000D01*
G75*
G02*
X127800000Y-134250000I0J250000D01*
G01*
X127800000Y-133750000D01*
G75*
G02*
X128050000Y-133500000I250000J0D01*
G01*
X129550000Y-133500000D01*
G75*
G02*
X129800000Y-133750000I0J-250000D01*
G01*
X129800000Y-134250000D01*
G75*
G02*
X129550000Y-134500000I-250000J0D01*
G01*
G37*
D19*
X113340000Y-123000000D03*
X110800000Y-123000000D03*
X108260000Y-123000000D03*
D20*
X105720000Y-123000000D03*
G36*
G01*
X126150000Y-141237500D02*
X126150000Y-140762500D01*
G75*
G02*
X126387500Y-140525000I237500J0D01*
G01*
X126962500Y-140525000D01*
G75*
G02*
X127200000Y-140762500I0J-237500D01*
G01*
X127200000Y-141237500D01*
G75*
G02*
X126962500Y-141475000I-237500J0D01*
G01*
X126387500Y-141475000D01*
G75*
G02*
X126150000Y-141237500I0J237500D01*
G01*
G37*
G36*
G01*
X124400000Y-141237500D02*
X124400000Y-140762500D01*
G75*
G02*
X124637500Y-140525000I237500J0D01*
G01*
X125212500Y-140525000D01*
G75*
G02*
X125450000Y-140762500I0J-237500D01*
G01*
X125450000Y-141237500D01*
G75*
G02*
X125212500Y-141475000I-237500J0D01*
G01*
X124637500Y-141475000D01*
G75*
G02*
X124400000Y-141237500I0J237500D01*
G01*
G37*
G36*
G01*
X108037500Y-145650000D02*
X107562500Y-145650000D01*
G75*
G02*
X107325000Y-145412500I0J237500D01*
G01*
X107325000Y-144837500D01*
G75*
G02*
X107562500Y-144600000I237500J0D01*
G01*
X108037500Y-144600000D01*
G75*
G02*
X108275000Y-144837500I0J-237500D01*
G01*
X108275000Y-145412500D01*
G75*
G02*
X108037500Y-145650000I-237500J0D01*
G01*
G37*
G36*
G01*
X108037500Y-147400000D02*
X107562500Y-147400000D01*
G75*
G02*
X107325000Y-147162500I0J237500D01*
G01*
X107325000Y-146587500D01*
G75*
G02*
X107562500Y-146350000I237500J0D01*
G01*
X108037500Y-146350000D01*
G75*
G02*
X108275000Y-146587500I0J-237500D01*
G01*
X108275000Y-147162500D01*
G75*
G02*
X108037500Y-147400000I-237500J0D01*
G01*
G37*
G36*
G01*
X102037500Y-147400000D02*
X101562500Y-147400000D01*
G75*
G02*
X101325000Y-147162500I0J237500D01*
G01*
X101325000Y-146587500D01*
G75*
G02*
X101562500Y-146350000I237500J0D01*
G01*
X102037500Y-146350000D01*
G75*
G02*
X102275000Y-146587500I0J-237500D01*
G01*
X102275000Y-147162500D01*
G75*
G02*
X102037500Y-147400000I-237500J0D01*
G01*
G37*
G36*
G01*
X102037500Y-145650000D02*
X101562500Y-145650000D01*
G75*
G02*
X101325000Y-145412500I0J237500D01*
G01*
X101325000Y-144837500D01*
G75*
G02*
X101562500Y-144600000I237500J0D01*
G01*
X102037500Y-144600000D01*
G75*
G02*
X102275000Y-144837500I0J-237500D01*
G01*
X102275000Y-145412500D01*
G75*
G02*
X102037500Y-145650000I-237500J0D01*
G01*
G37*
G36*
G01*
X111250000Y-145700000D02*
X112350000Y-145700000D01*
G75*
G02*
X112600000Y-145950000I0J-250000D01*
G01*
X112600000Y-148450000D01*
G75*
G02*
X112350000Y-148700000I-250000J0D01*
G01*
X111250000Y-148700000D01*
G75*
G02*
X111000000Y-148450000I0J250000D01*
G01*
X111000000Y-145950000D01*
G75*
G02*
X111250000Y-145700000I250000J0D01*
G01*
G37*
G36*
G01*
X111250000Y-141300000D02*
X112350000Y-141300000D01*
G75*
G02*
X112600000Y-141550000I0J-250000D01*
G01*
X112600000Y-144050000D01*
G75*
G02*
X112350000Y-144300000I-250000J0D01*
G01*
X111250000Y-144300000D01*
G75*
G02*
X111000000Y-144050000I0J250000D01*
G01*
X111000000Y-141550000D01*
G75*
G02*
X111250000Y-141300000I250000J0D01*
G01*
G37*
G36*
G01*
X118250000Y-145700000D02*
X119350000Y-145700000D01*
G75*
G02*
X119600000Y-145950000I0J-250000D01*
G01*
X119600000Y-148450000D01*
G75*
G02*
X119350000Y-148700000I-250000J0D01*
G01*
X118250000Y-148700000D01*
G75*
G02*
X118000000Y-148450000I0J250000D01*
G01*
X118000000Y-145950000D01*
G75*
G02*
X118250000Y-145700000I250000J0D01*
G01*
G37*
G36*
G01*
X118250000Y-141300000D02*
X119350000Y-141300000D01*
G75*
G02*
X119600000Y-141550000I0J-250000D01*
G01*
X119600000Y-144050000D01*
G75*
G02*
X119350000Y-144300000I-250000J0D01*
G01*
X118250000Y-144300000D01*
G75*
G02*
X118000000Y-144050000I0J250000D01*
G01*
X118000000Y-141550000D01*
G75*
G02*
X118250000Y-141300000I250000J0D01*
G01*
G37*
G36*
G01*
X126325000Y-146450000D02*
X127275000Y-146450000D01*
G75*
G02*
X127525000Y-146700000I0J-250000D01*
G01*
X127525000Y-147375000D01*
G75*
G02*
X127275000Y-147625000I-250000J0D01*
G01*
X126325000Y-147625000D01*
G75*
G02*
X126075000Y-147375000I0J250000D01*
G01*
X126075000Y-146700000D01*
G75*
G02*
X126325000Y-146450000I250000J0D01*
G01*
G37*
G36*
G01*
X126325000Y-144375000D02*
X127275000Y-144375000D01*
G75*
G02*
X127525000Y-144625000I0J-250000D01*
G01*
X127525000Y-145300000D01*
G75*
G02*
X127275000Y-145550000I-250000J0D01*
G01*
X126325000Y-145550000D01*
G75*
G02*
X126075000Y-145300000I0J250000D01*
G01*
X126075000Y-144625000D01*
G75*
G02*
X126325000Y-144375000I250000J0D01*
G01*
G37*
G36*
G01*
X124325000Y-146450000D02*
X125275000Y-146450000D01*
G75*
G02*
X125525000Y-146700000I0J-250000D01*
G01*
X125525000Y-147375000D01*
G75*
G02*
X125275000Y-147625000I-250000J0D01*
G01*
X124325000Y-147625000D01*
G75*
G02*
X124075000Y-147375000I0J250000D01*
G01*
X124075000Y-146700000D01*
G75*
G02*
X124325000Y-146450000I250000J0D01*
G01*
G37*
G36*
G01*
X124325000Y-144375000D02*
X125275000Y-144375000D01*
G75*
G02*
X125525000Y-144625000I0J-250000D01*
G01*
X125525000Y-145300000D01*
G75*
G02*
X125275000Y-145550000I-250000J0D01*
G01*
X124325000Y-145550000D01*
G75*
G02*
X124075000Y-145300000I0J250000D01*
G01*
X124075000Y-144625000D01*
G75*
G02*
X124325000Y-144375000I250000J0D01*
G01*
G37*
M02*
